<svg width="82" height="81" viewBox="0 0 82 81" fill="none" xmlns="http://www.w3.org/2000/svg">
<path d="M14.3346 7C10.668 7 7.66797 10 7.66797 13.6667V40.3333C7.66797 44 10.668 47 14.3346 47H34.3346V67C34.3346 70.6667 37.3346 73.6667 41.0013 73.6667H67.668C71.3346 73.6667 74.3346 70.6667 74.3346 67V40.3333C74.3346 36.6667 71.3346 33.6667 67.668 33.6667H47.668V13.6667C47.668 10 44.668 7 41.0013 7H14.3346ZM24.9206 13.6667H30.3503L38.5339 34.1549C36.4085 35.0095 34.8332 36.9237 34.4453 39.2396L32.3555 33.6667H22.9284L20.4284 40.3854L14.3346 40.3333L24.9206 13.6667ZM27.668 20.3333L24.3346 30.3333H31.0013L27.668 20.3333ZM53.2344 40.3398C56.2433 40.2202 58.1693 43.1068 58.1693 43.1068V44.3633C58.1693 44.3633 56.9099 43.1068 54.3932 43.1068C53.6899 43.1068 51.9917 43.7183 51.6784 45.5417C51.3384 47.525 54.7631 48.1393 55.6497 48.1393C58.1664 48.1393 60.9948 46.9479 60.9948 46.9479L59.1263 53.6667C59.1263 53.6667 56.8611 51.5246 53.0911 52.7812C50.4245 53.6712 49.947 57.3858 50.487 58.5625C53.087 64.2425 64.3346 63.6667 64.3346 63.6667C64.3346 63.6667 61.0532 67 54.3932 67C49.9599 67 44.3346 64.4844 44.3346 59.4544C44.3346 54.4244 49.3672 51.9089 49.3672 51.9089C49.3672 51.9089 48.0676 50.1046 47.8242 49.4479C46.8342 46.7912 48.1069 41.8439 51.8802 40.5872C52.3519 40.4302 52.8045 40.3569 53.2344 40.3398Z" fill="#505AC9"/>
</svg>
