<svg width="18" height="21" viewBox="0 0 18 21" fill="none" xmlns="http://www.w3.org/2000/svg">
<path d="M0.5 3.37313V6.19008V20.5H17.5V6.19008V3.37313H0.5Z" fill="#505AC9"/>
<path d="M6.32197 0.5H4.01147V4.18613H6.32197V0.5Z" fill="#323376"/>
<path d="M13.9887 0.5H11.6782V4.18613H13.9887V0.5Z" fill="#323376"/>
<path d="M14.0709 9.89624C13.934 9.75836 13.7124 9.75836 13.5755 9.89624L7.47311 16.0443L4.4246 12.973C4.28774 12.8351 4.06611 12.8351 3.92925 12.973C3.79239 13.1108 3.79239 13.3341 3.92925 13.472L7.22532 16.7927C7.29375 16.8617 7.38343 16.896 7.47311 16.896C7.5628 16.896 7.65248 16.8617 7.72091 16.7927L14.0709 10.3953C14.2077 10.2574 14.2077 10.0341 14.0709 9.89624Z" fill="white" fill-opacity="0.8"/>
<path d="M17.5 3.37313H0.5V6.19008H17.5V3.37313Z" fill="#7C91DE"/>
</svg>
