<svg width="36" height="40" viewBox="0 0 36 40" fill="none" xmlns="http://www.w3.org/2000/svg">
<path d="M26.0653 17.696C27.3376 17.696 28.3689 18.7273 28.3689 19.9996C28.3689 21.2718 27.3376 22.3032 26.0653 22.3032M26.0653 17.696C24.793 17.696 23.7617 18.7273 23.7617 19.9996C23.7617 21.2718 24.793 22.3032 26.0653 22.3032M26.0653 17.696V10.7853M26.0653 22.3032V29.2139M18.0028 15.3924V29.2139M9.94029 24.6067V10.7853M18.0028 15.3924C16.7305 15.3924 15.6992 14.3611 15.6992 13.0889C15.6992 11.8166 16.7305 10.7853 18.0028 10.7853C19.2751 10.7853 20.3064 11.8166 20.3064 13.0889C20.3064 14.3611 19.2751 15.3924 18.0028 15.3924ZM9.94029 24.6067C11.2125 24.6067 12.2439 25.6381 12.2439 26.9103C12.2439 28.1825 11.2125 29.2139 9.94029 29.2139C8.66806 29.2139 7.63672 28.1825 7.63672 26.9103C7.63672 25.6381 8.66806 24.6067 9.94029 24.6067Z" stroke="#F08A61" stroke-width="1.72768" stroke-linecap="round"/>
<rect x="0.5" y="0.5" width="35" height="39" rx="5.5" stroke="#F08A61"/>
</svg>
