<svg width="161" height="124" viewBox="0 0 161 124" fill="none" xmlns="http://www.w3.org/2000/svg">
<g clip-path="url(#clip0_1544_76070)">
<path d="M56.3709 6.72249C90.5366 -9.33154 131.515 18.2701 141 41.0378C163.774 95.7083 123.974 120.94 106.465 111.711C99.1559 107.858 93.1853 101.278 87.4147 94.8772C78.8805 85.4102 67.1404 79.7942 55.2326 79.4823C45.9618 79.2395 36.7349 82.0742 27.4899 81.2416C18.2449 80.4091 10.0792 65.8829 10.3298 55.321C10.7127 39.2004 19.7336 23.9386 56.3709 6.72249Z" fill="#7C91DE"/>
<path d="M147.599 77.7556L147.945 77.7988L143.667 122.342L143.321 122.299L147.599 77.7556Z" fill="#0E201A"/>
<path d="M136.52 97.2013L138.625 120.924L138.278 120.964L136.174 97.2413L136.52 97.2013Z" fill="#0E201A"/>
<path d="M132.899 118.057H148.516V123.832H132.899V118.057Z" fill="#0E201A"/>
<path opacity="0.2" d="M132.899 118.057H148.516V123.832H132.899V118.057Z" fill="white"/>
<path d="M123.485 107.425C120.527 102.945 121.937 96.0484 126.636 92.0209C131.334 87.9933 137.541 88.36 140.499 92.8398C143.457 97.3196 142.047 104.216 137.349 108.244C132.651 112.271 126.444 111.905 123.485 107.425Z" fill="#505AC9"/>
<path opacity="0.2" d="M123.485 107.425C120.527 102.945 121.937 96.0484 126.636 92.0209C131.334 87.9933 137.541 88.36 140.499 92.8398C143.457 97.3196 142.047 104.216 137.349 108.244C132.651 112.271 126.444 111.905 123.485 107.425Z" fill="white"/>
<path opacity="0.5" d="M123.485 107.425C123.683 107.728 123.9 108.014 124.134 108.282C127.39 110.652 132.197 110.279 136.01 107.009C140.708 102.983 142.118 96.0863 139.159 91.6065C138.96 91.3051 138.744 91.019 138.512 90.7499C135.253 88.3777 130.449 88.7525 126.634 92.0207C121.936 96.049 120.526 102.945 123.485 107.425Z" fill="white"/>
<path d="M145.28 90.4277C140.625 86.3344 139.36 79.3143 142.454 74.7479C145.548 70.1815 151.829 69.7979 156.483 73.8912C161.137 77.9845 162.402 85.0046 159.308 89.571C156.215 94.1374 149.934 94.521 145.28 90.4277Z" fill="#505AC9"/>
<path opacity="0.2" d="M146.753 89.2537C150.357 92.4257 154.938 92.909 158.258 90.8443C158.643 90.4585 158.994 90.0318 159.307 89.57C162.401 85.005 161.136 77.9841 156.482 73.8916C152.878 70.7216 148.297 70.2363 144.978 72.2995C144.593 72.6852 144.241 73.1124 143.928 73.5753C140.834 78.1405 142.099 85.1614 146.753 89.2537Z" fill="white"/>
<path d="M36.8366 5.29053H129.326C132.393 5.29053 134.879 8.12328 134.879 11.6177V94.5442C134.879 98.0386 132.393 100.871 129.326 100.871H36.8366C33.7696 100.871 31.2833 98.0386 31.2833 94.5442V11.6177C31.2833 8.12328 33.7696 5.29053 36.8366 5.29053Z" fill="white"/>
<path d="M36.8379 101.07H129.327C130.846 101.068 132.301 100.38 133.375 99.1561C134.449 97.9327 135.053 96.274 135.055 94.5438V11.6175C135.053 9.88726 134.449 8.22841 133.375 7.00497C132.302 5.78154 130.846 5.09348 129.327 5.0918H36.8379C35.3194 5.09353 33.8634 5.78161 32.7897 7.00504C31.7159 8.22847 31.1119 9.8873 31.1104 11.6175V94.5438C31.1119 96.274 31.7158 97.9329 32.7896 99.1564C33.8634 100.38 35.3193 101.068 36.8379 101.07ZM129.327 5.48889C130.753 5.49058 132.12 6.1368 133.129 7.28576C134.137 8.43473 134.705 9.99258 134.706 11.6175V94.5438C134.705 96.1687 134.137 97.7266 133.129 98.8756C132.121 100.025 130.753 100.671 129.327 100.673H36.8379C35.4118 100.671 34.0445 100.025 33.036 98.8756C32.0276 97.7266 31.4604 96.1687 31.459 94.5438V11.6175C31.4605 9.99261 32.0277 8.43479 33.0361 7.28583C34.0445 6.13687 35.4118 5.49063 36.8379 5.48889H129.327Z" fill="#292A2E"/>
<path opacity="0.7" d="M39.4036 22.4727H45.0827C46.2797 22.4727 47.25 23.5782 47.25 24.942V31.4125C47.25 32.7763 46.2797 33.8818 45.0827 33.8818H39.4036C38.2066 33.8818 37.2363 32.7763 37.2363 31.4125V24.942C37.2363 23.5782 38.2066 22.4727 39.4036 22.4727Z" fill="#F08A61"/>
<path opacity="0.7" d="M39.4254 36.6582H45.0609C46.2699 36.6582 47.25 37.7749 47.25 39.1524V45.5732C47.25 46.9507 46.2699 48.0674 45.0609 48.0674H39.4254C38.2164 48.0674 37.2363 46.9507 37.2363 45.5732V39.1524C37.2363 37.7749 38.2164 36.6582 39.4254 36.6582Z" fill="#F08A61"/>
<path opacity="0.7" d="M39.4254 52.7085H45.0609C46.2699 52.7085 47.25 53.8252 47.25 55.2027V61.6235C47.25 63.001 46.2699 64.1177 45.0609 64.1177H39.4254C38.2164 64.1177 37.2363 63.001 37.2363 61.6235V55.2027C37.2363 53.8252 38.2164 52.7085 39.4254 52.7085Z" fill="#F08A61"/>
<path opacity="0.7" d="M39.4254 68.1631H45.0609C46.2699 68.1631 47.25 69.2798 47.25 70.6573V77.0781C47.25 78.4556 46.2699 79.5723 45.0609 79.5723H39.4254C38.2164 79.5723 37.2363 78.4556 37.2363 77.0781V70.6573C37.2363 69.2798 38.2164 68.1631 39.4254 68.1631Z" fill="#F08A61"/>
<g opacity="0.2">
<path d="M80.2356 22.4727H85.9147C87.1117 22.4727 88.082 23.5782 88.082 24.942V31.4125C88.082 32.7763 87.1117 33.8818 85.9147 33.8818H80.2356C79.0387 33.8818 78.0683 32.7763 78.0683 31.4125V24.942C78.0683 23.5782 79.0387 22.4727 80.2356 22.4727Z" fill="#F08A61"/>
<path d="M93.845 22.4727H99.5241C100.721 22.4727 101.691 23.5782 101.691 24.942V31.4125C101.691 32.7763 100.721 33.8818 99.5241 33.8818H93.845C92.6481 33.8818 91.6777 32.7763 91.6777 31.4125V24.942C91.6777 23.5782 92.6481 22.4727 93.845 22.4727Z" fill="#F08A61"/>
<path d="M66.6224 22.4727H72.3014C73.4984 22.4727 74.4688 23.5782 74.4688 24.942V31.4125C74.4688 32.7763 73.4984 33.8818 72.3014 33.8818H66.6224C65.4254 33.8818 64.4551 32.7763 64.4551 31.4125V24.942C64.4551 23.5782 65.4254 22.4727 66.6224 22.4727Z" fill="#F08A61"/>
<path d="M53.013 22.4727H58.6921C59.889 22.4727 60.8594 23.5782 60.8594 24.942V31.4125C60.8594 32.7763 59.889 33.8818 58.6921 33.8818H53.013C51.816 33.8818 50.8457 32.7763 50.8457 31.4125V24.942C50.8457 23.5782 51.816 22.4727 53.013 22.4727Z" fill="#F08A61"/>
<path d="M80.2574 36.6577H85.8929C87.1019 36.6577 88.082 37.7744 88.082 39.1519V45.5727C88.082 46.9502 87.1019 48.0669 85.8929 48.0669H80.2574C79.0484 48.0669 78.0683 46.9502 78.0683 45.5727V39.1519C78.0683 37.7744 79.0484 36.6577 80.2574 36.6577Z" fill="#F08A61"/>
<path d="M66.6442 36.6577H72.2797C73.4887 36.6577 74.4688 37.7744 74.4688 39.1519V45.5727C74.4688 46.9502 73.4887 48.0669 72.2797 48.0669H66.6442C65.4352 48.0669 64.4551 46.9502 64.4551 45.5727V39.1519C64.4551 37.7744 65.4352 36.6577 66.6442 36.6577Z" fill="#F08A61"/>
<path d="M53.0348 36.6577H58.6703C59.8793 36.6577 60.8594 37.7744 60.8594 39.1519V45.5727C60.8594 46.9502 59.8793 48.0669 58.6703 48.0669H53.0348C51.8258 48.0669 50.8457 46.9502 50.8457 45.5727V39.1519C50.8457 37.7744 51.8258 36.6577 53.0348 36.6577Z" fill="#F08A61"/>
<path d="M121.089 36.6577H126.725C127.934 36.6577 128.914 37.7744 128.914 39.1519V45.5727C128.914 46.9502 127.934 48.0669 126.725 48.0669H121.089C119.88 48.0669 118.9 46.9502 118.9 45.5727V39.1519C118.9 37.7744 119.88 36.6577 121.089 36.6577Z" fill="#F08A61"/>
<path d="M107.48 36.6577H113.116C114.325 36.6577 115.305 37.7744 115.305 39.1519V45.5727C115.305 46.9502 114.325 48.0669 113.116 48.0669H107.48C106.271 48.0669 105.291 46.9502 105.291 45.5727V39.1519C105.291 37.7744 106.271 36.6577 107.48 36.6577Z" fill="#F08A61"/>
<path d="M93.8668 36.6577H99.5023C100.711 36.6577 101.691 37.7744 101.691 39.1519V45.5727C101.691 46.9502 100.711 48.0669 99.5023 48.0669H93.8668C92.6578 48.0669 91.6777 46.9502 91.6777 45.5727V39.1519C91.6777 37.7744 92.6578 36.6577 93.8668 36.6577Z" fill="#F08A61"/>
<path d="M80.2574 52.708H85.8929C87.1019 52.708 88.082 53.8247 88.082 55.2022V61.623C88.082 63.0005 87.1019 64.1172 85.8929 64.1172H80.2574C79.0484 64.1172 78.0683 63.0005 78.0683 61.623V55.2022C78.0683 53.8247 79.0484 52.708 80.2574 52.708Z" fill="#F08A61"/>
<path d="M66.6442 52.708H72.2797C73.4887 52.708 74.4688 53.8247 74.4688 55.2022V61.623C74.4688 63.0005 73.4887 64.1172 72.2797 64.1172H66.6442C65.4352 64.1172 64.4551 63.0005 64.4551 61.623V55.2022C64.4551 53.8247 65.4352 52.708 66.6442 52.708Z" fill="#F08A61"/>
<path d="M53.0348 52.708H58.6703C59.8793 52.708 60.8594 53.8247 60.8594 55.2022V61.623C60.8594 63.0005 59.8793 64.1172 58.6703 64.1172H53.0348C51.8258 64.1172 50.8457 63.0005 50.8457 61.623V55.2022C50.8457 53.8247 51.8258 52.708 53.0348 52.708Z" fill="#F08A61"/>
<path d="M121.089 52.708H126.725C127.934 52.708 128.914 53.8247 128.914 55.2022V61.623C128.914 63.0005 127.934 64.1172 126.725 64.1172H121.089C119.88 64.1172 118.9 63.0005 118.9 61.623V55.2022C118.9 53.8247 119.88 52.708 121.089 52.708Z" fill="#F08A61"/>
<path d="M107.48 52.708H113.116C114.325 52.708 115.305 53.8247 115.305 55.2022V61.623C115.305 63.0005 114.325 64.1172 113.116 64.1172H107.48C106.271 64.1172 105.291 63.0005 105.291 61.623V55.2022C105.291 53.8247 106.271 52.708 107.48 52.708Z" fill="#F08A61"/>
<path d="M93.8668 52.708H99.5023C100.711 52.708 101.691 53.8247 101.691 55.2022V61.623C101.691 63.0005 100.711 64.1172 99.5023 64.1172H93.8668C92.6578 64.1172 91.6777 63.0005 91.6777 61.623V55.2022C91.6777 53.8247 92.6578 52.708 93.8668 52.708Z" fill="#F08A61"/>
<path d="M80.2574 68.1626H85.8929C87.1019 68.1626 88.082 69.2793 88.082 70.6568V77.0776C88.082 78.4551 87.1019 79.5718 85.8929 79.5718H80.2574C79.0484 79.5718 78.0683 78.4551 78.0683 77.0776V70.6568C78.0683 69.2793 79.0484 68.1626 80.2574 68.1626Z" fill="#F08A61"/>
<path d="M66.6442 68.1626H72.2797C73.4887 68.1626 74.4688 69.2793 74.4688 70.6568V77.0776C74.4688 78.4551 73.4887 79.5718 72.2797 79.5718H66.6442C65.4352 79.5718 64.4551 78.4551 64.4551 77.0776V70.6568C64.4551 69.2793 65.4352 68.1626 66.6442 68.1626Z" fill="#F08A61"/>
<path d="M53.0348 68.1626H58.6703C59.8793 68.1626 60.8594 69.2793 60.8594 70.6568V77.0776C60.8594 78.4551 59.8793 79.5718 58.6703 79.5718H53.0348C51.8258 79.5718 50.8457 78.4551 50.8457 77.0776V70.6568C50.8457 69.2793 51.8258 68.1626 53.0348 68.1626Z" fill="#F08A61"/>
<path d="M121.089 68.1626H126.725C127.934 68.1626 128.914 69.2793 128.914 70.6568V77.0776C128.914 78.4551 127.934 79.5718 126.725 79.5718H121.089C119.88 79.5718 118.9 78.4551 118.9 77.0776V70.6568C118.9 69.2793 119.88 68.1626 121.089 68.1626Z" fill="#F08A61"/>
<path d="M107.48 68.1626H113.116C114.325 68.1626 115.305 69.2793 115.305 70.6568V77.0776C115.305 78.4551 114.325 79.5718 113.116 79.5718H107.48C106.271 79.5718 105.291 78.4551 105.291 77.0776V70.6568C105.291 69.2793 106.271 68.1626 107.48 68.1626Z" fill="#F08A61"/>
<path d="M93.8668 68.1626H99.5023C100.711 68.1626 101.691 69.2793 101.691 70.6568V77.0776C101.691 78.4551 100.711 79.5718 99.5023 79.5718H93.8668C92.6578 79.5718 91.6777 78.4551 91.6777 77.0776V70.6568C91.6777 69.2793 92.6578 68.1626 93.8668 68.1626Z" fill="#F08A61"/>
<path d="M80.2574 82.3867H85.8929C87.1019 82.3867 88.082 83.5034 88.082 84.8809V91.3017C88.082 92.6792 87.1019 93.7959 85.8929 93.7959H80.2574C79.0484 93.7959 78.0683 92.6792 78.0683 91.3017V84.8809C78.0683 83.5034 79.0484 82.3867 80.2574 82.3867Z" fill="#F08A61"/>
<path d="M121.089 82.3867H126.725C127.934 82.3867 128.914 83.5034 128.914 84.8809V91.3017C128.914 92.6792 127.934 93.7959 126.725 93.7959H121.089C119.88 93.7959 118.9 92.6792 118.9 91.3017V84.8809C118.9 83.5034 119.88 82.3867 121.089 82.3867Z" fill="#F08A61"/>
<path d="M107.48 82.3867H113.116C114.325 82.3867 115.305 83.5034 115.305 84.8809V91.3017C115.305 92.6792 114.325 93.7959 113.116 93.7959H107.48C106.271 93.7959 105.291 92.6792 105.291 91.3017V84.8809C105.291 83.5034 106.271 82.3867 107.48 82.3867Z" fill="#F08A61"/>
<path d="M93.8668 82.3867H99.5023C100.711 82.3867 101.691 83.5034 101.691 84.8809V91.3017C101.691 92.6792 100.711 93.7959 99.5023 93.7959H93.8668C92.6578 93.7959 91.6777 92.6792 91.6777 91.3017V84.8809C91.6777 83.5034 92.6578 82.3867 93.8668 82.3867Z" fill="#F08A61"/>
</g>
<path d="M31.2844 11.6181V15.6742H134.879V11.6181C134.879 10.7871 134.736 9.96419 134.457 9.19639C134.178 8.42859 133.769 7.73092 133.253 7.14324C132.737 6.55556 132.125 6.08938 131.451 5.77132C130.778 5.45326 130.055 5.28955 129.326 5.28955H36.8371C35.3642 5.28987 33.9518 5.95679 32.9104 7.1436C31.8691 8.33042 31.2842 9.93993 31.2844 11.6181Z" fill="#292A2E"/>
<path d="M116.066 5.09158C116.066 4.08461 115.804 3.10024 115.313 2.26295C114.822 1.42566 114.125 0.773051 113.308 0.387655C112.492 0.00225888 111.593 -0.0986188 110.726 0.0977784C109.859 0.294176 109.063 0.779027 108.438 1.49102C107.813 2.20301 107.388 3.11017 107.215 4.09778C107.043 5.08539 107.131 6.1091 107.469 7.03944C107.807 7.96979 108.38 8.76499 109.115 9.32449C109.85 9.884 110.714 10.1827 111.597 10.1828C111.698 10.1828 111.794 10.1374 111.864 10.0568C111.935 9.97614 111.975 9.86675 111.975 9.7527C111.975 9.63864 111.935 9.52925 111.864 9.4486C111.794 9.36795 111.698 9.32264 111.597 9.32264C110.863 9.32264 110.145 9.07448 109.534 8.60953C108.923 8.14458 108.447 7.48374 108.166 6.71057C107.885 5.93739 107.812 5.08662 107.955 4.26583C108.098 3.44504 108.452 2.6911 108.971 2.09935C109.491 1.50761 110.153 1.10463 110.873 0.941392C111.593 0.77815 112.34 0.861972 113.019 1.18226C113.697 1.50254 114.277 2.0449 114.685 2.74076C115.093 3.43661 115.311 4.2547 115.311 5.09158" fill="#E5E5E5"/>
<path d="M93.2539 5.09158C93.2539 4.08459 92.9919 3.1002 92.5009 2.26291C92.0099 1.42561 91.312 0.773002 90.4955 0.387617C89.6789 0.00223256 88.7804 -0.098622 87.9136 0.0978074C87.0467 0.294237 86.2505 0.779128 85.6255 1.49116C85.0006 2.2032 84.5749 3.11039 84.4025 4.09803C84.2301 5.08566 84.3186 6.10938 84.6568 7.03972C84.995 7.97006 85.5677 8.76523 86.3026 9.32469C87.0375 9.88414 87.9014 10.1828 88.7853 10.1828C88.8854 10.1828 88.9814 10.1374 89.0522 10.0568C89.123 9.97614 89.1627 9.86675 89.1627 9.7527C89.1627 9.63864 89.123 9.52925 89.0522 9.4486C88.9814 9.36795 88.8854 9.32264 88.7853 9.32264C88.0507 9.32284 87.3326 9.07484 86.7218 8.61001C86.1109 8.14519 85.6348 7.48441 85.3536 6.71125C85.0724 5.9381 84.9987 5.08729 85.1419 4.26643C85.2851 3.44558 85.6388 2.69155 86.1582 2.0997C86.6775 1.50786 87.3392 1.10479 88.0597 0.941465C88.7801 0.778142 89.5269 0.861906 90.2055 1.18216C90.8841 1.50242 91.4642 2.04478 91.8723 2.74065C92.2804 3.43653 92.4982 4.25466 92.4981 5.09158" fill="#E5E5E5"/>
<path d="M70.4414 5.09158C70.4414 4.08459 70.1794 3.1002 69.6884 2.26291C69.1974 1.42561 68.4995 0.773002 67.683 0.387617C66.8664 0.00223256 65.9679 -0.098622 65.1011 0.0978074C64.2342 0.294237 63.438 0.779128 62.813 1.49116C62.1881 2.2032 61.7624 3.11039 61.59 4.09803C61.4176 5.08566 61.5061 6.10938 61.8443 7.03972C62.1825 7.97006 62.7552 8.76523 63.4901 9.32469C64.225 9.88414 65.089 10.1828 65.9728 10.1828C66.0729 10.1828 66.1689 10.1374 66.2397 10.0568C66.3105 9.97614 66.3502 9.86675 66.3502 9.7527C66.3502 9.63864 66.3105 9.52925 66.2397 9.4486C66.1689 9.36795 66.0729 9.32264 65.9728 9.32264C65.2383 9.32248 64.5203 9.07419 63.9097 8.60915C63.2991 8.1441 62.8232 7.4832 62.5422 6.71002C62.2612 5.93683 62.1878 5.08608 62.3312 4.26534C62.4746 3.4446 62.8284 2.69074 63.3478 2.09907C63.8672 1.50741 64.5289 1.10451 65.2493 0.941334C65.9697 0.778157 66.7164 0.862024 67.3949 1.18233C68.0735 1.50264 68.6534 2.045 69.0615 2.74084C69.4695 3.43668 69.6872 4.25474 69.6872 5.09158" fill="#E5E5E5"/>
<path d="M59.0352 5.09158C59.0352 4.08459 58.7731 3.1002 58.2821 2.26291C57.7911 1.42561 57.0932 0.773002 56.2767 0.387617C55.4602 0.00223256 54.5617 -0.098622 53.6948 0.0978074C52.828 0.294237 52.0317 0.779128 51.4068 1.49116C50.7818 2.2032 50.3562 3.11039 50.1838 4.09803C50.0113 5.08566 50.0998 6.10938 50.438 7.03972C50.7762 7.97006 51.349 8.76523 52.0839 9.32469C52.8187 9.88414 53.6827 10.1828 54.5665 10.1828C54.6666 10.1828 54.7626 10.1374 54.8334 10.0568C54.9042 9.97614 54.944 9.86675 54.944 9.7527C54.944 9.63864 54.9042 9.52925 54.8334 9.4486C54.7626 9.36795 54.6666 9.32264 54.5665 9.32264C53.832 9.32264 53.114 9.07448 52.5033 8.60953C51.8925 8.14458 51.4165 7.48374 51.1355 6.71057C50.8544 5.93739 50.7808 5.08662 50.9242 4.26583C51.0675 3.44504 51.4212 2.6911 51.9406 2.09935C52.46 1.50761 53.1217 1.10463 53.8421 0.941392C54.5625 0.77815 55.3092 0.861972 55.9878 1.18226C56.6664 1.50254 57.2464 2.0449 57.6545 2.74076C58.0625 3.43661 58.2803 4.2547 58.2802 5.09158" fill="#E5E5E5"/>
<path d="M127.473 5.09158C127.473 4.08459 127.211 3.1002 126.72 2.26291C126.229 1.42561 125.531 0.773002 124.714 0.387617C123.898 0.00223256 122.999 -0.098622 122.132 0.0978074C121.265 0.294237 120.469 0.779128 119.844 1.49116C119.219 2.2032 118.794 3.11039 118.621 4.09803C118.449 5.08566 118.537 6.10938 118.876 7.03972C119.214 7.97006 119.786 8.76523 120.521 9.32469C121.256 9.88414 122.12 10.1828 123.004 10.1828C123.104 10.1828 123.2 10.1374 123.271 10.0568C123.342 9.97614 123.381 9.86675 123.381 9.7527C123.381 9.63864 123.342 9.52925 123.271 9.4486C123.2 9.36795 123.104 9.32264 123.004 9.32264C122.27 9.32264 121.551 9.07448 120.941 8.60953C120.33 8.14458 119.854 7.48374 119.573 6.71057C119.292 5.93739 119.218 5.08662 119.362 4.26583C119.505 3.44504 119.859 2.6911 120.378 2.09935C120.897 1.50761 121.559 1.10463 122.28 0.941392C123 0.77815 123.747 0.861972 124.425 1.18226C125.104 1.50254 125.684 2.0449 126.092 2.74076C126.5 3.43661 126.718 4.2547 126.718 5.09158" fill="#E5E5E5"/>
<path d="M104.66 5.09158C104.66 4.08459 104.398 3.1002 103.907 2.26291C103.416 1.42561 102.718 0.773002 101.902 0.387617C101.085 0.00223256 100.187 -0.098622 99.3198 0.0978074C98.453 0.294237 97.6567 0.779128 97.0318 1.49116C96.4068 2.2032 95.9812 3.11039 95.8088 4.09803C95.6363 5.08566 95.7248 6.10938 96.063 7.03972C96.4012 7.97006 96.974 8.76523 97.7089 9.32469C98.4437 9.88414 99.3077 10.1828 100.192 10.1828C100.292 10.1828 100.388 10.1374 100.458 10.0568C100.529 9.97614 100.569 9.86675 100.569 9.7527C100.569 9.63864 100.529 9.52925 100.458 9.4486C100.388 9.36795 100.292 9.32264 100.192 9.32264C99.457 9.32264 98.739 9.07448 98.1283 8.60953C97.5175 8.14458 97.0415 7.48374 96.7605 6.71057C96.4794 5.93739 96.4059 5.08662 96.5492 4.26583C96.6925 3.44504 97.0462 2.6911 97.5656 2.09935C98.085 1.50761 98.7467 1.10463 99.4671 0.941392C100.188 0.77815 100.934 0.861972 101.613 1.18226C102.291 1.50254 102.871 2.0449 103.279 2.74076C103.688 3.43661 103.905 4.2547 103.905 5.09158" fill="#E5E5E5"/>
<path d="M81.8477 5.09158C81.8477 4.08458 81.5856 3.10019 81.0946 2.26288C80.6036 1.42558 79.9057 0.772977 79.0892 0.387598C78.2726 0.00221938 77.3741 -0.0986235 76.5073 0.097822C75.6404 0.294267 74.8442 0.779178 74.2192 1.49123C73.5943 2.20329 73.1687 3.1105 72.9962 4.09815C72.8238 5.0858 72.9123 6.10952 73.2506 7.03985C73.5888 7.97019 74.1616 8.76535 74.8965 9.32478C75.6314 9.88422 76.4954 10.1828 77.3792 10.1828C77.4793 10.1828 77.5753 10.1374 77.6461 10.0568C77.7169 9.97614 77.7566 9.86675 77.7566 9.7527C77.7566 9.63864 77.7169 9.52925 77.6461 9.4486C77.5753 9.36795 77.4793 9.32264 77.3792 9.32264C76.6447 9.32264 75.9267 9.07448 75.3159 8.60953C74.7052 8.14458 74.2292 7.48374 73.9481 6.71057C73.6671 5.93739 73.5935 5.08662 73.7368 4.26583C73.8801 3.44504 74.2339 2.6911 74.7533 2.09935C75.2726 1.50761 75.9344 1.10463 76.6548 0.941392C77.3752 0.77815 78.1219 0.861972 78.8005 1.18226C79.4791 1.50254 80.0591 2.0449 80.4671 2.74076C80.8752 3.43661 81.093 4.2547 81.0929 5.09158" fill="#E5E5E5"/>
<path d="M47.6289 5.09158C47.6289 4.08458 47.3669 3.10019 46.8759 2.26288C46.3849 1.42558 45.687 0.772977 44.8704 0.387598C44.0539 0.00221938 43.1554 -0.0986235 42.2885 0.097822C41.4217 0.294267 40.6254 0.779178 40.0005 1.49123C39.3755 2.20329 38.9499 3.1105 38.7775 4.09815C38.6051 5.0858 38.6936 6.10952 39.0318 7.03985C39.3701 7.97019 39.9428 8.76535 40.6777 9.32478C41.4126 9.88422 42.2766 10.1828 43.1604 10.1828C43.2605 10.1828 43.3566 10.1374 43.4273 10.0568C43.4981 9.97614 43.5379 9.86675 43.5379 9.7527C43.5379 9.63864 43.4981 9.52925 43.4273 9.4486C43.3566 9.36795 43.2605 9.32264 43.1604 9.32264C42.4259 9.32268 41.7079 9.07455 41.0971 8.60963C40.4864 8.14471 40.0104 7.48387 39.7293 6.7107C39.4482 5.93753 39.3746 5.08675 39.5179 4.26595C39.6612 3.44514 40.0149 2.69119 40.5343 2.09942C41.0537 1.50766 41.7154 1.10466 42.4358 0.941407C43.1562 0.778149 43.9029 0.861958 44.5815 1.18224C45.2601 1.50252 45.8401 2.04488 46.2482 2.74074C46.6562 3.4366 46.874 4.25469 46.874 5.09158" fill="#E5E5E5"/>
<path d="M112.255 77.0047C112.271 77.0047 112.287 77.0047 112.303 77.0022C112.376 76.9946 112.447 76.9698 112.511 76.9293C112.576 76.8888 112.632 76.8336 112.676 76.7671L114.271 74.3765C114.313 74.3136 114.344 74.2419 114.362 74.1654C114.379 74.0889 114.383 74.0093 114.374 73.9309C114.365 73.8526 114.342 73.7771 114.307 73.7088C114.272 73.6405 114.226 73.5808 114.17 73.5329C114.115 73.4851 114.052 73.4501 113.985 73.43C113.918 73.4099 113.848 73.405 113.779 73.4157C113.71 73.4263 113.644 73.4523 113.584 73.4922C113.524 73.532 113.472 73.5849 113.43 73.6479L112.185 75.5142L107.406 70.5446C107.302 70.4369 107.166 70.3806 107.026 70.3878C106.886 70.3951 106.754 70.4655 106.659 70.5834C106.565 70.7013 106.515 70.8572 106.522 71.0167C106.528 71.1762 106.59 71.3262 106.693 71.4339L111.899 76.8475C111.997 76.9487 112.124 77.0047 112.255 77.0047Z" fill="#F08A61"/>
<path d="M93.9955 83.6494H99.3781C100.045 83.6494 100.586 84.2655 100.586 85.0256V91.1583C100.586 91.9183 100.045 92.5345 99.3781 92.5345H93.9955C93.3284 92.5345 92.7877 91.9183 92.7877 91.1583V85.0256C92.7877 84.2655 93.3284 83.6494 93.9955 83.6494Z" fill="#F08A61"/>
<path d="M58.9445 32.3224C59.0481 32.3223 59.1494 32.2876 59.2358 32.2224C59.3221 32.1573 59.3898 32.0647 59.4304 31.9562C59.471 31.8476 59.4827 31.7278 59.464 31.6118C59.4454 31.4957 59.3972 31.3884 59.3255 31.3033L53.1849 24.0219C53.1372 23.9635 53.0797 23.9164 53.0159 23.8835C52.952 23.8506 52.883 23.8325 52.813 23.8303C52.7429 23.8281 52.6732 23.8417 52.6078 23.8705C52.5425 23.8993 52.4828 23.9426 52.4322 23.9979C52.3817 24.0532 52.3413 24.1194 52.3134 24.1927C52.2856 24.2659 52.2708 24.3448 52.2699 24.4246C52.269 24.5045 52.2821 24.5837 52.3084 24.6577C52.3346 24.7318 52.3736 24.7991 52.4229 24.8558L58.5634 32.1374C58.6127 32.196 58.6718 32.2426 58.7373 32.2744C58.8028 32.3062 58.8733 32.3225 58.9445 32.3224Z" fill="#0A0A0A"/>
<path d="M52.6804 32.1799C52.8169 32.18 52.9481 32.1198 53.0463 32.0119L59.4371 25.0153C59.4884 24.9609 59.5297 24.8954 59.5586 24.8226C59.5874 24.7499 59.6033 24.6713 59.6053 24.5915C59.6072 24.5117 59.5952 24.4322 59.57 24.3577C59.5447 24.2833 59.5067 24.2152 59.4582 24.1577C59.4096 24.1001 59.3515 24.0541 59.2872 24.0223C59.2229 23.9906 59.1537 23.9737 59.0836 23.9727C59.0136 23.9717 58.944 23.9866 58.879 24.0165C58.8141 24.0465 58.755 24.0908 58.7052 24.147L52.3144 31.1437C52.2385 31.2269 52.1861 31.3341 52.164 31.4515C52.1419 31.5689 52.1512 31.6911 52.1905 31.8025C52.2298 31.9139 52.2975 32.0093 52.3848 32.0766C52.4721 32.1438 52.575 32.1798 52.6804 32.1799Z" fill="#0A0A0A"/>
</g>
<defs>
<clipPath id="clip0_1544_76070">
<rect width="186" height="124" fill="white" transform="matrix(-1 0 0 1 161 0)"/>
</clipPath>
</defs>
</svg>
