<svg width="72" height="26" viewBox="0 0 72 26" fill="none" xmlns="http://www.w3.org/2000/svg">
<rect x="0.613281" width="71.3882" height="26" rx="4" fill="#FCE7D8"/>
<path d="M16.7006 15.1531L14.9766 16.5015L18.2782 20.7286L20.0022 19.3803L16.7006 15.1531Z" fill="#F08A61"/>
<path d="M17.3874 21.4272L14.0855 17.1977C11.0878 16.3623 8.98408 13.6699 8.89736 10.5572L5.59549 6.33008C5.59549 6.33008 2.46705 10.8147 7.37674 17.0973C12.2864 23.3799 17.3874 21.4272 17.3874 21.4272Z" fill="#F08A61"/>
<path d="M8.2084 4.28546L6.48438 5.63379L9.78603 9.86094L11.51 8.51261L8.2084 4.28546Z" fill="#F08A61"/>
<path d="M30.069 17.12C29.445 17.12 28.933 17.028 28.533 16.844C28.141 16.66 27.833 16.388 27.609 16.028C27.385 15.668 27.229 15.224 27.141 14.696C27.061 14.168 27.021 13.56 27.021 12.872C27.021 12.168 27.061 11.548 27.141 11.012C27.229 10.476 27.385 10.028 27.609 9.668C27.833 9.308 28.141 9.036 28.533 8.852C28.933 8.668 29.445 8.576 30.069 8.576C30.357 8.576 30.641 8.592 30.921 8.624C31.209 8.648 31.477 8.684 31.725 8.732C31.973 8.772 32.185 8.812 32.361 8.852L32.325 9.656C32.149 9.624 31.933 9.592 31.677 9.56C31.421 9.528 31.161 9.5 30.897 9.476C30.633 9.452 30.393 9.44 30.177 9.44C29.721 9.44 29.349 9.508 29.061 9.644C28.781 9.78 28.565 9.992 28.413 10.28C28.261 10.56 28.157 10.916 28.101 11.348C28.045 11.772 28.017 12.28 28.017 12.872C28.017 13.448 28.045 13.952 28.101 14.384C28.157 14.808 28.257 15.16 28.401 15.44C28.553 15.712 28.773 15.916 29.061 16.052C29.349 16.188 29.725 16.256 30.189 16.256C30.525 16.256 30.893 16.236 31.293 16.196C31.701 16.148 32.045 16.1 32.325 16.052L32.361 16.868C32.169 16.908 31.945 16.948 31.689 16.988C31.433 17.028 31.165 17.06 30.885 17.084C30.605 17.108 30.333 17.12 30.069 17.12ZM34.8243 17.12C34.2723 17.12 33.8523 16.964 33.5643 16.652C33.2763 16.34 33.1323 15.884 33.1323 15.284C33.1323 14.892 33.2003 14.572 33.3363 14.324C33.4723 14.076 33.6763 13.888 33.9483 13.76C34.2283 13.624 34.5723 13.54 34.9803 13.508L36.8283 13.328V12.812C36.8283 12.404 36.7363 12.116 36.5523 11.948C36.3763 11.78 36.1123 11.696 35.7603 11.696C35.5603 11.696 35.3203 11.704 35.0403 11.72C34.7683 11.736 34.4963 11.756 34.2243 11.78C33.9523 11.804 33.7123 11.828 33.5043 11.852L33.4563 11.144C33.6483 11.104 33.8803 11.064 34.1523 11.024C34.4243 10.984 34.7083 10.952 35.0043 10.928C35.3003 10.896 35.5723 10.88 35.8203 10.88C36.2763 10.88 36.6483 10.952 36.9363 11.096C37.2243 11.232 37.4323 11.444 37.5603 11.732C37.6963 12.012 37.7643 12.372 37.7643 12.812V15.848C37.7803 16.024 37.8483 16.152 37.9683 16.232C38.0963 16.312 38.2563 16.364 38.4483 16.388L38.4123 17.12C38.2363 17.12 38.0763 17.108 37.9323 17.084C37.7883 17.068 37.6523 17.04 37.5243 17C37.4203 16.96 37.3203 16.912 37.2243 16.856C37.1363 16.8 37.0483 16.732 36.9603 16.652C36.8083 16.716 36.6123 16.784 36.3723 16.856C36.1403 16.928 35.8883 16.988 35.6163 17.036C35.3523 17.092 35.0883 17.12 34.8243 17.12ZM34.9803 16.34C35.1963 16.34 35.4203 16.32 35.6523 16.28C35.8843 16.24 36.1043 16.192 36.3123 16.136C36.5203 16.08 36.6923 16.028 36.8283 15.98V14.024L35.0883 14.192C34.7283 14.224 34.4683 14.328 34.3083 14.504C34.1563 14.68 34.0803 14.932 34.0803 15.26C34.0803 15.596 34.1563 15.86 34.3083 16.052C34.4603 16.244 34.6843 16.34 34.9803 16.34ZM39.4118 17V8.396H40.3358V17H39.4118ZM42.0126 17V8.396H42.9366V17H42.0126ZM46.9781 17V11H47.9021V11.42C48.0381 11.34 48.2061 11.26 48.4061 11.18C48.6141 11.1 48.8341 11.032 49.0661 10.976C49.2981 10.912 49.5221 10.88 49.7381 10.88C50.2901 10.88 50.7101 10.98 50.9981 11.18C51.2941 11.372 51.4981 11.684 51.6101 12.116C51.7221 12.548 51.7781 13.116 51.7781 13.82V17H50.8421V13.856C50.8421 13.336 50.8101 12.92 50.7461 12.608C50.6901 12.296 50.5701 12.072 50.3861 11.936C50.2101 11.792 49.9381 11.72 49.5701 11.72C49.3701 11.72 49.1621 11.744 48.9461 11.792C48.7381 11.832 48.5421 11.888 48.3581 11.96C48.1741 12.024 48.0221 12.088 47.9021 12.152V17H46.9781ZM55.5391 17.12C54.8671 17.12 54.3431 17.004 53.9671 16.772C53.5991 16.54 53.3391 16.188 53.1871 15.716C53.0431 15.244 52.9711 14.648 52.9711 13.928C52.9711 13.24 53.0511 12.672 53.2111 12.224C53.3791 11.776 53.6511 11.44 54.0271 11.216C54.4031 10.992 54.9071 10.88 55.5391 10.88C56.1791 10.88 56.6871 10.992 57.0631 11.216C57.4391 11.44 57.7071 11.776 57.8671 12.224C58.0351 12.672 58.1191 13.24 58.1191 13.928C58.1191 14.648 58.0431 15.244 57.8911 15.716C57.7471 16.188 57.4871 16.54 57.1111 16.772C56.7431 17.004 56.2191 17.12 55.5391 17.12ZM55.5391 16.316C56.0031 16.316 56.3511 16.236 56.5831 16.076C56.8151 15.908 56.9671 15.648 57.0391 15.296C57.1191 14.944 57.1591 14.488 57.1591 13.928C57.1591 13.376 57.1111 12.936 57.0151 12.608C56.9191 12.28 56.7551 12.044 56.5231 11.9C56.2911 11.756 55.9631 11.684 55.5391 11.684C55.1231 11.684 54.7951 11.756 54.5551 11.9C54.3231 12.044 54.1591 12.28 54.0631 12.608C53.9671 12.936 53.9191 13.376 53.9191 13.928C53.9191 14.488 53.9551 14.944 54.0271 15.296C54.1071 15.648 54.2631 15.908 54.4951 16.076C54.7271 16.236 55.0751 16.316 55.5391 16.316ZM60.3107 17L58.8947 11H59.8307L61.0067 16.196H61.2107L62.6147 11.12H63.5867L64.9907 16.196H65.1947L66.3707 11H67.3067L65.8907 17H64.3427L63.0947 12.356L61.8587 17H60.3107Z" fill="#F08A61"/>
</svg>
