<svg width="26" height="14" viewBox="0 0 26 14" fill="none" xmlns="http://www.w3.org/2000/svg">
<path d="M19.3299 7.88184C20.7515 7.88184 21.9023 9.03351 21.9023 10.455C21.9023 11.8766 20.7507 13.0283 19.3299 13.0283C17.91 13.0283 16.7575 11.8766 16.7575 10.455C16.7575 9.03351 17.91 7.88184 19.3299 7.88184ZM19.3299 11.2325C19.7572 11.2325 20.1074 10.8839 20.1074 10.4558C20.1074 10.0278 19.7572 9.67923 19.3299 9.67923C18.9035 9.67923 18.5541 10.0278 18.5541 10.4558C18.5541 10.8839 18.9027 11.2325 19.3299 11.2325Z" fill="#6D6D6D"/>
<path d="M0.597212 8.34673L1.01805 4.92382C1.10077 4.26687 1.675 3.78499 2.33758 3.82113L3.25957 3.87253L6.1219 1.2937C6.39817 1.04554 6.75396 0.909007 7.125 0.909007L12.9404 0.908203C14.2455 0.908203 15.5112 1.35394 16.5288 2.17152L19.7734 4.77846L24.1368 5.8691C24.6973 6.00884 25.0909 6.5132 25.0909 7.09065V8.34834C25.2756 8.34754 25.4258 8.49692 25.4258 8.68164V10.3449C25.4258 10.5818 25.2338 10.7738 24.9969 10.7738H22.5337C22.5442 10.667 22.5659 10.565 22.5659 10.4557C22.5659 8.66718 21.117 7.21995 19.3293 7.21995C17.5415 7.21995 16.0935 8.66718 16.0935 10.4557C16.0935 10.5658 16.116 10.6678 16.1264 10.7738H9.30548C9.31512 10.667 9.3368 10.565 9.3368 10.4557C9.3368 8.66718 7.88797 7.21995 6.10102 7.21995C4.31246 7.21995 2.86604 8.66718 2.86604 10.4557C2.86604 10.5658 2.88692 10.6678 2.89816 10.7738H0.600424C0.363503 10.7738 0.172359 10.5818 0.172359 10.3449V8.77641C0.168343 8.54029 0.360289 8.34673 0.597212 8.34673ZM9.22838 4.14078L17.3415 4.55117L15.7883 3.30231C14.9442 2.62368 13.8953 2.25424 12.8119 2.25424H9.22838V4.14078ZM7.88074 4.07251V2.25504H7.35309C7.16998 2.25504 6.99409 2.3225 6.85836 2.44538L5.20232 3.93598L7.88074 4.07251Z" fill="#6D6D6D"/>
<path d="M6.09947 7.88184C7.521 7.88184 8.67188 9.03351 8.67188 10.455C8.67188 11.8766 7.5202 13.0283 6.09947 13.0283C4.67874 13.0283 3.52706 11.8766 3.52706 10.455C3.52706 9.03351 4.67874 7.88184 6.09947 7.88184ZM6.09947 11.2325C6.52754 11.2325 6.87609 10.8839 6.87609 10.4558C6.87609 10.0278 6.52754 9.67923 6.09947 9.67923C5.67301 9.67923 5.32285 10.0278 5.32285 10.4558C5.32285 10.8839 5.67221 11.2325 6.09947 11.2325Z" fill="#6D6D6D"/>
</svg>
