<svg width="16" height="16" viewBox="0 0 16 16" fill="none" xmlns="http://www.w3.org/2000/svg">
<path d="M7.9925 0.5C3.8525 0.5 0.5 3.86 0.5 8C0.5 12.14 3.8525 15.5 7.9925 15.5C12.14 15.5 15.5 12.14 15.5 8C15.5 3.86 12.14 0.5 7.9925 0.5ZM8 14C4.685 14 2 11.315 2 8C2 4.685 4.685 2 8 2C11.315 2 14 4.685 14 8C14 11.315 11.315 14 8 14ZM7.835 4.25H7.79C7.49 4.25 7.25 4.49 7.25 4.79V8.33C7.25 8.5925 7.385 8.84 7.6175 8.975L10.73 10.8425C10.985 10.9925 11.315 10.9175 11.465 10.6625C11.5027 10.6018 11.5277 10.5341 11.5387 10.4635C11.5496 10.3929 11.5462 10.3208 11.5288 10.2515C11.5113 10.1822 11.48 10.1171 11.4368 10.0602C11.3937 10.0032 11.3395 9.95557 11.2775 9.92L8.375 8.195V4.79C8.375 4.49 8.135 4.25 7.835 4.25Z" fill="#505AC9"/>
</svg>
