<svg width="28" height="18" viewBox="0 0 28 18" fill="none" xmlns="http://www.w3.org/2000/svg">
<path d="M26.5844 0.234375H1.41555C0.633782 0.234375 0 0.851515 0 1.61276V3.18183H28V1.61276C28 0.851515 27.3662 0.234375 26.5844 0.234375Z" fill="#939393"/>
<path d="M0 16.3859C0 17.1472 0.633782 17.7643 1.41555 17.7643H26.5844C27.3662 17.7643 27.9999 17.1472 27.9999 16.3859V7.21289H0V16.3859ZM12.0311 14.6871H10.2526C9.74451 14.6871 9.33262 14.286 9.33262 13.7913C9.33262 13.2966 9.74451 12.8955 10.2526 12.8955H12.0311C12.5392 12.8955 12.9511 13.2966 12.9511 13.7913C12.9511 14.286 12.5392 14.6871 12.0311 14.6871ZM21.3714 12.8955H24.2539C24.762 12.8955 25.1739 13.2966 25.1739 13.7913C25.1739 14.286 24.762 14.6871 24.2539 14.6871H21.3714C20.8634 14.6871 20.4515 14.286 20.4515 13.7913C20.4515 13.2966 20.8634 12.8955 21.3714 12.8955ZM18.5934 13.7913C18.5934 14.286 18.1815 14.6871 17.6735 14.6871H15.8949C15.3868 14.6871 14.975 14.286 14.975 13.7913C14.975 13.2966 15.3868 12.8955 15.8949 12.8955H17.6735C18.1815 12.8955 18.5934 13.2966 18.5934 13.7913ZM3.61073 9.49148H17.3486C17.8567 9.49148 18.2686 9.89256 18.2686 10.3873C18.2686 10.882 17.8567 11.2831 17.3486 11.2831H3.61073C3.10267 11.2831 2.69078 10.882 2.69078 10.3873C2.69078 9.89256 3.10267 9.49148 3.61073 9.49148ZM3.61073 12.8955H6.49323C7.00129 12.8955 7.41318 13.2966 7.41318 13.7913C7.41318 14.286 7.00135 14.6871 6.49323 14.6871H3.61073C3.10267 14.6871 2.69078 14.286 2.69078 13.7913C2.69078 13.2966 3.10267 12.8955 3.61073 12.8955Z" fill="#939393"/>
</svg>
