<svg width="16" height="16" viewBox="0 0 16 16" fill="none" xmlns="http://www.w3.org/2000/svg">
<path d="M2.34896 15.9733H12.349C12.9688 15.9715 13.5625 15.724 14 15.2849C14.4374 14.8458 14.6828 14.2511 14.6823 13.6313V8.60664C14.6823 8.42983 14.6121 8.26026 14.487 8.13524C14.362 8.01021 14.1924 7.93997 14.0156 7.93997C13.8388 7.93997 13.6692 8.01021 13.5442 8.13524C13.4192 8.26026 13.349 8.42983 13.349 8.60664V13.6313C13.3498 13.8976 13.2451 14.1534 13.0576 14.3425C12.8701 14.5316 12.6152 14.6386 12.349 14.64H2.34896C2.08267 14.6386 1.82783 14.5316 1.64035 14.3425C1.45287 14.1534 1.34807 13.8976 1.34896 13.6313V3.64864C1.34807 3.38235 1.45287 3.12659 1.64035 2.93749C1.82783 2.74838 2.08267 2.64139 2.34896 2.63997H7.34896C7.52577 2.63997 7.69534 2.56974 7.82036 2.44471C7.94539 2.31969 8.01563 2.15012 8.01563 1.97331C8.01563 1.7965 7.94539 1.62693 7.82036 1.5019C7.69534 1.37688 7.52577 1.30664 7.34896 1.30664H2.34896C1.72916 1.30841 1.13538 1.55599 0.697931 1.99507C0.260479 2.43415 0.0150936 3.02884 0.0156259 3.64864V13.6313C0.0150936 14.2511 0.260479 14.8458 0.697931 15.2849C1.13538 15.724 1.72916 15.9715 2.34896 15.9733Z" fill="#505AC9"/>
<path d="M6.31895 7.00238L5.79295 9.41171C5.76914 9.521 5.77321 9.63451 5.80478 9.74181C5.83635 9.84911 5.89441 9.94674 5.97362 10.0257C6.05391 10.1027 6.15158 10.1592 6.25834 10.1904C6.36511 10.2216 6.47783 10.2266 6.58695 10.205L8.99095 9.67771C9.11578 9.6503 9.23009 9.58759 9.32028 9.49704L15.3963 3.42105C15.582 3.23532 15.7294 3.01483 15.8299 2.77216C15.9304 2.52948 15.9822 2.26938 15.9822 2.00671C15.9822 1.74404 15.9304 1.48394 15.8299 1.24127C15.7294 0.998594 15.582 0.7781 15.3963 0.592379C15.0155 0.22847 14.509 0.0253906 13.9823 0.0253906C13.4556 0.0253906 12.9491 0.22847 12.5683 0.592379L6.50162 6.67438C6.41056 6.76396 6.34716 6.8778 6.31895 7.00238ZM13.5109 1.53571C13.6378 1.41421 13.8066 1.34637 13.9823 1.34637C14.1579 1.34637 14.3268 1.41421 14.4536 1.53571C14.5769 1.66146 14.646 1.83057 14.646 2.00671C14.646 2.18285 14.5769 2.35196 14.4536 2.47771L13.9823 2.94905L13.0396 2.00638L13.5109 1.53571ZM7.57762 7.47838L12.0936 2.95105L13.0269 3.88905L8.50895 8.41771L7.31228 8.68038L7.57762 7.47838Z" fill="#505AC9"/>
</svg>
