<svg width="21" height="22" viewBox="0 0 21 22" fill="none" xmlns="http://www.w3.org/2000/svg">
<rect y="0.166748" width="21" height="21" rx="10.5" fill="#249F58"/>
<path fill-rule="evenodd" clip-rule="evenodd" d="M16.0001 14.1669V12.7669H5.0001L7.0001 14.1669H13.0001C13.0001 14.9397 13.6721 15.5669 14.5001 15.5669C15.3281 15.5669 16.0001 14.9397 16.0001 14.1669ZM8.7301 5.63525C8.7181 5.63525 8.7001 5.64365 8.6771 5.66325C8.62311 5.71365 8.5171 5.86905 8.5131 6.04825C8.5101 6.15045 8.49611 6.15045 8.54311 6.21625C8.57711 6.28345 8.6131 6.27785 8.6811 6.22605C8.7211 6.18405 8.73411 6.16025 8.74811 6.09165C8.7641 5.97965 8.6611 6.14765 8.6481 6.01885C8.6251 5.90125 8.69111 5.85085 8.75311 5.73885C8.75511 5.68285 8.7551 5.64085 8.7301 5.63805V5.63525ZM9.7331 5.64225C9.7131 5.64785 9.6901 5.68425 9.6571 5.76545C9.6341 5.85225 9.53311 5.98385 9.60711 6.25545C9.66511 6.42765 9.6901 6.70625 9.66311 7.01845C9.62111 7.10665 9.6131 7.13745 9.5581 7.22565C9.4821 7.34185 9.39811 7.31245 9.33611 7.26765C9.27611 7.21165 9.2301 7.18365 9.2031 7.00725C9.20811 6.72725 9.2201 6.26245 9.1831 6.16445C9.1291 6.01325 9.03911 6.06645 9.00111 6.11265C8.81811 6.35065 8.7271 6.74685 8.6711 7.06465C8.6211 7.29425 8.5661 7.22705 8.5281 7.13465C8.4351 7.01145 8.4281 6.05665 8.3161 6.21485C8.1361 6.93445 8.41911 7.72265 8.61611 7.64565C8.7561 7.72965 8.84611 7.35165 8.90411 6.93865C8.94411 6.82245 8.97411 6.80845 8.99411 6.86865C8.98911 7.41745 9.0241 7.54065 9.1241 7.70585C9.3481 7.94945 9.5341 7.73665 9.5491 7.71705L9.7241 7.47345C9.7641 7.41745 9.81411 7.41185 9.86911 7.46225C9.92311 7.53225 9.91611 7.64845 10.0291 7.72825C10.1271 7.78425 10.3321 7.74225 10.3791 7.62605C10.4441 7.47205 10.4591 7.41885 10.4891 7.36005C10.5351 7.27605 10.6141 7.31385 10.6141 7.34045C10.6071 7.38945 10.5611 7.43845 10.5921 7.52245C10.6471 7.57845 10.6601 7.54205 10.6921 7.52945C10.8061 7.45385 10.8921 7.10665 10.8921 7.10665C10.8971 6.97785 10.8451 6.98765 10.8121 7.01425C10.7671 7.05205 10.7651 7.06465 10.7221 7.10245C10.6651 7.11365 10.5571 7.16545 10.5041 7.04925C10.4491 6.90925 10.4491 6.71605 10.4071 6.57325C10.4071 6.56485 10.3341 6.35345 10.4011 6.34085C10.4341 6.34925 10.5081 6.37585 10.5191 6.29045C10.5551 6.20645 10.4421 5.96845 10.3651 5.85085C10.2991 5.74865 10.2071 5.73605 10.1181 5.83965C10.0551 5.92085 10.0651 6.01045 10.0521 6.09585C10.0371 6.19385 10.0401 6.31565 10.1121 6.44585C10.1741 6.61665 10.2871 6.83785 10.2491 7.14865C10.2491 7.14865 10.1841 7.29705 10.0691 7.27745C10.0191 7.26345 9.9411 7.23545 9.89911 6.80145C9.8691 6.47525 9.9071 6.01745 9.8091 5.80325C9.78611 5.72345 9.7671 5.64505 9.7351 5.64925L9.7331 5.64225ZM9.4151 5.67865C9.3851 5.68285 9.3521 5.73185 9.3251 5.82565C9.3021 5.89845 9.2731 6.27365 9.2781 6.27365C9.2581 6.38565 9.3611 6.43325 9.4081 6.29045C9.47811 6.02445 9.47811 5.91245 9.48211 5.80325C9.47211 5.71925 9.44511 5.67725 9.4151 5.68005V5.67865ZM10.5881 5.70665C10.5581 5.71225 10.5331 5.73745 10.5241 5.80185C10.5111 5.95025 10.5181 6.03285 10.5361 6.15745C10.5491 6.24145 10.6361 6.37865 10.6781 6.45985C10.8811 6.84205 11.0781 7.22565 11.2661 7.62185C11.2961 7.91865 11.3161 8.20705 11.3311 8.49545C11.3631 9.12545 11.3711 9.90945 11.3441 10.5745C11.4281 10.5787 11.5641 10.3827 11.6111 10.0985C11.6411 9.70085 11.6011 8.89445 11.5971 8.65925L11.5871 8.32605C11.8071 8.83005 12.0191 9.36205 12.2271 9.94445C12.3041 9.89405 12.2871 9.29345 12.2431 9.20945C12.0751 8.70545 11.8431 8.20705 11.7701 8.01525C11.7431 7.94525 11.6521 7.75345 11.5451 7.53085C11.5251 7.21165 11.5031 6.94285 11.4891 6.86165C11.4541 6.52565 11.5871 6.89945 11.5691 6.70485C11.5251 6.36885 11.3931 6.14205 11.2371 5.83405C11.1871 5.73605 11.1871 5.71365 11.1101 5.85925C11.0651 6.00625 11.0651 6.12945 11.0801 6.24425C11.0581 6.20225 11.0331 6.15465 10.9971 6.09305L10.7421 5.79065C10.7071 5.75565 10.6391 5.70245 10.5881 5.70665ZM14.0641 5.75845C14.0491 5.75565 14.0341 5.76545 14.0141 5.80325C13.9791 5.84525 13.9421 5.92505 13.9441 6.02725C13.9511 6.20225 13.9741 6.38285 13.9821 6.55925L13.9921 6.62925C13.9781 6.60685 13.9661 6.58725 13.9591 6.57885C13.7121 6.21485 14.0721 6.51725 13.9111 6.23865C13.7761 6.02865 13.7361 5.96425 13.6211 5.83825C13.5611 5.78785 13.5271 5.68705 13.5081 5.85785C13.5001 6.00765 13.4921 6.18265 13.4981 6.30865C13.4981 6.37865 13.5511 6.51165 13.5961 6.58865C13.7601 6.87285 13.9281 7.17385 14.0961 7.48745C14.1321 8.12725 14.1411 8.71385 14.1761 9.35505C14.1721 9.62945 14.1121 9.99345 14.0561 10.0271C14.0561 10.0271 13.9681 10.0971 13.9101 10.0201C13.8671 9.99625 13.6981 9.62385 13.6981 9.62385C13.6111 9.51185 13.5531 9.54405 13.4921 9.62385C13.3221 9.85345 13.2441 10.2847 13.1291 10.5815C13.0991 10.6473 13.0161 10.7047 12.9231 10.5759C12.6861 10.1223 12.8231 9.47685 12.7951 9.64345C12.5851 9.97665 12.6771 10.5283 12.7251 10.6473C12.7951 10.8433 12.8511 10.9693 12.9851 11.0631C13.1101 11.1891 13.2051 11.1121 13.2591 11.0211C13.3831 10.8419 13.3851 10.3813 13.4431 10.2903C13.4831 10.1223 13.5861 10.1503 13.6361 10.2259C13.6861 10.3239 13.7421 10.3869 13.8131 10.4401C13.9291 10.5829 14.0671 10.6081 14.2031 10.4779C14.2961 10.4051 14.3571 10.3099 14.4111 10.1223C14.4711 9.90385 14.4411 8.75585 14.4281 8.11745L14.6881 8.64385C14.7241 9.20385 14.7411 9.75685 14.7281 10.2861C14.7201 10.3911 14.9911 9.97245 14.9881 9.77365C14.9881 9.60145 14.9901 9.44325 14.9881 9.29765C15.1211 9.59165 15.2481 9.88985 15.3681 10.1937C15.4431 10.1377 15.4181 9.54545 15.3711 9.46565C15.2451 9.16885 15.0831 8.84965 14.9581 8.60045C14.9331 8.28825 14.9001 7.92005 14.8841 7.80665C14.8611 7.63025 14.8371 7.36565 14.8011 7.15705C14.7911 7.07725 14.7611 6.81685 14.7711 6.79305C14.7851 6.73285 14.8411 6.79305 14.8681 6.72585C14.9081 6.66285 14.7261 5.99785 14.6331 5.81025C14.6001 5.72625 14.5391 5.75425 14.4651 5.89425C14.3951 5.98385 14.4211 6.19105 14.4471 6.38845C14.5151 6.89245 14.5771 7.40205 14.6251 7.91445C14.5351 7.72545 14.4251 7.49865 14.3171 7.28165L14.3031 7.18365C14.3031 7.17245 14.2891 6.77065 14.2761 6.67545C14.2731 6.63625 14.2661 6.62505 14.2961 6.63065C14.3261 6.66705 14.3301 6.66845 14.3491 6.68105C14.3811 6.68665 14.4091 6.61385 14.3891 6.54525L14.0991 5.79765C14.0891 5.77945 14.0751 5.76265 14.0591 5.75985L14.0641 5.75845ZM5.0941 5.77245C5.0391 5.76965 4.98111 5.81445 5.00411 5.90545C4.99011 5.95445 5.10811 6.11965 5.12911 6.21065C5.14611 6.27645 5.10911 6.48365 5.14911 6.50465C5.18411 6.52565 5.2331 6.35905 5.2511 6.20645C5.2611 6.12245 5.2541 5.83405 5.1141 5.77525C5.1071 5.77245 5.1001 5.77245 5.0921 5.77105L5.0941 5.77245ZM15.3141 5.77245C15.3011 5.77525 15.2861 5.80045 15.2641 5.87045C15.2091 5.99645 15.1901 6.22045 15.2121 6.41645C15.3421 7.66245 15.4421 8.86925 15.4621 9.97245C15.4501 10.0789 15.4461 10.1349 15.4121 10.2665C15.3341 10.4065 15.2481 10.5801 15.1671 10.6641C15.0871 10.7481 14.9151 10.8293 14.8591 10.8909C14.6791 11.0337 14.6791 11.1989 14.8231 11.2059C15.0711 11.1639 15.3651 11.1359 15.5671 10.7089C15.6211 10.5899 15.6851 10.2651 15.6871 10.0649C15.7071 8.90285 15.6771 7.76185 15.5521 6.92045C15.5441 6.83645 15.5181 6.65025 15.5281 6.62645C15.5431 6.56765 15.6241 6.63065 15.6531 6.56485C15.6961 6.50325 15.4431 6.05105 15.3551 5.85785C15.3371 5.81025 15.3251 5.76965 15.3111 5.77385L15.3141 5.77245ZM12.7111 5.79205C12.7011 5.79485 12.6871 5.81725 12.6591 5.86905C12.5891 6.18545 12.5651 6.44305 12.5921 6.64185C12.7721 7.94385 12.9521 9.12685 12.9241 10.3659C13.0081 10.3659 13.1061 10.0957 13.1481 9.82685C13.1711 9.45585 13.1321 9.23045 13.1261 9.01485C13.1191 8.79645 12.9501 7.03245 12.9161 6.86865C12.8741 6.55785 13.0801 6.82665 13.0581 6.64745C12.9861 6.41785 12.8081 6.08745 12.7541 5.88725C12.7341 5.83405 12.7301 5.78505 12.7141 5.78925L12.7111 5.79205ZM6.3771 5.81725C6.3571 5.82285 6.33411 5.84805 6.32711 5.88725C6.32211 5.91525 6.3351 5.96145 6.3171 5.97545C6.3071 5.98945 6.2691 5.97965 6.2711 5.90545C6.2711 5.88025 6.2581 5.85505 6.2511 5.83965C6.2431 5.83405 6.2381 5.83265 6.2241 5.83265C6.2071 5.83265 6.2071 5.83965 6.1981 5.86065C6.1941 5.88025 6.18811 5.89985 6.18811 5.92225C6.18611 5.95025 6.1781 5.95725 6.1651 5.96145C6.1491 5.96145 6.1521 5.96425 6.1401 5.95165C6.1301 5.94185 6.12211 5.93765 6.12211 5.91805C6.12211 5.89705 6.1181 5.86205 6.1141 5.85085C6.1071 5.83685 6.0961 5.83125 6.08411 5.82705C6.01811 5.82705 6.01411 5.93625 6.01711 5.97545C6.01211 5.98385 6.0101 6.17145 6.1001 6.22465C6.2201 6.30585 6.4481 6.27085 6.4401 5.99785C6.4401 5.97405 6.4351 5.89285 6.4331 5.87185C6.42111 5.82985 6.3981 5.81585 6.3761 5.82005L6.3771 5.81725ZM8.00311 5.82005C7.96111 5.82285 7.92311 5.83965 7.89311 5.86205C7.81311 5.96985 7.7931 6.14205 7.8571 6.24985C7.9171 6.29185 7.9801 6.37585 7.93911 6.42485C7.76511 6.68385 7.3121 7.11925 7.2891 7.19905V7.20745H7.29311V7.21025C7.31611 7.23125 7.60011 7.23125 7.6311 7.21025H7.6331C7.7311 7.15845 8.1931 6.41925 8.1931 6.41925C8.1691 6.39125 8.1471 6.36885 8.12311 6.33945C8.09711 6.30865 8.10011 6.27785 8.12311 6.24705C8.23711 6.15465 8.2011 5.94885 8.1411 5.85505C8.0911 5.82425 8.04511 5.81305 8.00311 5.81725V5.82005ZM12.2531 5.82005C12.2411 5.82425 12.2261 5.84805 12.2031 5.91805C12.1481 6.04405 12.1111 6.26105 12.1161 6.46405C12.2341 7.61205 12.2701 8.61585 12.3481 9.76385C12.3541 9.87585 12.3421 10.0355 12.2901 10.0999C12.0941 10.3855 11.8131 10.7355 11.5071 10.8979C11.4741 10.9497 11.5891 11.1695 11.7371 11.1695C11.9851 11.1275 12.2031 10.9343 12.4071 10.4205C12.4601 10.3015 12.5551 10.0453 12.5571 9.84645C12.5771 8.68165 12.5171 7.77445 12.3911 6.93445C12.3841 6.85045 12.3891 6.75245 12.3991 6.73005C12.4151 6.70205 12.4691 6.73005 12.4991 6.66425C12.5411 6.60265 12.3851 6.10005 12.2971 5.90825C12.2791 5.85925 12.2691 5.82005 12.2531 5.82145V5.82005ZM5.6691 5.85785C5.63511 5.86345 5.6031 5.89985 5.5871 5.95585C5.5821 6.13785 5.5811 6.31985 5.5971 6.49065C5.6571 6.78885 5.6741 7.05065 5.7031 7.35445C5.7131 7.76325 5.53511 7.53085 5.54311 7.32925C5.58311 7.06605 5.57311 6.65305 5.53711 6.54805C5.50711 6.44305 5.47511 6.41785 5.40511 6.43605C5.35011 6.43045 5.2071 6.64605 5.1671 7.01005C5.1671 7.01005 5.1331 7.19485 5.1191 7.36005C5.0991 7.54625 5.0111 7.67925 4.9491 7.33485C4.8961 7.08285 4.8641 6.46685 4.7751 6.60965C4.7491 7.09125 4.71911 7.93965 5.01111 8.02645C5.36511 8.07405 5.1691 7.18925 5.2971 7.02825C5.3221 6.95125 5.3671 6.94985 5.3701 7.04925V7.80105C5.3661 8.04465 5.48011 8.11745 5.57011 8.16785C5.66311 8.15805 5.72411 8.16225 5.76011 8.28825L5.8051 9.59025C5.8051 9.59025 6.0191 9.67425 6.0291 8.85805C6.0391 8.37785 5.9591 7.97605 6.0061 7.88225C6.0081 7.78985 6.09211 7.78425 6.1501 7.83045C6.24311 7.92145 6.2841 8.03345 6.4281 7.98865C6.6481 7.90465 6.77811 7.75625 6.78111 7.52105C6.77111 7.29705 6.75111 7.07305 6.68111 6.84905C6.69111 6.80985 6.6411 6.70485 6.6511 6.66425C6.6891 6.74825 6.7491 6.74265 6.76111 6.66425C6.72511 6.49205 6.6671 6.32825 6.5731 6.25825C6.4961 6.16025 6.38311 6.18125 6.3411 6.38005C6.32111 6.60965 6.4011 6.88125 6.5211 7.10385C6.5451 7.19065 6.5811 7.33485 6.5651 7.46505C6.5021 7.51545 6.43911 7.49305 6.38511 7.41605C6.38511 7.41605 6.2121 7.23405 6.2121 7.19205C6.2591 6.77905 6.2221 6.73005 6.1971 6.61805C6.1791 6.45845 6.1251 6.40805 6.0821 6.29885C6.0381 6.23305 5.9791 6.23305 5.95211 6.29885C5.87411 6.48505 5.9101 6.88685 5.9661 7.06465C6.0061 7.22985 6.0681 7.33345 6.0391 7.33345C6.0151 7.42445 5.9651 7.40345 5.9291 7.29565C5.8791 7.07165 5.86711 6.74125 5.86711 6.59145C5.85211 6.40665 5.83511 6.01045 5.74711 5.90965C5.72411 5.86485 5.6971 5.84945 5.6701 5.85365L5.6691 5.85785ZM6.9111 5.85785C6.8941 5.86345 6.8741 5.87745 6.8511 5.88585C6.7761 5.91805 6.7061 6.00905 6.72811 6.18545C6.8181 6.94145 6.87511 7.51965 6.96411 8.27565C6.97711 8.36525 6.9241 8.48145 6.8561 8.47165C6.7401 8.35965 6.7111 8.13565 6.5131 8.14685C6.3691 8.14685 6.2051 8.36805 6.1851 8.57805C6.1611 8.74605 6.1531 8.92805 6.1851 9.07365C6.2851 9.24165 6.4071 9.22485 6.5131 9.18565C6.6001 9.13665 6.67311 9.01765 6.7031 9.04565C6.7231 9.09185 6.70111 9.48525 6.29311 9.78765C6.04111 9.94725 5.8411 9.98365 5.7331 9.69805C5.6671 9.51885 5.7391 8.83565 5.5751 8.99245C5.0891 10.7453 6.71211 10.9889 6.89311 9.06525C6.90511 9.00925 6.9401 8.95605 6.9661 8.97005C6.9761 8.97705 6.9861 8.99805 6.9901 9.03725C6.9521 10.7789 5.7341 10.8993 5.5281 10.3505C5.4761 10.2217 5.4611 9.93325 5.4561 9.76245C5.4461 9.65745 5.4281 9.59725 5.4061 9.57345C5.3561 9.52165 5.2901 9.65745 5.2761 9.89125C5.2561 10.0803 5.26111 10.1321 5.26111 10.3141C5.3271 11.6903 6.8941 11.0981 7.14911 9.96405C7.2751 9.37605 7.14611 8.93225 7.18911 8.87765L7.1921 8.87485H7.19511L7.2001 8.87205C7.3561 9.10725 7.57411 8.90005 7.62211 8.82025C7.64211 8.77825 7.6941 8.75025 7.7301 8.80625C7.8501 8.92665 8.0641 8.86925 8.1081 8.65225C8.1341 8.44225 8.15611 8.22665 8.16111 8.00125C8.08111 8.03625 8.01711 8.06145 7.99111 8.09925C7.98511 8.10905 7.98111 8.12025 7.9791 8.13145L7.95911 8.31765C7.95911 8.32465 7.9571 8.32885 7.9551 8.33165C7.9521 8.34145 7.9451 8.34845 7.9411 8.35265C7.9131 8.37365 7.8641 8.36245 7.8611 8.30505C7.82411 8.06705 7.6691 8.03625 7.5751 8.40725C7.5121 8.47725 7.39511 8.49125 7.38511 8.38485C7.40011 8.13565 7.3281 8.10205 7.1851 8.21965L7.0471 6.76365C7.1071 6.75945 7.1611 6.81965 7.2171 6.72445C7.1571 6.46685 7.0321 5.94325 6.9611 5.89285H6.95911L6.9491 5.87885C6.9491 5.87605 6.9461 5.87465 6.9441 5.87325L6.9401 5.86485C6.93611 5.86485 6.9321 5.86205 6.9301 5.86065C6.9231 5.85785 6.9171 5.85785 6.9101 5.85785H6.9111ZM11.7531 5.86345C11.6911 5.86065 11.6231 5.91525 11.6491 6.02445C11.6331 6.08465 11.7821 6.28625 11.8061 6.39545C11.8491 6.56345 11.7731 6.72725 11.8181 6.75105C11.8601 6.77625 11.9181 6.57605 11.9381 6.38985C11.9641 6.23865 11.8881 5.93065 11.7781 5.86765L11.7531 5.86485V5.86345ZM7.9801 6.04685C8.00811 6.04405 8.04211 6.08045 8.06011 6.13085C8.07711 6.18685 8.0681 6.23865 8.0401 6.24845C8.0101 6.25825 7.9721 6.22325 7.9541 6.16725C7.93611 6.11125 7.9441 6.05945 7.9741 6.04965H7.9801V6.04685ZM14.9771 6.30165C14.9201 6.29885 14.8571 6.35765 14.8831 6.47665C14.8691 6.54105 15.0031 6.75945 15.0261 6.87985C15.0461 6.96385 14.9961 7.23825 15.0361 7.26345C15.0741 7.29145 15.1261 7.07305 15.1461 6.87145C15.1581 6.75945 15.1001 6.37445 15.0011 6.30585C14.9941 6.30305 14.9861 6.30025 14.9781 6.30025L14.9771 6.30165ZM11.1071 6.43605C11.1141 6.46825 11.1191 6.50045 11.1221 6.53405C11.1341 6.60405 11.1441 6.67405 11.1541 6.74685C11.1101 6.66005 11.0741 6.59005 11.0571 6.56485C10.9571 6.39685 11.0591 6.45565 11.1071 6.43605ZM12.0001 7.04925C11.9781 7.05485 11.9571 7.08145 11.9501 7.12345C11.9441 7.14865 11.9581 7.19345 11.9401 7.20745C11.9301 7.22145 11.8901 7.21305 11.8931 7.13745C11.8931 7.11225 11.8801 7.08565 11.8731 7.07165C11.8651 7.06465 11.8601 7.06185 11.8461 7.06185C11.8291 7.06185 11.8291 7.06885 11.8201 7.08985C11.8161 7.10945 11.8101 7.12905 11.8101 7.15285C11.8101 7.18085 11.8021 7.18925 11.7881 7.19485C11.7721 7.19485 11.7751 7.19485 11.7621 7.18505C11.7541 7.17105 11.7451 7.16825 11.7451 7.14865C11.7451 7.12765 11.7421 7.09545 11.7371 7.08145C11.7301 7.06745 11.7201 7.06325 11.7071 7.05765C11.6421 7.05765 11.6371 7.16405 11.6411 7.20325C11.6371 7.21165 11.6341 7.40205 11.7241 7.45525C11.8461 7.53505 12.0741 7.49725 12.0641 7.22565C12.0641 7.20185 12.0591 7.12065 12.0581 7.09965C12.0451 7.05765 12.0221 7.04365 12.0011 7.04785L12.0001 7.04925ZM7.9301 7.10525C7.9161 7.10525 7.89611 7.11085 7.87311 7.13045C7.7661 7.21165 7.72511 7.45245 7.79311 7.59245C7.85311 7.71845 7.9531 7.67225 7.9661 7.67225C8.07111 7.69185 8.13311 7.39785 8.13311 7.39785C8.13311 7.39785 8.1361 7.31385 8.0131 7.47065C7.9591 7.48465 7.9531 7.45665 7.93911 7.41465C7.9271 7.34045 7.9291 7.26065 7.9541 7.18645C7.9661 7.14025 7.9541 7.11085 7.9301 7.10805V7.10525ZM13.6831 7.14305C13.6231 7.13885 13.5601 7.19345 13.5431 7.30685C13.5431 7.37405 13.5651 7.41045 13.5611 7.47205C13.5561 7.50705 13.5311 7.52805 13.4691 7.48885C13.4791 7.47485 13.4291 7.37965 13.4291 7.37965C13.3821 7.33765 13.3191 7.37965 13.2771 7.41885C13.2541 7.47765 13.2371 7.57705 13.2631 7.67785C13.3311 7.85565 13.5661 8.15805 13.6781 8.16085C13.6801 8.00125 13.6911 7.78845 13.6981 7.65685C13.7001 7.60645 13.7081 7.55185 13.7431 7.53925C13.7771 7.52525 13.8361 7.58685 13.8361 7.53505C13.8301 7.43425 13.8161 7.28305 13.7761 7.21305C13.7541 7.17105 13.7191 7.14585 13.6841 7.14305H13.6831ZM8.9201 7.69885L8.9171 7.70305C8.9171 7.70305 8.9151 7.70305 8.9141 7.70585C8.9021 7.71985 8.88811 7.74785 8.85711 7.77585C8.80411 7.85985 8.7951 7.92005 8.7971 8.08805C8.80111 8.10625 8.8971 8.48425 8.9801 8.74885C9.0361 9.02465 9.08711 9.34105 9.05011 9.63925C8.9201 10.0341 8.6601 10.3883 8.4071 10.5815C8.2771 10.6375 8.1671 10.6179 8.1371 10.5787C8.06311 10.5087 8.06211 10.3827 8.06711 10.3631V10.3589C8.27911 10.1517 8.5221 9.98365 8.7121 9.42505C8.76811 9.21085 8.7861 9.08205 8.7301 8.75305C8.7081 8.62705 8.6801 8.52905 8.6201 8.43945H8.6221C8.6581 8.41565 8.75211 8.51225 8.76711 8.45345C8.74411 8.29385 8.6671 8.08245 8.5821 7.97325C8.5061 7.87525 8.42211 7.86545 8.3541 7.95365C8.2761 8.01525 8.2601 8.23365 8.2971 8.42405C8.3391 8.56685 8.4521 8.59205 8.5321 8.88185C8.5341 8.90145 8.5591 9.09885 8.5191 9.18005C8.48511 9.32285 8.06411 9.78765 8.03411 9.81565L8.03111 9.81845L8.02911 9.82125H8.02711H8.0251V9.81705C8.0231 9.80585 8.0251 9.77505 8.0251 9.72885C8.0221 9.64205 8.04811 9.44465 8.0451 9.40965V9.40685C7.9051 9.53285 7.85811 9.91785 7.83311 10.0327C7.48011 10.3729 7.0801 10.6263 6.8491 10.9707C6.7291 11.2367 7.67711 10.6711 7.78711 10.6025L7.7901 10.6067C7.8121 10.6389 7.8131 10.7509 7.8761 10.8531C7.9761 11.0393 8.1841 11.1541 8.3881 11.0827C8.7301 10.9105 8.92811 10.5843 9.12811 10.2217C9.15611 10.1657 9.20111 10.1181 9.2431 10.1629C9.38011 10.5941 9.77811 10.9021 10.2911 10.9329C10.4111 10.7313 10.3541 10.6319 10.3061 10.5899C10.2911 10.5759 10.0511 10.4443 10.0131 10.3141C9.9901 10.1937 10.0471 10.0859 10.1611 10.0061C10.4911 9.95005 10.8151 9.88705 11.1291 9.74565C11.1321 9.59725 11.1941 9.37745 11.2361 9.28085C11.2661 9.21505 11.2831 9.20805 11.2901 9.19965V9.19685H11.2921V9.19265V9.17865L11.2381 9.13385L10.1851 9.12825C10.1721 9.12125 10.1631 9.11425 10.1571 9.10725L10.1551 9.10305C10.1551 9.10305 10.1531 9.10305 10.1531 9.10025C10.1531 9.09745 10.1511 9.09745 10.1511 9.09745V9.09885V9.09605V9.09325V9.09045L10.1531 9.08625C10.1581 9.07785 10.1711 9.06805 10.1861 9.05825C10.4381 9.01205 10.8841 8.90985 10.9141 8.30925C10.9091 7.99565 10.8181 7.79125 10.5441 7.73525C10.3421 7.75625 10.1981 8.02925 10.2211 8.32885C10.2111 8.40865 10.2411 8.56685 10.1811 8.58505C9.7951 8.63545 9.37311 8.97425 9.35911 9.21785H9.35711H9.3551H9.3531C9.3531 9.22065 9.35111 9.22065 9.35011 9.22065H9.3461H9.3441H9.34011C9.3151 9.20945 9.2831 9.15065 9.28811 9.07085C9.27311 8.65085 9.1751 8.17485 9.0231 7.81085C8.9681 7.73385 8.9431 7.70305 8.9291 7.69885H8.9261H8.92311H8.9211H8.9201ZM9.92811 7.92005C9.90811 7.92565 9.88511 7.95085 9.87811 7.99285C9.87311 8.02085 9.8881 8.06565 9.8701 8.07965C9.8601 8.09365 9.8201 8.08525 9.8221 8.00965C9.8221 7.98585 9.8091 7.95925 9.8021 7.94385C9.79411 7.93685 9.7891 7.93545 9.7761 7.93545C9.7591 7.93545 9.7581 7.94105 9.7491 7.96065C9.7441 7.98025 9.73911 8.00265 9.73911 8.02365C9.73711 8.05165 9.7291 8.06005 9.7161 8.06285C9.7001 8.06285 9.7041 8.06705 9.6911 8.05585C9.6831 8.04465 9.67311 8.03905 9.67311 8.01945C9.67311 7.99845 9.67011 7.96345 9.66611 7.94945C9.65911 7.93965 9.6481 7.93545 9.6361 7.92985C9.5691 7.92985 9.56611 8.03485 9.56911 8.07545C9.56411 8.08245 9.5611 8.27145 9.6511 8.32465C9.7711 8.40585 10.0611 8.35825 9.99111 8.09645C9.99111 8.07265 9.9861 7.99145 9.9851 7.97045C9.9721 7.92845 9.9491 7.91445 9.9271 7.91865L9.92811 7.92005ZM13.9931 8.15385H13.9831C13.9831 8.15385 13.4211 8.71385 13.4081 8.73345C13.3521 8.80345 13.3801 9.04565 13.4081 9.01765C13.4481 9.03865 14.0131 8.50245 14.0021 8.43945C14.0271 8.44225 14.0391 8.16365 13.9921 8.15245L13.9931 8.15385ZM10.4591 8.23785C10.4811 8.23365 10.5111 8.24485 10.5391 8.26585C10.5821 8.30225 10.6091 8.35265 10.6041 8.39185V8.39745C10.6021 8.39745 10.6021 8.39745 10.6021 8.40025V8.40305C10.6021 8.40305 10.6001 8.40305 10.6001 8.40585C10.6001 8.40865 10.5971 8.41145 10.5951 8.41425C10.5751 8.44225 10.5291 8.43665 10.4851 8.40025C10.4431 8.36805 10.4181 8.31625 10.4201 8.27985V8.27565L10.4251 8.26165C10.4251 8.26165 10.4251 8.25885 10.4271 8.25745L10.4321 8.24905C10.4391 8.24205 10.4481 8.23505 10.4591 8.23505V8.23785ZM5.5411 8.37785C5.2511 8.38625 4.82411 8.91265 4.81311 9.20385L5.7331 8.58785C5.6831 8.48145 5.7301 8.38625 5.5411 8.37785ZM6.48411 8.55985C6.51211 8.56265 6.5421 8.58225 6.5581 8.63825C6.57211 8.69005 6.5581 8.74325 6.5411 8.76985V8.77405C6.5271 8.79645 6.4851 8.78805 6.4541 8.78805C6.4171 8.78525 6.3991 8.77685 6.3771 8.73485C6.3651 8.68585 6.39711 8.63965 6.41211 8.60605L6.41911 8.59205C6.42911 8.57805 6.4491 8.56685 6.4691 8.56405L6.4821 8.56125L6.48411 8.55985ZM13.8841 8.72365C13.8311 8.73205 13.7821 8.80065 13.8041 8.90985C13.7901 8.97425 13.8741 9.19965 13.8971 9.31865C13.9171 9.40265 13.8711 9.64485 13.9121 9.66865C13.9501 9.69665 14.0491 9.52865 14.0461 9.31305C14.0561 9.20105 14.0181 8.79505 13.9191 8.72785C13.9071 8.72365 13.8951 8.72225 13.8831 8.72365H13.8841ZM7.6001 9.12125C7.5541 9.12545 7.5131 9.15905 7.5321 9.25005C7.5291 9.31445 7.66211 9.39425 7.66911 9.54405C7.6871 9.60845 7.6391 9.81005 7.6791 9.82685C7.7151 9.84785 7.7651 9.68685 7.7841 9.54125C7.7941 9.46005 7.73811 9.17725 7.6441 9.12545C7.6291 9.11985 7.6141 9.11845 7.5991 9.11985L7.6001 9.12125ZM9.4801 9.47965H9.4921C9.6101 9.52445 9.7821 9.53005 9.93211 9.54965C10.0551 9.56365 10.1151 9.69525 10.0021 9.75265C9.8881 9.80585 9.77911 9.85065 9.77911 10.0775C9.79311 10.1895 9.78911 10.2483 9.77711 10.2735C9.77711 10.2777 9.7741 10.2805 9.7731 10.2819C9.7731 10.2819 9.7731 10.2847 9.7711 10.2847V10.2875H9.7681L9.7611 10.2917H9.7561C9.7291 10.2987 9.6901 10.2637 9.66111 10.2413C9.5911 10.1713 9.3961 10.0033 9.3681 9.63925C9.3641 9.55525 9.4081 9.48525 9.4781 9.47825L9.4801 9.47965ZM4.88611 9.75965C4.87911 9.75965 4.86611 9.79045 4.84611 9.82545C4.67211 10.2105 4.6561 10.7859 4.7521 10.9595C4.8021 11.0393 4.8861 11.0757 4.9481 11.0505C5.0581 10.9847 5.1051 10.6753 5.0781 10.5633C5.0431 10.4835 5.01411 10.4709 4.97811 10.5381C4.90111 10.7551 4.8681 10.6053 4.8631 10.4821C4.8511 10.2539 4.86711 10.0411 4.88511 9.87305C4.89511 9.78905 4.89511 9.75685 4.88511 9.75685L4.88611 9.75965ZM10.7831 10.2665C10.7701 10.2665 10.7571 10.2693 10.7431 10.2805C10.7401 10.2805 10.6191 10.3925 10.5801 10.4737C10.5561 10.4989 10.5601 10.5199 10.5661 10.5647C10.5841 10.6249 10.6161 10.6067 10.6541 10.5787C10.7041 10.5675 10.7271 10.6137 10.7241 10.6963C10.7011 10.8013 10.7341 10.8391 10.7341 10.8461C10.7341 10.8517 10.7811 10.9091 10.8371 10.8643C10.9541 10.8013 11.0271 10.7383 11.1921 10.6893C11.2351 10.6893 11.2321 10.5269 11.1641 10.5213C11.0741 10.5269 10.9941 10.5353 10.9041 10.6333C10.8491 10.6501 10.8401 10.6025 10.8271 10.5605C10.8131 10.4569 10.8591 10.3841 10.8491 10.3057C10.8511 10.3099 10.8211 10.2721 10.7821 10.2693L10.7831 10.2665ZM14.5591 10.4625L14.4791 10.4737C14.4431 10.4835 14.4311 10.5059 14.4241 10.5675C14.4271 10.6585 14.4671 10.6543 14.5091 10.6907C14.5331 10.7327 14.5491 10.7719 14.5071 10.8447C14.4671 10.8937 14.4401 10.9217 14.4001 10.9707C14.3831 11.0155 14.3701 11.0827 14.4281 11.1051C14.5331 11.1471 14.7761 10.9259 14.7761 10.9231C14.8161 10.8811 14.8021 10.8013 14.7991 10.8013C14.7751 10.7649 14.7231 10.7873 14.6891 10.7803C14.6721 10.7803 14.6191 10.7691 14.6431 10.7019C14.6651 10.6599 14.6731 10.6361 14.6881 10.5843C14.7031 10.5339 14.6881 10.5003 14.6301 10.4723C14.6001 10.4639 14.5801 10.4611 14.5571 10.4625H14.5591ZM13.1061 15.8665C13.3761 15.8847 13.6281 15.8707 13.8961 15.8889C13.9401 15.9393 13.9191 16.0569 13.8911 16.0765L13.8861 16.0793H13.8831H13.8791L13.6531 16.0709V16.0527C13.6311 15.9659 13.4811 15.9715 13.4451 16.0387V16.0429C13.4431 16.0429 13.4421 16.0471 13.4421 16.0485L13.4401 16.0555V16.0723C13.3201 16.0933 13.2151 16.0667 13.0971 16.0611C13.0621 16.0009 13.0671 15.8931 13.1071 15.8651L13.1061 15.8665Z" fill="white"/>
</svg>
