<svg width="16" height="15" viewBox="0 0 16 15" fill="none" xmlns="http://www.w3.org/2000/svg">
<path d="M15.4581 7.70484C15.4179 7.80265 15.3497 7.88638 15.2619 7.94547C15.1742 8.00457 15.071 8.03638 14.9652 8.03691H13.3578V13.3929C13.3578 13.8191 13.1885 14.2278 12.8871 14.5291C12.5856 14.8305 12.1768 14.9998 11.7505 14.9998H9.60735C9.46525 14.9998 9.32897 14.9433 9.22849 14.8429C9.12801 14.7424 9.07157 14.6062 9.07157 14.4642V11.2505C9.07157 11.1085 9.01512 10.9722 8.91464 10.8718C8.81416 10.7714 8.67788 10.7149 8.53578 10.7149H7.46422C7.32212 10.7149 7.18584 10.7714 7.08536 10.8718C6.98488 10.9722 6.92843 11.1085 6.92843 11.2505V14.4642C6.92843 14.6062 6.87198 14.7424 6.7715 14.8429C6.67103 14.9433 6.53475 14.9998 6.39265 14.9998H4.24951C3.82322 14.9998 3.41438 14.8305 3.11295 14.5291C2.81151 14.2278 2.64216 13.8191 2.64216 13.3929V8.03691H1.03481C0.929035 8.03638 0.82578 8.00457 0.738062 7.94547C0.650343 7.88638 0.582086 7.80265 0.541891 7.70484C0.500861 7.6073 0.489651 7.4998 0.509675 7.3959C0.5297 7.29199 0.580061 7.19635 0.654406 7.12103L7.61959 0.158186C7.6694 0.107985 7.72866 0.0681393 7.79395 0.0409475C7.85924 0.0137556 7.92927 -0.000244141 8 -0.000244141C8.07073 -0.000244141 8.14076 0.0137556 8.20605 0.0409475C8.27134 0.0681393 8.3306 0.107985 8.3804 0.158186L15.3456 7.12103C15.4199 7.19635 15.4703 7.29199 15.4903 7.3959C15.5103 7.4998 15.4991 7.6073 15.4581 7.70484Z" fill="#FDFDFD"/>
</svg>
