<svg width="22" height="23" viewBox="0 0 22 23" fill="none" xmlns="http://www.w3.org/2000/svg">
<path opacity="0.3" d="M4.65797 7.83312H7.36214C7.65547 6.68729 8.07714 5.58729 8.62714 4.56979C6.94047 5.14729 5.53797 6.31146 4.65797 7.83312ZM6.8763 11.4998C6.8763 10.8765 6.9313 10.2715 7.00464 9.66646H3.9063C3.75964 10.2531 3.66797 10.8673 3.66797 11.4998C3.66797 12.1323 3.75964 12.7465 3.9063 13.3331H7.00464C6.9313 12.7281 6.8763 12.1231 6.8763 11.4998ZM4.65797 15.1665C5.54332 16.698 6.95327 17.8573 8.62714 18.4298C8.07386 17.3977 7.64903 16.3018 7.36214 15.1665H4.65797ZM11.0013 4.20312C10.2405 5.30313 9.64464 6.52229 9.25047 7.83312H12.7521C12.358 6.52229 11.7621 5.30313 11.0013 4.20312ZM17.3446 7.83312C16.4565 6.30387 15.0476 5.14546 13.3755 4.56979C13.9255 5.58729 14.3471 6.68729 14.6405 7.83312H17.3446ZM11.0013 18.7965C11.7621 17.6965 12.358 16.4773 12.7521 15.1665H9.25047C9.64464 16.4773 10.2405 17.6965 11.0013 18.7965ZM13.3755 18.4298C15.0476 17.8541 16.4565 16.6957 17.3446 15.1665H14.6405C14.3536 16.3018 13.9287 17.3977 13.3755 18.4298ZM18.0963 9.66646H14.998C15.0713 10.2715 15.1263 10.8765 15.1263 11.4998C15.1263 12.1231 15.0713 12.7281 14.998 13.3331H18.0963C18.243 12.7465 18.3346 12.1323 18.3346 11.4998C18.3346 10.8673 18.243 10.2531 18.0963 9.66646ZM8.8563 9.66646C8.7738 10.2623 8.70964 10.8765 8.70964 11.4998C8.70964 12.1231 8.7738 12.7281 8.8563 13.3331H13.1463C13.2288 12.7281 13.293 12.1231 13.293 11.4998C13.293 10.8765 13.2288 10.2623 13.1463 9.66646H8.8563Z" fill="#505AC9"/>
<path d="M10.9895 2.33398C5.92953 2.33398 1.83203 6.44065 1.83203 11.5007C1.83203 16.5607 5.92953 20.6673 10.9895 20.6673C16.0587 20.6673 20.1654 16.5607 20.1654 11.5007C20.1654 6.44065 16.0587 2.33398 10.9895 2.33398ZM17.342 7.83398H14.6379C14.351 6.69865 13.9261 5.60272 13.3729 4.57065C15.045 5.14632 16.4539 6.30473 17.342 7.83398ZM10.9987 4.20398C11.7595 5.30398 12.3554 6.52315 12.7495 7.83398H9.24786C9.64203 6.52315 10.2379 5.30398 10.9987 4.20398ZM3.9037 13.334C3.75703 12.7473 3.66536 12.1332 3.66536 11.5007C3.66536 10.8682 3.75703 10.254 3.9037 9.66732H7.00203C6.9287 10.2723 6.8737 10.8773 6.8737 11.5007C6.8737 12.124 6.9287 12.729 7.00203 13.334H3.9037ZM4.65536 15.1673H7.35953C7.65286 16.3132 8.07453 17.4132 8.62453 18.4307C6.95067 17.8581 5.54071 16.6989 4.65536 15.1673ZM7.35953 7.83398H4.65536C5.54071 6.3024 6.95067 5.14317 8.62453 4.57065C8.07126 5.60272 7.64643 6.69865 7.35953 7.83398ZM10.9987 18.7973C10.2379 17.6973 9.64203 16.4782 9.24786 15.1673H12.7495C12.3554 16.4782 11.7595 17.6973 10.9987 18.7973ZM13.1437 13.334H8.8537C8.7712 12.729 8.70703 12.124 8.70703 11.5007C8.70703 10.8773 8.7712 10.2632 8.8537 9.66732H13.1437C13.2262 10.2632 13.2904 10.8773 13.2904 11.5007C13.2904 12.124 13.2262 12.729 13.1437 13.334ZM13.3729 18.4307C13.9229 17.4132 14.3445 16.3132 14.6379 15.1673H17.342C16.4539 16.6966 15.045 17.855 13.3729 18.4307ZM14.9954 13.334C15.0687 12.729 15.1237 12.124 15.1237 11.5007C15.1237 10.8773 15.0687 10.2723 14.9954 9.66732H18.0937C18.2404 10.254 18.332 10.8682 18.332 11.5007C18.332 12.1332 18.2404 12.7473 18.0937 13.334H14.9954Z" fill="#505AC9"/>
</svg>
