<svg width="21" height="21" viewBox="0 0 21 21" fill="none" xmlns="http://www.w3.org/2000/svg">
<path d="M18.9992 13.6C18.7618 13.4821 18.4873 13.4633 18.2361 13.5477C17.9848 13.6321 17.7773 13.8127 17.6592 14.05C17.0263 15.3282 16.0631 16.414 14.8695 17.1948C13.6759 17.9756 12.2952 18.4231 10.8705 18.491C9.44576 18.5588 8.02882 18.2445 6.76641 17.5806C5.504 16.9167 4.44204 15.9274 3.69052 14.7151C2.93901 13.5028 2.52527 12.1116 2.49217 10.6857C2.45906 9.25975 2.80779 7.85088 3.50223 6.60502C4.19667 5.35915 5.21157 4.32161 6.44181 3.59985C7.67205 2.87809 9.07288 2.49837 10.4992 2.50001C11.9903 2.49355 13.4531 2.90764 14.7195 3.69476C15.986 4.48188 17.0049 5.61012 17.6592 6.95001C17.7786 7.1887 17.9878 7.37021 18.241 7.4546C18.4942 7.53899 18.7705 7.51936 19.0092 7.40001C19.2479 7.28066 19.4294 7.07138 19.5138 6.81821C19.5982 6.56503 19.5786 6.2887 19.4592 6.05001C18.4558 4.03075 16.7994 2.40987 14.7589 1.45044C12.7184 0.491008 10.4136 0.249349 8.21842 0.764685C6.02328 1.28002 4.06673 2.5221 2.66634 4.28933C1.26595 6.05656 0.503906 8.24519 0.503906 10.5C0.503906 12.7548 1.26595 14.9435 2.66634 16.7107C4.06673 18.4779 6.02328 19.72 8.21842 20.2353C10.4136 20.7507 12.7184 20.509 14.7589 19.5496C16.7994 18.5901 18.4558 16.9693 19.4592 14.95C19.5188 14.8314 19.5542 14.7021 19.5633 14.5696C19.5724 14.4372 19.555 14.3043 19.5122 14.1786C19.4694 14.0529 19.402 13.937 19.3139 13.8377C19.2258 13.7384 19.1188 13.6576 18.9992 13.6ZM19.4992 9.50001H9.90921L12.2092 7.21001C12.3025 7.11677 12.3764 7.00608 12.4269 6.88426C12.4773 6.76244 12.5033 6.63187 12.5033 6.50001C12.5033 6.36815 12.4773 6.23758 12.4269 6.11576C12.3764 5.99394 12.3025 5.88325 12.2092 5.79001C12.116 5.69677 12.0053 5.62281 11.8835 5.57235C11.7616 5.52189 11.6311 5.49592 11.4992 5.49592C11.3674 5.49592 11.2368 5.52189 11.115 5.57235C10.9931 5.62281 10.8825 5.69677 10.7892 5.79001L6.78921 9.79001C6.69817 9.88511 6.62681 9.99726 6.57921 10.12C6.47919 10.3635 6.47919 10.6365 6.57921 10.88C6.62681 11.0028 6.69817 11.1149 6.78921 11.21L10.7892 15.21C10.8822 15.3037 10.9928 15.3781 11.1146 15.4289C11.2365 15.4797 11.3672 15.5058 11.4992 15.5058C11.6312 15.5058 11.7619 15.4797 11.8838 15.4289C12.0056 15.3781 12.1162 15.3037 12.2092 15.21C12.3029 15.117 12.3773 15.0064 12.4281 14.8846C12.4789 14.7627 12.505 14.632 12.505 14.5C12.505 14.368 12.4789 14.2373 12.4281 14.1154C12.3773 13.9936 12.3029 13.883 12.2092 13.79L9.90921 11.5H19.4992C19.7644 11.5 20.0188 11.3947 20.2063 11.2071C20.3939 11.0196 20.4992 10.7652 20.4992 10.5C20.4992 10.2348 20.3939 9.98044 20.2063 9.7929C20.0188 9.60537 19.7644 9.50001 19.4992 9.50001Z" fill="#FCFCFC"/>
</svg>
