<svg width="24" height="25" viewBox="0 0 24 25" fill="none" xmlns="http://www.w3.org/2000/svg">
<path d="M20 12.5C20 12.7652 19.8946 13.0196 19.7071 13.2071C19.5196 13.3946 19.2652 13.5 19 13.5H11.41L13.71 15.79C13.8037 15.883 13.8781 15.9936 13.9289 16.1154C13.9797 16.2373 14.0058 16.368 14.0058 16.5C14.0058 16.632 13.9797 16.7627 13.9289 16.8846C13.8781 17.0064 13.8037 17.117 13.71 17.21C13.617 17.3037 13.5064 17.3781 13.3846 17.4289C13.2627 17.4797 13.132 17.5058 13 17.5058C12.868 17.5058 12.7373 17.4797 12.6154 17.4289C12.4936 17.3781 12.383 17.3037 12.29 17.21L8.29 13.21C8.19896 13.1149 8.12759 13.0028 8.08 12.88C7.97998 12.6365 7.97998 12.3635 8.08 12.12C8.12759 11.9972 8.19896 11.8851 8.29 11.79L12.29 7.79C12.3832 7.69676 12.4939 7.6228 12.6158 7.57234C12.7376 7.52188 12.8681 7.49591 13 7.49591C13.1319 7.49591 13.2624 7.52188 13.3842 7.57234C13.5061 7.6228 13.6168 7.69676 13.71 7.79C13.8032 7.88324 13.8772 7.99393 13.9277 8.11575C13.9781 8.23757 14.0041 8.36814 14.0041 8.5C14.0041 8.63186 13.9781 8.76243 13.9277 8.88425C13.8772 9.00607 13.8032 9.11676 13.71 9.21L11.41 11.5H19C19.2652 11.5 19.5196 11.6054 19.7071 11.7929C19.8946 11.9804 20 12.2348 20 12.5ZM7 2.5H17C17.7956 2.5 18.5587 2.81607 19.1213 3.37868C19.6839 3.94129 20 4.70435 20 5.5V8.5C20 8.76522 19.8946 9.01957 19.7071 9.20711C19.5196 9.39464 19.2652 9.5 19 9.5C18.7348 9.5 18.4804 9.39464 18.2929 9.20711C18.1054 9.01957 18 8.76522 18 8.5V5.5C18 5.23478 17.8946 4.98043 17.7071 4.79289C17.5196 4.60536 17.2652 4.5 17 4.5H7C6.73478 4.5 6.48043 4.60536 6.29289 4.79289C6.10536 4.98043 6 5.23478 6 5.5V19.5C6 19.7652 6.10536 20.0196 6.29289 20.2071C6.48043 20.3946 6.73478 20.5 7 20.5H17C17.2652 20.5 17.5196 20.3946 17.7071 20.2071C17.8946 20.0196 18 19.7652 18 19.5V16.5C18 16.2348 18.1054 15.9804 18.2929 15.7929C18.4804 15.6054 18.7348 15.5 19 15.5C19.2652 15.5 19.5196 15.6054 19.7071 15.7929C19.8946 15.9804 20 16.2348 20 16.5V19.5C20 20.2956 19.6839 21.0587 19.1213 21.6213C18.5587 22.1839 17.7956 22.5 17 22.5H7C6.20435 22.5 5.44129 22.1839 4.87868 21.6213C4.31607 21.0587 4 20.2956 4 19.5V5.5C4 4.70435 4.31607 3.94129 4.87868 3.37868C5.44129 2.81607 6.20435 2.5 7 2.5Z" fill="#505AC9"/>
</svg>
