<svg width="32" height="33" viewBox="0 0 32 33" fill="none" xmlns="http://www.w3.org/2000/svg">
<rect y="0.5" width="32" height="32" rx="6" fill="#F3F3F3"/>
<path d="M20.5401 20.4805H11.4473V26.554L13.8156 25.4829H18.1862L20.5545 26.554V21.986V21.9801C20.5498 21.9822 20.5448 20.4784 20.5401 20.4805Z" fill="#D62E2E"/>
<path d="M16.001 20.4805H11.4473V26.554L13.8156 25.4829H16.001V20.4805Z" fill="#D62E2E"/>
<path d="M13.8145 20.4785V27.9989L15.9998 27.0105L18.1851 27.9989V20.4804L13.8145 20.4785Z" fill="#F53939"/>
<path d="M15.9998 20.4795L13.8145 20.4785V27.9989L15.9998 27.0105V20.4795Z" fill="#F53939"/>
<path d="M6.63281 13.9107L7.99583 11.31L8.42133 8.40445L11.0544 7.10329L13.1045 5L15.9997 5.49733L18.8948 5L20.9448 7.10329L23.5779 8.40445L24.0034 11.31L25.3664 13.9107L24.0034 16.5114L23.5779 19.4168L20.9448 20.718L18.8948 22.8213L15.9997 22.324L13.1045 22.8213L11.0544 20.718L8.42133 19.4168L7.99583 16.5114L6.63281 13.9107Z" fill="#D62E2E"/>
<path d="M15.9997 5.49733L13.1045 5L11.0544 7.10329L8.42133 8.40445L7.99583 11.31L6.63281 13.9107L7.99583 16.5114L8.42133 19.4168L11.0544 20.718L13.1045 22.8213L15.9997 22.324V5.49733Z" fill="#D62E2E"/>
<path d="M16 20.9883C19.9091 20.9883 23.0781 17.8193 23.0781 13.9101C23.0781 10.001 19.9091 6.83203 16 6.83203C12.0909 6.83203 8.92188 10.001 8.92188 13.9101C8.92188 17.8193 12.0909 20.9883 16 20.9883Z" fill="white"/>
<path d="M15.9998 6.83203C12.0908 6.83203 8.92188 10.0009 8.92188 13.9099C8.92188 17.8189 12.0908 20.9879 15.9998 20.9879V6.83203Z" fill="white"/>
<path d="M16.0004 8.63086C13.0892 8.63086 10.7207 10.9993 10.7207 13.9106C10.7207 16.8218 13.0891 19.1903 16.0003 19.1903C18.9115 19.1903 21.28 16.8218 21.28 13.9106C21.28 10.9993 18.9115 8.63086 16.0004 8.63086Z" fill="#D62E2E"/>
<path d="M16.0004 8.63086C13.0892 8.63086 10.7207 10.9993 10.7207 13.9106C10.7207 16.8218 13.0891 19.1903 16.0003 19.1903L16.0004 8.63086Z" fill="#D62E2E"/>
</svg>
