<svg width="29" height="16" viewBox="0 0 29 16" fill="none" xmlns="http://www.w3.org/2000/svg">
<path d="M28.3344 1.08203H0.665574C0.285246 1.08203 0 1.36728 0 1.74761V14.5837C0 14.964 0.285246 15.2492 0.665574 15.2492H28.2869C28.6672 15.2492 28.9525 14.964 28.9525 14.5837V1.74761C29 1.36728 28.7148 1.08203 28.3344 1.08203Z" fill="#7EAA84"/>
<path d="M28.3344 0.75H0.665574C0.285246 0.75 0 1.03525 0 1.41557V14.2516C0 14.632 0.285246 14.9172 0.665574 14.9172H28.2869C28.6672 14.9172 28.9525 14.632 28.9525 14.2516V1.41557C29 1.03525 28.7148 0.75 28.3344 0.75Z" fill="#B1DDB7"/>
<path d="M28.3344 14.9641C28.7148 14.9641 29 14.6788 29 14.2985V1.46245C29 1.08212 28.7148 0.796875 28.3344 0.796875H0.665574C0.285246 0.796875 0 1.08212 0 1.46245" fill="#95C19D"/>
<path d="M27.5727 4.60108C26.2891 4.60108 25.2432 3.55518 25.2432 2.27157C25.2432 2.17649 25.2432 2.08141 25.2908 1.98633H3.75471C3.75471 2.08141 3.80225 2.17649 3.80225 2.27157C3.80225 3.55518 2.75635 4.60108 1.47275 4.60108C1.37766 4.60108 1.28258 4.60108 1.1875 4.55354V11.1142C1.28258 11.1142 1.37766 11.0667 1.47275 11.0667C2.75635 11.0667 3.80225 12.1126 3.80225 13.3962C3.80225 13.4912 3.80225 13.5863 3.75471 13.6339H25.1957C25.1957 13.5388 25.1482 13.4437 25.1482 13.3962C25.1482 12.1126 26.1941 11.0667 27.4777 11.0667C27.5727 11.0667 27.6678 11.0667 27.7629 11.1142V4.55354C27.7154 4.60108 27.6678 4.60108 27.5727 4.60108Z" fill="#52A85A"/>
<path d="M25.1969 2.2247C25.1969 2.12962 25.1969 2.03454 25.2444 1.93945H3.7559C3.7559 2.03454 3.80345 2.12962 3.80345 2.2247C3.80345 2.55749 3.7559 2.84273 3.61328 3.12798L25.1969 13.4444C25.1969 12.1608 26.2428 11.1149 27.5264 11.1149C27.6215 11.1149 27.7166 11.1149 27.8116 11.1624V4.55421C27.7166 4.55421 27.6215 4.60175 27.5264 4.60175C26.2428 4.60175 25.1969 3.55585 25.1969 2.2247Z" fill="#4D9356"/>
<path d="M1.33079 3.55523C1.23571 3.55523 1.14062 3.46014 1.14062 3.36506C1.14062 3.26998 1.23571 3.1749 1.33079 3.1749C1.94882 3.1749 2.47177 2.65195 2.47177 2.03391C2.47177 1.93883 2.56685 1.84375 2.66194 1.84375C2.75702 1.84375 2.8521 1.93883 2.8521 2.03391C2.80456 2.93719 2.18653 3.55523 1.33079 3.55523Z" fill="#52A85A"/>
<path d="M2.80389 13.5871C2.80389 13.6821 2.70881 13.7772 2.61373 13.7772C2.51865 13.7772 2.42357 13.6821 2.42357 13.5871C2.42357 12.969 1.90061 12.4461 1.28258 12.4461C1.28258 12.4936 1.1875 12.3985 1.1875 12.3034C1.1875 12.2084 1.28258 12.1133 1.37766 12.1133C2.18586 12.1133 2.80389 12.7789 2.80389 13.5871Z" fill="#52A85A"/>
<path d="M27.6697 12.1133C27.7648 12.1133 27.8599 12.2084 27.8599 12.3034C27.8599 12.3985 27.7648 12.4936 27.6697 12.4936C27.0517 12.4936 26.5288 13.0166 26.5288 13.6346C26.5288 13.7297 26.4337 13.8248 26.3386 13.8248C26.2435 13.8248 26.1484 13.7297 26.1484 13.6346C26.196 12.7789 26.814 12.1133 27.6697 12.1133Z" fill="#52A85A"/>
<path d="M26.1953 2.12962C26.1953 2.03453 26.2904 1.93945 26.3855 1.93945C26.4806 1.93945 26.5756 2.03453 26.5756 2.12962C26.5756 2.74765 27.0986 3.2706 27.7166 3.2706C27.8117 3.2706 27.9068 3.36568 27.9068 3.46077C27.9068 3.55585 27.8117 3.65093 27.7166 3.65093C26.8133 3.55585 26.1953 2.93781 26.1953 2.12962Z" fill="#52A85A"/>
<path d="M14.4989 12.4919C17.072 12.4919 19.1579 10.4059 19.1579 7.83284C19.1579 5.25974 17.072 3.17383 14.4989 3.17383C11.9258 3.17383 9.83984 5.25974 9.83984 7.83284C9.83984 10.4059 11.9258 12.4919 14.4989 12.4919Z" fill="#7EAA84"/>
<path d="M14.5008 12.5393C16.545 12.5393 18.304 11.2081 18.9221 9.35405L17.4008 7.83274C17.068 7.49995 16.4499 7.49995 16.1172 7.83274L15.7844 8.16552L13.9778 6.35897C13.645 6.02618 13.027 6.02618 12.6942 6.35897L9.98438 9.0688C10.5549 11.0655 12.3614 12.5393 14.5008 12.5393Z" fill="#49754C"/>
<path d="M16.736 8.50044C17.0688 8.16765 17.6393 8.16765 18.0196 8.50044L17.4015 7.8824C17.0688 7.54962 16.4507 7.54962 16.1179 7.8824L15.7852 8.21519L16.4032 8.83322L16.736 8.50044Z" fill="#5E8E63"/>
<path d="M10.6024 9.73566L13.3122 7.02583C13.645 6.69304 14.2631 6.69304 14.5959 7.02583L13.9778 6.40779C13.645 6.07501 13.027 6.07501 12.6942 6.40779L9.98438 9.11763C10.2221 10.0684 10.7926 10.8766 11.5057 11.4471C11.0778 10.9717 10.7926 10.3537 10.6024 9.73566Z" fill="#5E8E63"/>
<path d="M14.5016 12.9681C11.6492 12.9681 9.36719 10.6861 9.36719 7.83364C9.36719 4.98119 11.6492 2.69922 14.5016 2.69922C17.3541 2.69922 19.636 4.98119 19.636 7.83364C19.636 10.6861 17.3541 12.9681 14.5016 12.9681ZM14.5016 3.6025C12.1721 3.6025 10.2705 5.50414 10.2705 7.83364C10.2705 10.1632 12.1721 12.0648 14.5016 12.0648C16.8311 12.0648 18.7328 10.1632 18.7328 7.83364C18.7328 5.50414 16.8311 3.6025 14.5016 3.6025Z" fill="#99D1A0"/>
<path d="M18.9222 10.4953C19.3976 9.73462 19.6353 8.83134 19.6353 7.88052C19.6353 5.02806 17.3533 2.74609 14.5009 2.74609C12.314 2.74609 10.4123 4.12478 9.69922 6.07396L10.5074 6.45429C11.0779 4.79036 12.6468 3.60183 14.5009 3.60183C16.8304 3.60183 18.732 5.50347 18.732 7.83298C18.732 8.64118 18.4943 9.40183 18.114 10.0674L18.9222 10.4953Z" fill="#95C19D"/>
<path d="M8.27465 7.83403C8.27465 7.92911 8.22711 7.97665 8.13203 7.97665H2.47465C2.37957 7.97665 2.33203 7.92911 2.33203 7.83403C2.33203 7.73895 2.37957 7.69141 2.47465 7.69141H8.13203C8.22711 7.73895 8.27465 7.78649 8.27465 7.83403Z" fill="#B1DDB7"/>
<path d="M1.75981 7.97665C1.83858 7.97665 1.90243 7.9128 1.90243 7.83403C1.90243 7.75526 1.83858 7.69141 1.75981 7.69141C1.68104 7.69141 1.61719 7.75526 1.61719 7.83403C1.61719 7.9128 1.68104 7.97665 1.75981 7.97665Z" fill="#B1DDB7"/>
<path d="M20.7266 7.83403C20.7266 7.73895 20.7741 7.69141 20.8692 7.69141H26.5266C26.6216 7.69141 26.6692 7.73895 26.6692 7.83403C26.6692 7.92911 26.6216 7.97665 26.5266 7.97665H20.8692C20.7741 7.97665 20.7266 7.92911 20.7266 7.83403Z" fill="#B1DDB7"/>
<path d="M27.2403 7.97665C27.319 7.97665 27.3829 7.9128 27.3829 7.83403C27.3829 7.75526 27.319 7.69141 27.2403 7.69141C27.1615 7.69141 27.0977 7.75526 27.0977 7.83403C27.0977 7.9128 27.1615 7.97665 27.2403 7.97665Z" fill="#B1DDB7"/>
<path d="M15.5922 5.55243C15.1643 5.55243 14.784 5.1721 14.784 4.74423C14.784 4.64915 14.784 4.55407 14.8315 4.45898C14.5463 4.55407 14.3086 4.88685 14.3086 5.21964C14.3086 5.64751 14.6889 6.02784 15.1168 6.02784C15.4496 6.02784 15.7348 5.83767 15.8774 5.50489C15.8299 5.55243 15.7348 5.55243 15.5922 5.55243Z" fill="#95C19D"/>
<path d="M3.13872 5.504C3.21749 5.504 3.28134 5.44014 3.28134 5.36137C3.28134 5.28261 3.21749 5.21875 3.13872 5.21875C3.05995 5.21875 2.99609 5.28261 2.99609 5.36137C2.99609 5.44014 3.05995 5.504 3.13872 5.504Z" fill="#4D9356"/>
<path d="M3.90044 5.504C3.9792 5.504 4.04306 5.44014 4.04306 5.36137C4.04306 5.28261 3.9792 5.21875 3.90044 5.21875C3.82167 5.21875 3.75781 5.28261 3.75781 5.36137C3.75781 5.44014 3.82167 5.504 3.90044 5.504Z" fill="#4D9356"/>
<path d="M4.66215 5.504C4.74092 5.504 4.80478 5.44014 4.80478 5.36137C4.80478 5.28261 4.74092 5.21875 4.66215 5.21875C4.58339 5.21875 4.51953 5.28261 4.51953 5.36137C4.51953 5.44014 4.58339 5.504 4.66215 5.504Z" fill="#4D9356"/>
<path d="M5.41997 5.504C5.49873 5.504 5.56259 5.44014 5.56259 5.36137C5.56259 5.28261 5.49873 5.21875 5.41997 5.21875C5.3412 5.21875 5.27734 5.28261 5.27734 5.36137C5.27734 5.44014 5.3412 5.504 5.41997 5.504Z" fill="#4D9356"/>
<path d="M6.32431 5.36137C6.32431 5.45646 6.27677 5.504 6.18169 5.504C6.0866 5.504 6.03906 5.45646 6.03906 5.36137C6.03906 5.26629 6.0866 5.21875 6.18169 5.21875C6.27677 5.21875 6.32431 5.31383 6.32431 5.36137Z" fill="#4D9356"/>
<path d="M6.89653 5.504C6.9753 5.504 7.03915 5.44014 7.03915 5.36137C7.03915 5.28261 6.9753 5.21875 6.89653 5.21875C6.81776 5.21875 6.75391 5.28261 6.75391 5.36137C6.75391 5.44014 6.81776 5.504 6.89653 5.504Z" fill="#4D9356"/>
<path d="M7.65434 5.504C7.73311 5.504 7.79696 5.44014 7.79696 5.36137C7.79696 5.28261 7.73311 5.21875 7.65434 5.21875C7.57557 5.21875 7.51172 5.28261 7.51172 5.36137C7.51172 5.44014 7.57557 5.504 7.65434 5.504Z" fill="#4D9356"/>
<path d="M8.41606 5.504C8.49483 5.504 8.55868 5.44014 8.55868 5.36137C8.55868 5.28261 8.49483 5.21875 8.41606 5.21875C8.33729 5.21875 8.27344 5.28261 8.27344 5.36137C8.27344 5.44014 8.33729 5.504 8.41606 5.504Z" fill="#4D9356"/>
<path d="M3.13872 6.35946C3.21749 6.35946 3.28134 6.29561 3.28134 6.21684C3.28134 6.13807 3.21749 6.07422 3.13872 6.07422C3.05995 6.07422 2.99609 6.13807 2.99609 6.21684C2.99609 6.29561 3.05995 6.35946 3.13872 6.35946Z" fill="#4D9356"/>
<path d="M3.90044 6.35946C3.9792 6.35946 4.04306 6.29561 4.04306 6.21684C4.04306 6.13807 3.9792 6.07422 3.90044 6.07422C3.82167 6.07422 3.75781 6.13807 3.75781 6.21684C3.75781 6.29561 3.82167 6.35946 3.90044 6.35946Z" fill="#4D9356"/>
<path d="M4.66215 6.35946C4.74092 6.35946 4.80478 6.29561 4.80478 6.21684C4.80478 6.13807 4.74092 6.07422 4.66215 6.07422C4.58339 6.07422 4.51953 6.13807 4.51953 6.21684C4.51953 6.29561 4.58339 6.35946 4.66215 6.35946Z" fill="#4D9356"/>
<path d="M5.41997 6.35946C5.49873 6.35946 5.56259 6.29561 5.56259 6.21684C5.56259 6.13807 5.49873 6.07422 5.41997 6.07422C5.3412 6.07422 5.27734 6.13807 5.27734 6.21684C5.27734 6.29561 5.3412 6.35946 5.41997 6.35946Z" fill="#4D9356"/>
<path d="M6.13481 6.35946C6.21358 6.35946 6.27743 6.29561 6.27743 6.21684C6.27743 6.13807 6.21358 6.07422 6.13481 6.07422C6.05604 6.07422 5.99219 6.13807 5.99219 6.21684C5.99219 6.29561 6.05604 6.35946 6.13481 6.35946Z" fill="#4D9356"/>
<path d="M6.89653 6.35946C6.9753 6.35946 7.03915 6.29561 7.03915 6.21684C7.03915 6.13807 6.9753 6.07422 6.89653 6.07422C6.81776 6.07422 6.75391 6.13807 6.75391 6.21684C6.75391 6.29561 6.81776 6.35946 6.89653 6.35946Z" fill="#4D9356"/>
<path d="M7.65434 6.35946C7.73311 6.35946 7.79696 6.29561 7.79696 6.21684C7.79696 6.13807 7.73311 6.07422 7.65434 6.07422C7.57557 6.07422 7.51172 6.13807 7.51172 6.21684C7.51172 6.29561 7.57557 6.35946 7.65434 6.35946Z" fill="#4D9356"/>
<path d="M8.41606 6.35946C8.49483 6.35946 8.55868 6.29561 8.55868 6.21684C8.55868 6.13807 8.49483 6.07422 8.41606 6.07422C8.33729 6.07422 8.27344 6.13807 8.27344 6.21684C8.27344 6.29561 8.33729 6.35946 8.41606 6.35946Z" fill="#4D9356"/>
<path d="M3.13872 7.16806C3.21749 7.16806 3.28134 7.1042 3.28134 7.02544C3.28134 6.94667 3.21749 6.88281 3.13872 6.88281C3.05995 6.88281 2.99609 6.94667 2.99609 7.02544C2.99609 7.1042 3.05995 7.16806 3.13872 7.16806Z" fill="#4D9356"/>
<path d="M3.90044 7.16806C3.9792 7.16806 4.04306 7.1042 4.04306 7.02544C4.04306 6.94667 3.9792 6.88281 3.90044 6.88281C3.82167 6.88281 3.75781 6.94667 3.75781 7.02544C3.75781 7.1042 3.82167 7.16806 3.90044 7.16806Z" fill="#4D9356"/>
<path d="M4.66215 7.16806C4.74092 7.16806 4.80478 7.1042 4.80478 7.02544C4.80478 6.94667 4.74092 6.88281 4.66215 6.88281C4.58339 6.88281 4.51953 6.94667 4.51953 7.02544C4.51953 7.1042 4.58339 7.16806 4.66215 7.16806Z" fill="#4D9356"/>
<path d="M5.41997 7.16806C5.49873 7.16806 5.56259 7.1042 5.56259 7.02544C5.56259 6.94667 5.49873 6.88281 5.41997 6.88281C5.3412 6.88281 5.27734 6.94667 5.27734 7.02544C5.27734 7.1042 5.3412 7.16806 5.41997 7.16806Z" fill="#4D9356"/>
<path d="M6.13481 7.16806C6.21358 7.16806 6.27743 7.1042 6.27743 7.02544C6.27743 6.94667 6.21358 6.88281 6.13481 6.88281C6.05604 6.88281 5.99219 6.94667 5.99219 7.02544C5.99219 7.1042 6.05604 7.16806 6.13481 7.16806Z" fill="#4D9356"/>
<path d="M6.89653 7.16806C6.9753 7.16806 7.03915 7.1042 7.03915 7.02544C7.03915 6.94667 6.9753 6.88281 6.89653 6.88281C6.81776 6.88281 6.75391 6.94667 6.75391 7.02544C6.75391 7.1042 6.81776 7.16806 6.89653 7.16806Z" fill="#4D9356"/>
<path d="M7.65434 7.16806C7.73311 7.16806 7.79696 7.1042 7.79696 7.02544C7.79696 6.94667 7.73311 6.88281 7.65434 6.88281C7.57557 6.88281 7.51172 6.94667 7.51172 7.02544C7.51172 7.1042 7.57557 7.16806 7.65434 7.16806Z" fill="#4D9356"/>
<path d="M8.41606 7.16806C8.49483 7.16806 8.55868 7.1042 8.55868 7.02544C8.55868 6.94667 8.49483 6.88281 8.41606 6.88281C8.33729 6.88281 8.27344 6.94667 8.27344 7.02544C8.27344 7.1042 8.33729 7.16806 8.41606 7.16806Z" fill="#4D9356"/>
<path d="M3.13872 8.78525C3.21749 8.78525 3.28134 8.72139 3.28134 8.64262C3.28134 8.56386 3.21749 8.5 3.13872 8.5C3.05995 8.5 2.99609 8.56386 2.99609 8.64262C2.99609 8.72139 3.05995 8.78525 3.13872 8.78525Z" fill="#4D9356"/>
<path d="M3.90044 8.78525C3.9792 8.78525 4.04306 8.72139 4.04306 8.64262C4.04306 8.56386 3.9792 8.5 3.90044 8.5C3.82167 8.5 3.75781 8.56386 3.75781 8.64262C3.75781 8.72139 3.82167 8.78525 3.90044 8.78525Z" fill="#4D9356"/>
<path d="M4.66215 8.78525C4.74092 8.78525 4.80478 8.72139 4.80478 8.64262C4.80478 8.56386 4.74092 8.5 4.66215 8.5C4.58339 8.5 4.51953 8.56386 4.51953 8.64262C4.51953 8.72139 4.58339 8.78525 4.66215 8.78525Z" fill="#4D9356"/>
<path d="M5.41997 8.78525C5.49873 8.78525 5.56259 8.72139 5.56259 8.64262C5.56259 8.56386 5.49873 8.5 5.41997 8.5C5.3412 8.5 5.27734 8.56386 5.27734 8.64262C5.27734 8.72139 5.3412 8.78525 5.41997 8.78525Z" fill="#4D9356"/>
<path d="M6.32431 8.64262C6.32431 8.73771 6.27677 8.78525 6.18169 8.78525C6.0866 8.78525 6.03906 8.73771 6.03906 8.64262C6.03906 8.54754 6.0866 8.5 6.18169 8.5C6.27677 8.5 6.32431 8.59508 6.32431 8.64262Z" fill="#4D9356"/>
<path d="M6.89653 8.78525C6.9753 8.78525 7.03915 8.72139 7.03915 8.64262C7.03915 8.56386 6.9753 8.5 6.89653 8.5C6.81776 8.5 6.75391 8.56386 6.75391 8.64262C6.75391 8.72139 6.81776 8.78525 6.89653 8.78525Z" fill="#4D9356"/>
<path d="M7.65434 8.78525C7.73311 8.78525 7.79696 8.72139 7.79696 8.64262C7.79696 8.56386 7.73311 8.5 7.65434 8.5C7.57557 8.5 7.51172 8.56386 7.51172 8.64262C7.51172 8.72139 7.57557 8.78525 7.65434 8.78525Z" fill="#4D9356"/>
<path d="M8.41606 8.78525C8.49483 8.78525 8.55868 8.72139 8.55868 8.64262C8.55868 8.56386 8.49483 8.5 8.41606 8.5C8.33729 8.5 8.27344 8.56386 8.27344 8.64262C8.27344 8.72139 8.33729 8.78525 8.41606 8.78525Z" fill="#4D9356"/>
<path d="M3.13872 9.64072C3.21749 9.64072 3.28134 9.57686 3.28134 9.49809C3.28134 9.41932 3.21749 9.35547 3.13872 9.35547C3.05995 9.35547 2.99609 9.41932 2.99609 9.49809C2.99609 9.57686 3.05995 9.64072 3.13872 9.64072Z" fill="#4D9356"/>
<path d="M3.90044 9.64072C3.9792 9.64072 4.04306 9.57686 4.04306 9.49809C4.04306 9.41932 3.9792 9.35547 3.90044 9.35547C3.82167 9.35547 3.75781 9.41932 3.75781 9.49809C3.75781 9.57686 3.82167 9.64072 3.90044 9.64072Z" fill="#4D9356"/>
<path d="M4.66215 9.64072C4.74092 9.64072 4.80478 9.57686 4.80478 9.49809C4.80478 9.41932 4.74092 9.35547 4.66215 9.35547C4.58339 9.35547 4.51953 9.41932 4.51953 9.49809C4.51953 9.57686 4.58339 9.64072 4.66215 9.64072Z" fill="#4D9356"/>
<path d="M5.41997 9.64072C5.49873 9.64072 5.56259 9.57686 5.56259 9.49809C5.56259 9.41932 5.49873 9.35547 5.41997 9.35547C5.3412 9.35547 5.27734 9.41932 5.27734 9.49809C5.27734 9.57686 5.3412 9.64072 5.41997 9.64072Z" fill="#4D9356"/>
<path d="M6.13481 9.64072C6.21358 9.64072 6.27743 9.57686 6.27743 9.49809C6.27743 9.41932 6.21358 9.35547 6.13481 9.35547C6.05604 9.35547 5.99219 9.41932 5.99219 9.49809C5.99219 9.57686 6.05604 9.64072 6.13481 9.64072Z" fill="#4D9356"/>
<path d="M6.89653 9.64072C6.9753 9.64072 7.03915 9.57686 7.03915 9.49809C7.03915 9.41932 6.9753 9.35547 6.89653 9.35547C6.81776 9.35547 6.75391 9.41932 6.75391 9.49809C6.75391 9.57686 6.81776 9.64072 6.89653 9.64072Z" fill="#4D9356"/>
<path d="M7.65434 9.64072C7.73311 9.64072 7.79696 9.57686 7.79696 9.49809C7.79696 9.41932 7.73311 9.35547 7.65434 9.35547C7.57557 9.35547 7.51172 9.41932 7.51172 9.49809C7.51172 9.57686 7.57557 9.64072 7.65434 9.64072Z" fill="#4D9356"/>
<path d="M8.41606 9.64072C8.49483 9.64072 8.55868 9.57686 8.55868 9.49809C8.55868 9.41932 8.49483 9.35547 8.41606 9.35547C8.33729 9.35547 8.27344 9.41932 8.27344 9.49809C8.27344 9.57686 8.33729 9.64072 8.41606 9.64072Z" fill="#4D9356"/>
<path d="M3.13872 10.4474C3.21749 10.4474 3.28134 10.3835 3.28134 10.3047C3.28134 10.226 3.21749 10.1621 3.13872 10.1621C3.05995 10.1621 2.99609 10.226 2.99609 10.3047C2.99609 10.3835 3.05995 10.4474 3.13872 10.4474Z" fill="#4D9356"/>
<path d="M3.90044 10.4474C3.9792 10.4474 4.04306 10.3835 4.04306 10.3047C4.04306 10.226 3.9792 10.1621 3.90044 10.1621C3.82167 10.1621 3.75781 10.226 3.75781 10.3047C3.75781 10.3835 3.82167 10.4474 3.90044 10.4474Z" fill="#4D9356"/>
<path d="M4.66215 10.4474C4.74092 10.4474 4.80478 10.3835 4.80478 10.3047C4.80478 10.226 4.74092 10.1621 4.66215 10.1621C4.58339 10.1621 4.51953 10.226 4.51953 10.3047C4.51953 10.3835 4.58339 10.4474 4.66215 10.4474Z" fill="#4D9356"/>
<path d="M5.41997 10.4474C5.49873 10.4474 5.56259 10.3835 5.56259 10.3047C5.56259 10.226 5.49873 10.1621 5.41997 10.1621C5.3412 10.1621 5.27734 10.226 5.27734 10.3047C5.27734 10.3835 5.3412 10.4474 5.41997 10.4474Z" fill="#4D9356"/>
<path d="M6.13481 10.4474C6.21358 10.4474 6.27743 10.3835 6.27743 10.3047C6.27743 10.226 6.21358 10.1621 6.13481 10.1621C6.05604 10.1621 5.99219 10.226 5.99219 10.3047C5.99219 10.3835 6.05604 10.4474 6.13481 10.4474Z" fill="#4D9356"/>
<path d="M6.89653 10.4474C6.9753 10.4474 7.03915 10.3835 7.03915 10.3047C7.03915 10.226 6.9753 10.1621 6.89653 10.1621C6.81776 10.1621 6.75391 10.226 6.75391 10.3047C6.75391 10.3835 6.81776 10.4474 6.89653 10.4474Z" fill="#4D9356"/>
<path d="M7.65434 10.4474C7.73311 10.4474 7.79696 10.3835 7.79696 10.3047C7.79696 10.226 7.73311 10.1621 7.65434 10.1621C7.57557 10.1621 7.51172 10.226 7.51172 10.3047C7.51172 10.3835 7.57557 10.4474 7.65434 10.4474Z" fill="#4D9356"/>
<path d="M8.41606 10.4474C8.49483 10.4474 8.55868 10.3835 8.55868 10.3047C8.55868 10.226 8.49483 10.1621 8.41606 10.1621C8.33729 10.1621 8.27344 10.226 8.27344 10.3047C8.27344 10.3835 8.33729 10.4474 8.41606 10.4474Z" fill="#4D9356"/>
<path d="M20.5879 5.504C20.6667 5.504 20.7306 5.44014 20.7306 5.36137C20.7306 5.28261 20.6667 5.21875 20.5879 5.21875C20.5092 5.21875 20.4453 5.28261 20.4453 5.36137C20.4453 5.44014 20.5092 5.504 20.5879 5.504Z" fill="#4D9356"/>
<path d="M21.3457 5.504C21.4245 5.504 21.4884 5.44014 21.4884 5.36137C21.4884 5.28261 21.4245 5.21875 21.3457 5.21875C21.267 5.21875 21.2031 5.28261 21.2031 5.36137C21.2031 5.44014 21.267 5.504 21.3457 5.504Z" fill="#4D9356"/>
<path d="M22.1075 5.504C22.1862 5.504 22.2501 5.44014 22.2501 5.36137C22.2501 5.28261 22.1862 5.21875 22.1075 5.21875C22.0287 5.21875 21.9648 5.28261 21.9648 5.36137C21.9648 5.44014 22.0287 5.504 22.1075 5.504Z" fill="#4D9356"/>
<path d="M22.8692 5.504C22.948 5.504 23.0118 5.44014 23.0118 5.36137C23.0118 5.28261 22.948 5.21875 22.8692 5.21875C22.7904 5.21875 22.7266 5.28261 22.7266 5.36137C22.7266 5.44014 22.7904 5.504 22.8692 5.504Z" fill="#4D9356"/>
<path d="M23.7696 5.36137C23.7696 5.45646 23.7221 5.504 23.627 5.504C23.5319 5.504 23.4844 5.45646 23.4844 5.36137C23.4844 5.26629 23.5319 5.21875 23.627 5.21875C23.6745 5.21875 23.7696 5.31383 23.7696 5.36137Z" fill="#4D9356"/>
<path d="M24.3418 5.504C24.4206 5.504 24.4845 5.44014 24.4845 5.36137C24.4845 5.28261 24.4206 5.21875 24.3418 5.21875C24.2631 5.21875 24.1992 5.28261 24.1992 5.36137C24.1992 5.44014 24.2631 5.504 24.3418 5.504Z" fill="#4D9356"/>
<path d="M25.1036 5.504C25.1823 5.504 25.2462 5.44014 25.2462 5.36137C25.2462 5.28261 25.1823 5.21875 25.1036 5.21875C25.0248 5.21875 24.9609 5.28261 24.9609 5.36137C24.9609 5.44014 25.0248 5.504 25.1036 5.504Z" fill="#4D9356"/>
<path d="M25.8653 5.504C25.944 5.504 26.0079 5.44014 26.0079 5.36137C26.0079 5.28261 25.944 5.21875 25.8653 5.21875C25.7865 5.21875 25.7227 5.28261 25.7227 5.36137C25.7227 5.44014 25.7865 5.504 25.8653 5.504Z" fill="#4D9356"/>
<path d="M20.5879 6.35946C20.6667 6.35946 20.7306 6.29561 20.7306 6.21684C20.7306 6.13807 20.6667 6.07422 20.5879 6.07422C20.5092 6.07422 20.4453 6.13807 20.4453 6.21684C20.4453 6.29561 20.5092 6.35946 20.5879 6.35946Z" fill="#4D9356"/>
<path d="M21.3457 6.35946C21.4245 6.35946 21.4884 6.29561 21.4884 6.21684C21.4884 6.13807 21.4245 6.07422 21.3457 6.07422C21.267 6.07422 21.2031 6.13807 21.2031 6.21684C21.2031 6.29561 21.267 6.35946 21.3457 6.35946Z" fill="#4D9356"/>
<path d="M22.1075 6.35946C22.1862 6.35946 22.2501 6.29561 22.2501 6.21684C22.2501 6.13807 22.1862 6.07422 22.1075 6.07422C22.0287 6.07422 21.9648 6.13807 21.9648 6.21684C21.9648 6.29561 22.0287 6.35946 22.1075 6.35946Z" fill="#4D9356"/>
<path d="M22.8692 6.35946C22.948 6.35946 23.0118 6.29561 23.0118 6.21684C23.0118 6.13807 22.948 6.07422 22.8692 6.07422C22.7904 6.07422 22.7266 6.13807 22.7266 6.21684C22.7266 6.29561 22.7904 6.35946 22.8692 6.35946Z" fill="#4D9356"/>
<path d="M23.5801 6.35946C23.6589 6.35946 23.7227 6.29561 23.7227 6.21684C23.7227 6.13807 23.6589 6.07422 23.5801 6.07422C23.5014 6.07422 23.4375 6.13807 23.4375 6.21684C23.4375 6.29561 23.5014 6.35946 23.5801 6.35946Z" fill="#4D9356"/>
<path d="M24.3418 6.35946C24.4206 6.35946 24.4845 6.29561 24.4845 6.21684C24.4845 6.13807 24.4206 6.07422 24.3418 6.07422C24.2631 6.07422 24.1992 6.13807 24.1992 6.21684C24.1992 6.29561 24.2631 6.35946 24.3418 6.35946Z" fill="#4D9356"/>
<path d="M25.1036 6.35946C25.1823 6.35946 25.2462 6.29561 25.2462 6.21684C25.2462 6.13807 25.1823 6.07422 25.1036 6.07422C25.0248 6.07422 24.9609 6.13807 24.9609 6.21684C24.9609 6.29561 25.0248 6.35946 25.1036 6.35946Z" fill="#4D9356"/>
<path d="M25.8653 6.35946C25.944 6.35946 26.0079 6.29561 26.0079 6.21684C26.0079 6.13807 25.944 6.07422 25.8653 6.07422C25.7865 6.07422 25.7227 6.13807 25.7227 6.21684C25.7227 6.29561 25.7865 6.35946 25.8653 6.35946Z" fill="#4D9356"/>
<path d="M20.5879 7.16806C20.6667 7.16806 20.7306 7.1042 20.7306 7.02544C20.7306 6.94667 20.6667 6.88281 20.5879 6.88281C20.5092 6.88281 20.4453 6.94667 20.4453 7.02544C20.4453 7.1042 20.5092 7.16806 20.5879 7.16806Z" fill="#4D9356"/>
<path d="M21.3457 7.16806C21.4245 7.16806 21.4884 7.1042 21.4884 7.02544C21.4884 6.94667 21.4245 6.88281 21.3457 6.88281C21.267 6.88281 21.2031 6.94667 21.2031 7.02544C21.2031 7.1042 21.267 7.16806 21.3457 7.16806Z" fill="#4D9356"/>
<path d="M22.1075 7.16806C22.1862 7.16806 22.2501 7.1042 22.2501 7.02544C22.2501 6.94667 22.1862 6.88281 22.1075 6.88281C22.0287 6.88281 21.9648 6.94667 21.9648 7.02544C21.9648 7.1042 22.0287 7.16806 22.1075 7.16806Z" fill="#4D9356"/>
<path d="M22.8692 7.16806C22.948 7.16806 23.0118 7.1042 23.0118 7.02544C23.0118 6.94667 22.948 6.88281 22.8692 6.88281C22.7904 6.88281 22.7266 6.94667 22.7266 7.02544C22.7266 7.1042 22.7904 7.16806 22.8692 7.16806Z" fill="#4D9356"/>
<path d="M23.5801 7.16806C23.6589 7.16806 23.7227 7.1042 23.7227 7.02544C23.7227 6.94667 23.6589 6.88281 23.5801 6.88281C23.5014 6.88281 23.4375 6.94667 23.4375 7.02544C23.4375 7.1042 23.5014 7.16806 23.5801 7.16806Z" fill="#4D9356"/>
<path d="M24.3418 7.16806C24.4206 7.16806 24.4845 7.1042 24.4845 7.02544C24.4845 6.94667 24.4206 6.88281 24.3418 6.88281C24.2631 6.88281 24.1992 6.94667 24.1992 7.02544C24.1992 7.1042 24.2631 7.16806 24.3418 7.16806Z" fill="#4D9356"/>
<path d="M25.1036 7.16806C25.1823 7.16806 25.2462 7.1042 25.2462 7.02544C25.2462 6.94667 25.1823 6.88281 25.1036 6.88281C25.0248 6.88281 24.9609 6.94667 24.9609 7.02544C24.9609 7.1042 25.0248 7.16806 25.1036 7.16806Z" fill="#4D9356"/>
<path d="M25.8653 7.16806C25.944 7.16806 26.0079 7.1042 26.0079 7.02544C26.0079 6.94667 25.944 6.88281 25.8653 6.88281C25.7865 6.88281 25.7227 6.94667 25.7227 7.02544C25.7227 7.1042 25.7865 7.16806 25.8653 7.16806Z" fill="#4D9356"/>
<path d="M20.5879 8.78525C20.6667 8.78525 20.7306 8.72139 20.7306 8.64262C20.7306 8.56386 20.6667 8.5 20.5879 8.5C20.5092 8.5 20.4453 8.56386 20.4453 8.64262C20.4453 8.72139 20.5092 8.78525 20.5879 8.78525Z" fill="#4D9356"/>
<path d="M21.3457 8.78525C21.4245 8.78525 21.4884 8.72139 21.4884 8.64262C21.4884 8.56386 21.4245 8.5 21.3457 8.5C21.267 8.5 21.2031 8.56386 21.2031 8.64262C21.2031 8.72139 21.267 8.78525 21.3457 8.78525Z" fill="#4D9356"/>
<path d="M22.1075 8.78525C22.1862 8.78525 22.2501 8.72139 22.2501 8.64262C22.2501 8.56386 22.1862 8.5 22.1075 8.5C22.0287 8.5 21.9648 8.56386 21.9648 8.64262C21.9648 8.72139 22.0287 8.78525 22.1075 8.78525Z" fill="#4D9356"/>
<path d="M22.8692 8.78525C22.948 8.78525 23.0118 8.72139 23.0118 8.64262C23.0118 8.56386 22.948 8.5 22.8692 8.5C22.7904 8.5 22.7266 8.56386 22.7266 8.64262C22.7266 8.72139 22.7904 8.78525 22.8692 8.78525Z" fill="#4D9356"/>
<path d="M23.7696 8.64262C23.7696 8.73771 23.7221 8.78525 23.627 8.78525C23.5319 8.78525 23.4844 8.73771 23.4844 8.64262C23.4844 8.54754 23.5319 8.5 23.5795 8.5C23.6745 8.5 23.7696 8.59508 23.7696 8.64262Z" fill="#4D9356"/>
<path d="M24.3418 8.78525C24.4206 8.78525 24.4845 8.72139 24.4845 8.64262C24.4845 8.56386 24.4206 8.5 24.3418 8.5C24.2631 8.5 24.1992 8.56386 24.1992 8.64262C24.1992 8.72139 24.2631 8.78525 24.3418 8.78525Z" fill="#4D9356"/>
<path d="M25.1036 8.78525C25.1823 8.78525 25.2462 8.72139 25.2462 8.64262C25.2462 8.56386 25.1823 8.5 25.1036 8.5C25.0248 8.5 24.9609 8.56386 24.9609 8.64262C24.9609 8.72139 25.0248 8.78525 25.1036 8.78525Z" fill="#4D9356"/>
<path d="M25.8653 8.78525C25.944 8.78525 26.0079 8.72139 26.0079 8.64262C26.0079 8.56386 25.944 8.5 25.8653 8.5C25.7865 8.5 25.7227 8.56386 25.7227 8.64262C25.7227 8.72139 25.7865 8.78525 25.8653 8.78525Z" fill="#4D9356"/>
<path d="M20.5879 9.64072C20.6667 9.64072 20.7306 9.57686 20.7306 9.49809C20.7306 9.41932 20.6667 9.35547 20.5879 9.35547C20.5092 9.35547 20.4453 9.41932 20.4453 9.49809C20.4453 9.57686 20.5092 9.64072 20.5879 9.64072Z" fill="#4D9356"/>
<path d="M21.3457 9.64072C21.4245 9.64072 21.4884 9.57686 21.4884 9.49809C21.4884 9.41932 21.4245 9.35547 21.3457 9.35547C21.267 9.35547 21.2031 9.41932 21.2031 9.49809C21.2031 9.57686 21.267 9.64072 21.3457 9.64072Z" fill="#4D9356"/>
<path d="M22.1075 9.64072C22.1862 9.64072 22.2501 9.57686 22.2501 9.49809C22.2501 9.41932 22.1862 9.35547 22.1075 9.35547C22.0287 9.35547 21.9648 9.41932 21.9648 9.49809C21.9648 9.57686 22.0287 9.64072 22.1075 9.64072Z" fill="#4D9356"/>
<path d="M22.8692 9.64072C22.948 9.64072 23.0118 9.57686 23.0118 9.49809C23.0118 9.41932 22.948 9.35547 22.8692 9.35547C22.7904 9.35547 22.7266 9.41932 22.7266 9.49809C22.7266 9.57686 22.7904 9.64072 22.8692 9.64072Z" fill="#4D9356"/>
<path d="M23.5801 9.64072C23.6589 9.64072 23.7227 9.57686 23.7227 9.49809C23.7227 9.41932 23.6589 9.35547 23.5801 9.35547C23.5014 9.35547 23.4375 9.41932 23.4375 9.49809C23.4375 9.57686 23.5014 9.64072 23.5801 9.64072Z" fill="#4D9356"/>
<path d="M24.3418 9.64072C24.4206 9.64072 24.4845 9.57686 24.4845 9.49809C24.4845 9.41932 24.4206 9.35547 24.3418 9.35547C24.2631 9.35547 24.1992 9.41932 24.1992 9.49809C24.1992 9.57686 24.2631 9.64072 24.3418 9.64072Z" fill="#4D9356"/>
<path d="M25.1036 9.64072C25.1823 9.64072 25.2462 9.57686 25.2462 9.49809C25.2462 9.41932 25.1823 9.35547 25.1036 9.35547C25.0248 9.35547 24.9609 9.41932 24.9609 9.49809C24.9609 9.57686 25.0248 9.64072 25.1036 9.64072Z" fill="#4D9356"/>
<path d="M25.8653 9.64072C25.944 9.64072 26.0079 9.57686 26.0079 9.49809C26.0079 9.41932 25.944 9.35547 25.8653 9.35547C25.7865 9.35547 25.7227 9.41932 25.7227 9.49809C25.7227 9.57686 25.7865 9.64072 25.8653 9.64072Z" fill="#4D9356"/>
<path d="M20.5879 10.4474C20.6667 10.4474 20.7306 10.3835 20.7306 10.3047C20.7306 10.226 20.6667 10.1621 20.5879 10.1621C20.5092 10.1621 20.4453 10.226 20.4453 10.3047C20.4453 10.3835 20.5092 10.4474 20.5879 10.4474Z" fill="#4D9356"/>
<path d="M21.3457 10.4474C21.4245 10.4474 21.4884 10.3835 21.4884 10.3047C21.4884 10.226 21.4245 10.1621 21.3457 10.1621C21.267 10.1621 21.2031 10.226 21.2031 10.3047C21.2031 10.3835 21.267 10.4474 21.3457 10.4474Z" fill="#4D9356"/>
<path d="M22.1075 10.4474C22.1862 10.4474 22.2501 10.3835 22.2501 10.3047C22.2501 10.226 22.1862 10.1621 22.1075 10.1621C22.0287 10.1621 21.9648 10.226 21.9648 10.3047C21.9648 10.3835 22.0287 10.4474 22.1075 10.4474Z" fill="#4D9356"/>
<path d="M22.8692 10.4474C22.948 10.4474 23.0118 10.3835 23.0118 10.3047C23.0118 10.226 22.948 10.1621 22.8692 10.1621C22.7904 10.1621 22.7266 10.226 22.7266 10.3047C22.7266 10.3835 22.7904 10.4474 22.8692 10.4474Z" fill="#4D9356"/>
<path d="M23.5801 10.4474C23.6589 10.4474 23.7227 10.3835 23.7227 10.3047C23.7227 10.226 23.6589 10.1621 23.5801 10.1621C23.5014 10.1621 23.4375 10.226 23.4375 10.3047C23.4375 10.3835 23.5014 10.4474 23.5801 10.4474Z" fill="#4D9356"/>
<path d="M24.3418 10.4474C24.4206 10.4474 24.4845 10.3835 24.4845 10.3047C24.4845 10.226 24.4206 10.1621 24.3418 10.1621C24.2631 10.1621 24.1992 10.226 24.1992 10.3047C24.1992 10.3835 24.2631 10.4474 24.3418 10.4474Z" fill="#4D9356"/>
<path d="M25.1036 10.4474C25.1823 10.4474 25.2462 10.3835 25.2462 10.3047C25.2462 10.226 25.1823 10.1621 25.1036 10.1621C25.0248 10.1621 24.9609 10.226 24.9609 10.3047C24.9609 10.3835 25.0248 10.4474 25.1036 10.4474Z" fill="#4D9356"/>
<path d="M25.8653 10.4474C25.944 10.4474 26.0079 10.3835 26.0079 10.3047C26.0079 10.226 25.944 10.1621 25.8653 10.1621C25.7865 10.1621 25.7227 10.226 25.7227 10.3047C25.7227 10.3835 25.7865 10.4474 25.8653 10.4474Z" fill="#4D9356"/>
</svg>
