<svg width="13" height="21" viewBox="0 0 13 21" fill="none" xmlns="http://www.w3.org/2000/svg">
<path d="M6.49805 8.2461C4.38396 8.2461 2.66406 6.52621 2.66406 4.41211C2.66406 2.29802 4.38396 0.578125 6.49805 0.578125C8.61215 0.578125 10.3323 2.29802 10.3323 4.41211C10.3323 6.52621 8.61215 8.2461 6.49805 8.2461ZM6.49805 2.12142C5.23497 2.12142 4.20736 3.14904 4.20736 4.41211C4.20736 5.67519 5.23497 6.70281 6.49805 6.70281C7.76113 6.70281 8.78897 5.67519 8.78897 4.41211C8.78897 3.14904 7.76113 2.12142 6.49805 2.12142Z" fill="#FCFCFC"/>
<path d="M11.8817 20.4214C11.4555 20.4214 11.11 20.0759 11.11 19.6497V14.1944C11.11 12.5894 9.80416 11.2835 8.19913 11.2835H4.79792C3.1929 11.2835 1.88705 12.5894 1.88705 14.1944V19.6497C1.88705 20.0759 1.54157 20.4214 1.1154 20.4214C0.689228 20.4214 0.34375 20.0759 0.34375 19.6497V14.1944C0.34375 11.7384 2.34188 9.74023 4.79792 9.74023H8.19913C10.6552 9.74023 12.6533 11.7384 12.6533 14.1944V19.6497C12.6533 20.0759 12.3078 20.4214 11.8817 20.4214Z" fill="#FCFCFC"/>
<path d="M8.38076 15.5076H7.27179V14.3986C7.27179 13.9724 6.92631 13.627 6.50014 13.627C6.07397 13.627 5.72849 13.9724 5.72849 14.3986V15.5076H4.6193C4.19313 15.5076 3.84766 15.853 3.84766 16.2792C3.84766 16.7054 4.19313 17.0509 4.6193 17.0509H5.72849V18.1601C5.72849 18.5862 6.07397 18.9317 6.50014 18.9317C6.92631 18.9317 7.27179 18.5862 7.27179 18.1601V17.0509H8.38076C8.80693 17.0509 9.15241 16.7054 9.15241 16.2792C9.15241 15.853 8.80693 15.5076 8.38076 15.5076Z" fill="#FCFCFC"/>
</svg>
