<svg width="18" height="21" viewBox="0 0 18 21" fill="none" xmlns="http://www.w3.org/2000/svg">
<path d="M0.5 3.37305V6.19V20.4999H17.5V6.19V3.37305H0.5Z" fill="#D62E2E"/>
<path d="M6.32222 0.5H4.01172V4.18613H6.32222V0.5Z" fill="#FF0101"/>
<path d="M13.9882 0.5H11.6777V4.18613H13.9882V0.5Z" fill="#FF0101"/>
<path d="M14.0704 9.89638C13.9336 9.7585 13.7119 9.7585 13.5751 9.89638L7.47268 16.0444L4.42417 12.9731C4.28731 12.8352 4.06568 12.8352 3.92882 12.9731C3.79196 13.111 3.79196 13.3343 3.92882 13.4722L7.22489 16.7929C7.29332 16.8618 7.383 16.8962 7.47268 16.8962C7.56237 16.8962 7.65205 16.8618 7.72048 16.7929L14.0704 10.3954C14.2073 10.2576 14.2073 10.0343 14.0704 9.89638Z" fill="white" fill-opacity="0.8"/>
<path d="M17.4998 3.37305H0.5V6.19H17.4998V3.37305Z" fill="#FF7C7C"/>
</svg>
