<svg width="24" height="24" viewBox="0 0 24 24" fill="none" xmlns="http://www.w3.org/2000/svg">
<g clip-path="url(#clip0_1610_71831)">
<path d="M23.4565 10.478L23.247 10.2341C22.7841 9.69319 22.4926 8.60556 22.623 7.90575L22.6824 7.58971C22.782 7.06052 22.6787 6.4958 22.3923 5.99999C22.1059 5.50413 21.6686 5.1324 21.1611 4.95371L20.8571 4.84678C20.1855 4.61062 19.3893 3.8141 19.1528 3.1425L19.0459 2.83926C18.728 1.93613 17.7869 1.28066 16.8069 1.28066C16.6736 1.28066 16.5402 1.29313 16.4106 1.31727L16.0942 1.37662C15.9821 1.39748 15.8569 1.40812 15.7229 1.40812C15.0322 1.40812 14.209 1.13235 13.7659 0.7526L13.522 0.543485C13.1132 0.192943 12.5727 0 12 0C11.4272 0 10.8867 0.192943 10.478 0.543438L10.2341 0.752928C9.79097 1.13235 8.96773 1.40812 8.27706 1.40812C8.14229 1.40812 8.01778 1.39748 7.9057 1.37662L7.58933 1.31727C7.46042 1.29308 7.3264 1.28104 7.19234 1.28104C6.21309 1.28104 5.2719 1.93618 4.95404 2.83926L4.84711 3.14287C4.61057 3.8141 3.81442 4.61067 3.14208 4.84683L2.83883 4.95375C2.33126 5.13245 1.89399 5.50418 1.60758 6.00004C1.32126 6.49585 1.21869 7.06057 1.31685 7.58975L1.3769 7.90579C1.50726 8.60561 1.21574 9.69361 0.752881 10.2338L0.543391 10.478C0.193318 10.8871 0 11.4276 0 12C0 12.5728 0.193318 13.1132 0.543438 13.522L0.752928 13.7659C1.21583 14.3063 1.50736 15.394 1.37695 16.0942L1.3169 16.4106C1.21874 16.9394 1.3213 17.5041 1.60763 18C1.89399 18.4958 2.3313 18.8672 2.83888 19.0459L3.14212 19.1528C3.81447 19.3893 4.61062 20.1854 4.84716 20.8571L4.95408 21.161C5.27195 22.0634 6.21314 22.7189 7.19313 22.7189C7.32715 22.7189 7.46047 22.7064 7.58938 22.6823L7.90575 22.6229C8.01783 22.6024 8.14233 22.5922 8.2771 22.5922C8.96778 22.5922 9.79102 22.8676 10.2334 23.2469L10.478 23.4564C10.8868 23.8065 11.4272 23.9999 12 23.9999C12.5728 23.9999 13.1133 23.8065 13.522 23.4564L13.7659 23.2469C14.209 22.8676 15.0322 22.5922 15.7229 22.5922C15.8577 22.5922 15.9822 22.6024 16.0943 22.6229L16.4099 22.683C16.5396 22.7064 16.6728 22.7189 16.8069 22.7189C17.7869 22.7189 18.728 22.0634 19.0459 21.161L19.1528 20.8571C19.3894 20.1854 20.1856 19.3893 20.8572 19.1528L21.1611 19.0459C21.6687 18.8672 22.1059 18.4958 22.3923 18C22.6787 17.5041 22.7813 16.9394 22.6824 16.4106L22.6231 16.0942C22.4927 15.394 22.7842 14.3063 23.2471 13.7666L23.4566 13.522C23.8066 13.1132 24 12.5728 24 12C24 11.4276 23.8066 10.8871 23.4565 10.478Z" fill="#323376"/>
<path d="M8.99978 11.5003C10.3804 11.5003 11.4995 10.3808 11.4995 9.00015C11.4995 7.61955 10.3804 6.5 8.99978 6.5C7.61917 6.5 6.5 7.61955 6.5 9.00015C6.5 10.3808 7.61917 11.5003 8.99978 11.5003ZM8.99978 7.50015C9.82668 7.50015 10.4998 8.1732 10.4998 9.00015C10.4998 9.82738 9.82668 10.5001 8.99978 10.5001C8.17283 10.5001 7.49978 9.82738 7.49978 9.00015C7.49978 8.1732 8.17283 7.50015 8.99978 7.50015Z" fill="#F08A61"/>
<path d="M14.9998 12.5C13.6192 12.5 12.5 13.6195 12.5 15.0001C12.5 16.3807 13.6192 17.5006 14.9998 17.5006C16.3804 17.5006 17.4995 16.3807 17.4995 15.0001C17.4995 13.6195 16.3804 12.5 14.9998 12.5ZM14.9998 16.5001C14.1729 16.5001 13.4998 15.8278 13.4998 15.0001C13.4998 14.1725 14.1729 13.5001 14.9998 13.5001C15.8267 13.5001 16.4998 14.1725 16.4998 15.0001C16.4998 15.8278 15.8267 16.5001 14.9998 16.5001Z" fill="#F08A61"/>
<path d="M17.3531 7.35367C17.4439 7.26319 17.4995 7.13832 17.4995 7.00026C17.4995 6.72412 17.2761 6.5 17 6.5C16.8616 6.5 16.7371 6.55602 16.6463 6.64649L6.64649 16.6466C6.55564 16.7375 6.5 16.862 6.5 16.9996C6.5 17.2765 6.72341 17.5006 6.99951 17.5006C7.13794 17.5006 7.26244 17.4442 7.35329 17.3541L17.3531 7.35367Z" fill="#F08A61"/>
</g>
<defs>
<clipPath id="clip0_1610_71831">
<rect width="24" height="24" fill="white"/>
</clipPath>
</defs>
</svg>
