<svg width="27" height="27" viewBox="0 0 27 27" fill="none" xmlns="http://www.w3.org/2000/svg">
<rect width="27" height="27" rx="4" fill="#7C91DE"/>
<path d="M10.625 12.542V6.79199L13.5 3.91699L16.375 6.79199V8.70866H22.125V22.1253H4.875V12.542H10.625ZM18.2917 20.2087H20.2083V18.292H18.2917V20.2087ZM18.2917 16.3753H20.2083V14.4587H18.2917V16.3753ZM18.2917 12.542H20.2083V10.6253H18.2917V12.542ZM12.5417 20.2087H14.4583V18.292H12.5417V20.2087ZM12.5417 16.3753H14.4583V14.4587H12.5417V16.3753ZM12.5417 12.542H14.4583V10.6253H12.5417V12.542ZM12.5417 8.70866H14.4583V6.79199H12.5417V8.70866ZM6.79167 20.2087H8.70833V18.292H6.79167V20.2087ZM6.79167 16.3753H8.70833V14.4587H6.79167V16.3753Z" fill="#F2F4FC"/>
</svg>
