<svg width="24" height="24" viewBox="0 0 24 24" fill="none" xmlns="http://www.w3.org/2000/svg">
<g clip-path="url(#clip0_1610_71844)">
<path d="M12 0C5.38322 0 0 5.38322 0 12C0 18.6168 5.38322 24 12 24C18.6168 24 24 18.6168 24 12C24 5.38322 18.6168 0 12 0Z" fill="#505AC9"/>
<path d="M12 24C18.6168 24 24 18.6168 24 12C24 5.38322 18.6168 0 12 0" fill="#505AC9"/>
<path d="M11.999 2.92773C6.99598 2.92773 2.92578 6.99794 2.92578 12.0009C2.92578 17.0039 6.99598 21.0741 11.999 21.0741C17.0019 21.0741 21.0721 17.0039 21.0721 12.0009C21.0721 6.99794 17.0019 2.92773 11.999 2.92773Z" fill="#222249"/>
<path d="M12 21.0741C17.003 21.0741 21.0732 17.0039 21.0732 12.0009C21.0732 6.99794 17.003 2.92773 12 2.92773" fill="#222249"/>
<path d="M16.8582 5.41797L15.3413 4.5332L12.01 10.2442C12.0073 10.2441 12.0047 10.2439 12.0022 10.2439C11.0323 10.2439 10.2461 11.0302 10.2461 12C10.2461 12.9698 11.0323 13.756 12.0022 13.756C12.972 13.756 13.7583 12.9698 13.7583 11.9999C13.7583 11.6828 13.6738 11.3856 13.5268 11.1289L16.8582 5.41797Z" fill="white"/>
<path d="M11.9992 3.80495C12.4841 3.80495 12.8772 3.41183 12.8772 2.92689C12.8772 2.44195 12.4841 2.04883 11.9992 2.04883C11.5142 2.04883 11.1211 2.44195 11.1211 2.92689C11.1211 3.41183 11.5142 3.80495 11.9992 3.80495Z" fill="white"/>
<path d="M4.14369 8.34206C4.62863 8.34206 5.02175 7.94894 5.02175 7.464C5.02175 6.97906 4.62863 6.58594 4.14369 6.58594C3.65875 6.58594 3.26562 6.97906 3.26562 7.464C3.26562 7.94894 3.65875 8.34206 4.14369 8.34206Z" fill="white"/>
<path d="M4.14369 17.4143C4.62863 17.4143 5.02175 17.0212 5.02175 16.5363C5.02175 16.0513 4.62863 15.6582 4.14369 15.6582C3.65875 15.6582 3.26562 16.0513 3.26562 16.5363C3.26562 17.0212 3.65875 17.4143 4.14369 17.4143Z" fill="white"/>
<path d="M19.8585 17.4143C20.3435 17.4143 20.7366 17.0212 20.7366 16.5363C20.7366 16.0513 20.3435 15.6582 19.8585 15.6582C19.3736 15.6582 18.9805 16.0513 18.9805 16.5363C18.9805 17.0212 19.3736 17.4143 19.8585 17.4143Z" fill="white"/>
<path d="M19.8585 8.34206C20.3435 8.34206 20.7366 7.94894 20.7366 7.464C20.7366 6.97906 20.3435 6.58594 19.8585 6.58594C19.3736 6.58594 18.9805 6.97906 18.9805 7.464C18.9805 7.94894 19.3736 8.34206 19.8585 8.34206Z" fill="white"/>
<path d="M14.3431 16.9766H9.66016V18.7326H14.3431V16.9766Z" fill="white"/>
</g>
<defs>
<clipPath id="clip0_1610_71844">
<rect width="24" height="24" fill="white"/>
</clipPath>
</defs>
</svg>
