<svg width="33" height="22" viewBox="0 0 33 22" fill="none" xmlns="http://www.w3.org/2000/svg">
<path d="M2.95625 0.00162869C2.74816 0.00188327 2.54007 0.00325865 2.332 0.00575404C2.12575 0.012629 1.91537 0.023629 1.7105 0.060754C1.40088 0.109684 1.1073 0.231428 0.853908 0.41597C0.600522 0.600512 0.394571 0.842578 0.253 1.12225C0.15675 1.312 0.09625 1.5045 0.0605 1.7135C0.022 1.917 0.009625 2.126 0.0055 2.33225C0.00268511 2.42802 0.000851685 2.52382 0 2.61963L0 18.5105C0 18.6067 0.00275 18.7003 0.004125 18.7951C0.009625 19.0014 0.022 19.2118 0.059125 19.4166C0.09625 19.6229 0.158125 19.8168 0.254375 20.0065C0.44398 20.3798 0.747336 20.6831 1.12062 20.8727C1.31037 20.969 1.50288 21.0309 1.71188 21.068C1.91538 21.1051 2.12438 21.1175 2.33063 21.123L2.61662 21.1271H30.3834L30.668 21.123C30.8743 21.1175 31.0846 21.1051 31.2895 21.068C31.4958 21.0309 31.6896 20.9704 31.878 20.8741C32.2522 20.6847 32.5562 20.3807 32.7456 20.0065C32.8419 19.8168 32.9037 19.6243 32.9395 19.4153C32.9766 19.2118 32.989 19.0027 32.9945 18.7965C32.9973 18.7002 32.9986 18.6067 32.9986 18.5105L33 18.1723V2.61825C33 2.522 32.9973 2.4285 32.9945 2.33363C32.9919 2.12537 32.9735 1.91761 32.9395 1.71213C32.8737 1.29806 32.6787 0.915382 32.3824 0.618794C32.086 0.322206 31.7035 0.126887 31.2895 0.060754C31.084 0.0268711 30.8763 0.008486 30.668 0.00575404C30.4604 -0.000122483 30.2528 -0.00149816 30.0451 0.00162869H2.95625ZM2.95625 0.705629H30.3765C30.4672 0.705629 30.5566 0.708379 30.6474 0.709754C30.8055 0.715254 30.9911 0.723503 31.163 0.753753C31.3129 0.781253 31.438 0.822504 31.5576 0.883004C31.7988 1.00544 31.9948 1.20143 32.1172 1.44263C32.1803 1.56727 32.2238 1.70082 32.2465 1.83863C32.2767 2.00775 32.285 2.19338 32.2891 2.35288C32.2919 2.44225 32.2933 2.53163 32.2933 2.62375V18.5078C32.2933 18.5971 32.2932 18.6865 32.2891 18.7773C32.285 18.9354 32.2768 19.121 32.2451 19.2929C32.2154 19.4952 32.1374 19.6874 32.0177 19.8533C31.8981 20.0191 31.7403 20.1537 31.5576 20.2458C31.4338 20.3084 31.3012 20.352 31.1644 20.375C30.9947 20.402 30.8233 20.4167 30.6515 20.419L30.3765 20.4231H2.62075C2.53 20.4231 2.43788 20.4204 2.35125 20.419C2.17854 20.4168 2.00622 20.4021 1.83563 20.375C1.68575 20.3475 1.56063 20.3063 1.43963 20.2458C1.19843 20.1238 1.00274 19.9276 0.881375 19.6861C0.818549 19.5614 0.774972 19.4279 0.752125 19.2901C0.724818 19.1205 0.710111 18.9491 0.708125 18.7773C0.706281 18.687 0.705364 18.5967 0.705375 18.5064V2.62238C0.705375 2.533 0.705375 2.44225 0.708125 2.3515C0.713625 2.19475 0.721875 2.0105 0.752125 1.83588C0.779625 1.68738 0.820875 1.56225 0.881375 1.44125C1.00389 1.20045 1.1999 1.00493 1.441 0.883004C1.56548 0.820766 1.69845 0.777214 1.83563 0.753753C2.0075 0.723503 2.19313 0.713879 2.35125 0.709754C2.44063 0.707004 2.53138 0.707004 2.62075 0.705629H2.95625ZM9.4325 5.79313C9.02 5.81513 8.514 6.06675 8.2225 6.42013C7.95988 6.72263 7.7275 7.21763 7.788 7.68238C8.25275 7.72363 8.71613 7.45 9.009 7.10763C9.29088 6.75288 9.48338 6.2785 9.4325 5.7945V5.79313ZM12.4671 6.37063V13.9235H13.6386V11.3426H15.2611C16.7434 11.3426 17.7843 10.3265 17.7843 8.85113C17.7843 7.37988 16.764 6.36925 15.2983 6.36925L12.4671 6.37063ZM13.6386 7.35925H14.9889C16.005 7.35925 16.5853 7.90375 16.5853 8.85663C16.5853 9.80813 16.005 10.3581 14.9847 10.3581H13.6386V7.35925ZM9.30187 7.77175C8.68312 7.7855 8.16063 8.15675 7.85813 8.15675C7.535 8.15675 7.04275 7.79375 6.50925 7.80338C6.16221 7.81204 5.82349 7.91141 5.52678 8.09161C5.23006 8.27181 4.9857 8.52655 4.818 8.8305C4.09337 10.079 4.62688 11.9311 5.33225 12.9486C5.67463 13.4519 6.08713 14.006 6.63025 13.9854C7.14313 13.9661 7.34525 13.6526 7.96813 13.6526C8.59238 13.6526 8.77388 13.9854 9.31563 13.9758C9.87938 13.9661 10.2328 13.4725 10.5738 12.9679C10.967 12.3945 11.1279 11.8404 11.1375 11.8115C11.1279 11.8005 10.0512 11.388 10.0416 10.1491C10.0306 9.11238 10.8873 8.61875 10.9271 8.5885C10.4431 7.8735 9.68962 7.79375 9.42837 7.77313C9.38626 7.77048 9.34406 7.77094 9.30187 7.77175ZM20.5824 8.31763C19.2211 8.31763 18.3741 9.0505 18.3109 10.0446H19.3792C19.4782 9.55238 19.8866 9.23888 20.5411 9.23888C21.2314 9.23888 21.6452 9.60463 21.6452 10.2165V10.6414L20.1369 10.7294C18.8293 10.8036 18.0909 11.3949 18.0909 12.3574C18.0909 13.3474 18.8444 14.017 19.9224 14.017C20.6456 14.017 21.3414 13.6306 21.6604 13.0174H21.6865V13.9235H22.77V10.1285C22.77 9.02438 21.9175 8.31763 20.5824 8.31763ZM23.2499 8.41663L25.2381 13.929C25.2381 13.9331 25.1377 14.259 25.1377 14.2686C24.9659 14.8324 24.684 15.0538 24.1601 15.0538C24.0652 15.0538 23.8769 15.0538 23.793 15.0331V15.9489C23.8755 15.964 24.1601 15.975 24.2536 15.975C25.3949 15.975 25.9394 15.546 26.4096 14.2109L28.4721 8.41663H27.2786L25.8871 12.8978H25.8665L24.4736 8.41525L23.2499 8.41663ZM21.6452 11.4265V11.861C21.6452 12.5774 21.0265 13.1219 20.2373 13.1219C19.6295 13.1219 19.2321 12.8084 19.2321 12.3258C19.2321 11.8555 19.6144 11.5558 20.2895 11.5104L21.6452 11.4265Z" fill="#313131"/>
</svg>
