<svg width="25" height="24" viewBox="0 0 25 24" fill="none" xmlns="http://www.w3.org/2000/svg">
<path d="M6.97 16.64C7.22461 16.5657 7.49829 16.5957 7.73083 16.7232C7.96338 16.8507 8.13574 17.0654 8.21 17.32C8.28426 17.5746 8.25434 17.8483 8.12681 18.0808C7.99929 18.3134 7.78461 18.4857 7.53 18.56C7.03 18.706 6.67 18.86 6.439 19C6.677 19.143 7.053 19.303 7.575 19.452C8.73 19.782 10.383 20 12.25 20C14.117 20 15.77 19.782 16.925 19.452C17.448 19.303 17.823 19.143 18.061 19C17.831 18.86 17.471 18.706 16.971 18.56C16.7204 18.4825 16.5103 18.3096 16.386 18.0786C16.2617 17.8476 16.2331 17.577 16.3064 17.3251C16.3798 17.0733 16.5491 16.8603 16.778 16.7321C17.0069 16.604 17.2769 16.5709 17.53 16.64C18.198 16.835 18.81 17.085 19.28 17.406C19.715 17.705 20.25 18.226 20.25 19C20.25 19.783 19.702 20.308 19.26 20.607C18.782 20.929 18.157 21.18 17.474 21.375C16.096 21.77 14.25 22 12.25 22C10.25 22 8.404 21.77 7.026 21.375C6.343 21.18 5.718 20.929 5.24 20.607C4.798 20.307 4.25 19.783 4.25 19C4.25 18.226 4.785 17.705 5.22 17.406C5.69 17.085 6.302 16.835 6.97 16.64ZM12.25 2C14.2391 2 16.1468 2.79018 17.5533 4.1967C18.9598 5.60322 19.75 7.51088 19.75 9.5C19.75 12.068 18.35 14.156 16.9 15.64C16.3236 16.2239 15.7042 16.7638 15.047 17.255C14.453 17.701 13.095 18.537 13.095 18.537C12.8374 18.6834 12.5463 18.7604 12.25 18.7604C11.9537 18.7604 11.6626 18.6834 11.405 18.537C10.7308 18.1467 10.0791 17.7187 9.453 17.255C8.79554 16.7641 8.17611 16.2242 7.6 15.64C6.15 14.156 4.75 12.068 4.75 9.5C4.75 7.51088 5.54018 5.60322 6.9467 4.1967C8.35322 2.79018 10.2609 2 12.25 2ZM12.25 4C10.7913 4 9.39236 4.57946 8.36091 5.61091C7.32946 6.64236 6.75 8.04131 6.75 9.5C6.75 11.316 7.746 12.928 9.03 14.24C9.996 15.228 11.06 15.98 11.797 16.442L12.25 16.716L12.703 16.442C13.439 15.98 14.504 15.228 15.47 14.241C16.754 12.928 17.75 11.316 17.75 9.5C17.75 8.04131 17.1705 6.64236 16.1391 5.61091C15.1076 4.57946 13.7087 4 12.25 4ZM12.25 6.5C12.644 6.5 13.0341 6.5776 13.3981 6.72836C13.762 6.87913 14.0927 7.1001 14.3713 7.37868C14.6499 7.65726 14.8709 7.98797 15.0216 8.35195C15.1724 8.71593 15.25 9.10603 15.25 9.5C15.25 9.89397 15.1724 10.2841 15.0216 10.6481C14.8709 11.012 14.6499 11.3427 14.3713 11.6213C14.0927 11.8999 13.762 12.1209 13.3981 12.2716C13.0341 12.4224 12.644 12.5 12.25 12.5C11.4544 12.5 10.6913 12.1839 10.1287 11.6213C9.56607 11.0587 9.25 10.2956 9.25 9.5C9.25 8.70435 9.56607 7.94129 10.1287 7.37868C10.6913 6.81607 11.4544 6.5 12.25 6.5ZM12.25 8.5C11.9848 8.5 11.7304 8.60536 11.5429 8.79289C11.3554 8.98043 11.25 9.23478 11.25 9.5C11.25 9.76522 11.3554 10.0196 11.5429 10.2071C11.7304 10.3946 11.9848 10.5 12.25 10.5C12.5152 10.5 12.7696 10.3946 12.9571 10.2071C13.1446 10.0196 13.25 9.76522 13.25 9.5C13.25 9.23478 13.1446 8.98043 12.9571 8.79289C12.7696 8.60536 12.5152 8.5 12.25 8.5Z" fill="#505AC9"/>
</svg>
