<svg width="14" height="19" viewBox="0 0 14 19" fill="none" xmlns="http://www.w3.org/2000/svg">
<path d="M7.16523 18.4998C7.16523 18.4998 0.865234 10.2828 0.865234 6.79976C0.865234 5.97243 1.02819 5.1532 1.34479 4.38885C1.6614 3.6245 2.12545 2.92999 2.71046 2.34498C3.29547 1.75997 3.98998 1.29592 4.75433 0.979315C5.51868 0.66271 6.33791 0.499756 7.16523 0.499756C7.99256 0.499756 8.81179 0.66271 9.57614 0.979315C10.3405 1.29592 11.035 1.75997 11.62 2.34498C12.205 2.92999 12.6691 3.6245 12.9857 4.38885C13.3023 5.1532 13.4652 5.97243 13.4652 6.79976C13.4652 10.2828 7.16523 18.4998 7.16523 18.4998ZM7.16523 8.59976C7.64262 8.59976 8.10046 8.41011 8.43803 8.07255C8.77559 7.73498 8.96523 7.27715 8.96523 6.79976C8.96523 6.32237 8.77559 5.86453 8.43803 5.52696C8.10046 5.1894 7.64262 4.99976 7.16523 4.99976C6.68784 4.99976 6.23001 5.1894 5.89244 5.52696C5.55488 5.86453 5.36523 6.32237 5.36523 6.79976C5.36523 7.27715 5.55488 7.73498 5.89244 8.07255C6.23001 8.41011 6.68784 8.59976 7.16523 8.59976Z" fill="#FDFDFD"/>
</svg>
