<svg width="18" height="18" viewBox="0 0 18 18" fill="none" xmlns="http://www.w3.org/2000/svg">
<path d="M6 10.5C5.7875 10.5 5.60925 10.428 5.46525 10.284C5.32125 10.14 5.2495 9.962 5.25 9.75C5.25 9.5375 5.322 9.35925 5.466 9.21525C5.61 9.07125 5.788 8.9995 6 9C6.2125 9 6.39075 9.072 6.53475 9.216C6.67875 9.36 6.7505 9.538 6.75 9.75C6.75 9.9625 6.678 10.1407 6.534 10.2847C6.39 10.4288 6.212 10.5005 6 10.5ZM9 10.5C8.7875 10.5 8.60925 10.428 8.46525 10.284C8.32125 10.14 8.2495 9.962 8.25 9.75C8.25 9.5375 8.322 9.35925 8.466 9.21525C8.61 9.07125 8.788 8.9995 9 9C9.2125 9 9.39075 9.072 9.53475 9.216C9.67875 9.36 9.7505 9.538 9.75 9.75C9.75 9.9625 9.678 10.1407 9.534 10.2847C9.39 10.4288 9.212 10.5005 9 10.5ZM12 10.5C11.7875 10.5 11.6093 10.428 11.4653 10.284C11.3213 10.14 11.2495 9.962 11.25 9.75C11.25 9.5375 11.322 9.35925 11.466 9.21525C11.61 9.07125 11.788 8.9995 12 9C12.2125 9 12.3908 9.072 12.5348 9.216C12.6788 9.36 12.7505 9.538 12.75 9.75C12.75 9.9625 12.678 10.1407 12.534 10.2847C12.39 10.4288 12.212 10.5005 12 10.5ZM3.75 16.5C3.3375 16.5 2.98425 16.353 2.69025 16.059C2.39625 15.765 2.2495 15.412 2.25 15V4.5C2.25 4.0875 2.397 3.73425 2.691 3.44025C2.985 3.14625 3.338 2.9995 3.75 3H4.5V1.5H6V3H12V1.5H13.5V3H14.25C14.6625 3 15.0158 3.147 15.3098 3.441C15.6038 3.735 15.7505 4.088 15.75 4.5V15C15.75 15.4125 15.603 15.7657 15.309 16.0597C15.015 16.3538 14.662 16.5005 14.25 16.5H3.75ZM3.75 15H14.25V7.5H3.75V15ZM3.75 6H14.25V4.5H3.75V6Z" fill="#505AC9"/>
</svg>
