<svg width="58" height="26" viewBox="0 0 58 26" fill="none" xmlns="http://www.w3.org/2000/svg">
<rect width="57.3882" height="26" rx="4" fill="#FCE7D8"/>
<path d="M8.1602 19.976C7.5282 19.976 6.9562 19.86 6.4442 19.628C5.9322 19.396 5.5282 19.072 5.2322 18.656C4.9362 18.24 4.7882 17.764 4.7882 17.228C4.7882 17.06 4.8002 16.84 4.8242 16.568C4.8562 16.288 4.8922 15.98 4.9322 15.644C4.9802 15.3 5.0322 14.956 5.0882 14.612C5.1442 14.26 5.1962 13.928 5.2442 13.616L6.1682 13.76C6.0802 14.312 6.0002 14.824 5.9282 15.296C5.8642 15.76 5.8122 16.16 5.7722 16.496C5.7402 16.824 5.7242 17.068 5.7242 17.228C5.7242 17.596 5.8242 17.92 6.0242 18.2C6.2322 18.488 6.5202 18.712 6.8882 18.872C7.2562 19.04 7.6802 19.124 8.1602 19.124C8.6402 19.124 9.0522 19.048 9.3962 18.896C9.7402 18.744 10.0042 18.532 10.1882 18.26C10.3722 17.988 10.4642 17.668 10.4642 17.3V8.396H11.4002V17.3C11.4002 17.86 11.2522 18.34 10.9562 18.74C10.6682 19.14 10.2802 19.444 9.7922 19.652C9.3042 19.868 8.7602 19.976 8.1602 19.976ZM14.1764 17V16.148H15.6404V17H14.1764ZM13.2524 17V8.396H14.1764V17H13.2524ZM15.6404 17V16.148C15.7444 16.148 15.8084 16.188 15.8324 16.268C15.8644 16.34 15.8804 16.44 15.8804 16.568C15.8804 16.696 15.8644 16.8 15.8324 16.88C15.8084 16.96 15.7444 17 15.6404 17ZM24.3795 17V16.148H25.6755V17H24.3795ZM15.4395 17V16.148H24.3075L23.4435 16.928V14.108C23.4435 13.604 23.3715 13.188 23.2275 12.86C23.0915 12.524 22.8835 12.272 22.6035 12.104C22.3315 11.936 21.9875 11.852 21.5715 11.852C21.2195 11.852 20.8915 11.912 20.5875 12.032C20.2915 12.144 20.0155 12.296 19.7595 12.488C19.5035 12.672 19.2635 12.88 19.0395 13.112C18.8235 13.336 18.6235 13.564 18.4395 13.796C18.2555 14.028 18.0875 14.24 17.9355 14.432L17.6355 13.58C17.8355 13.332 18.0355 13.084 18.2355 12.836C18.4435 12.588 18.6595 12.356 18.8835 12.14C19.1075 11.916 19.3515 11.72 19.6155 11.552C19.8875 11.384 20.1835 11.252 20.5035 11.156C20.8235 11.052 21.1835 11 21.5835 11C22.1515 11 22.6155 11.096 22.9755 11.288C23.3435 11.48 23.6275 11.736 23.8275 12.056C24.0355 12.368 24.1795 12.704 24.2595 13.064C24.3395 13.424 24.3795 13.772 24.3795 14.108V17H15.4395ZM17.1435 16.148V11H18.0795V16.148H17.1435ZM15.4395 17C15.3355 17 15.2715 16.96 15.2475 16.88C15.2155 16.8 15.1995 16.696 15.1995 16.568C15.1995 16.44 15.2155 16.34 15.2475 16.268C15.2715 16.188 15.3355 16.148 15.4395 16.148V17ZM25.6755 17V16.148C25.7795 16.148 25.8435 16.188 25.8675 16.268C25.8995 16.34 25.9155 16.44 25.9155 16.568C25.9155 16.696 25.8995 16.8 25.8675 16.88C25.8435 16.96 25.7795 17 25.6755 17ZM25.4699 17V16.148H27.1979L26.7659 16.496V11H27.7019V17H25.4699ZM25.4699 17C25.3659 17 25.3019 16.96 25.2779 16.88C25.2459 16.8 25.2299 16.696 25.2299 16.568C25.2299 16.44 25.2459 16.34 25.2779 16.268C25.3019 16.188 25.3659 16.148 25.4699 16.148V17ZM25.9499 9.92V8.84H26.8859V9.92H25.9499ZM27.5939 9.92V8.84H28.5299V9.92H27.5939ZM29.6211 17V8.396H30.5451V17H29.6211Z" fill="#F08A61"/>
<path d="M50.0873 15.1536L48.3633 16.502L51.6649 20.7291L53.389 19.3808L50.0873 15.1536Z" fill="#F08A61"/>
<path d="M50.7741 21.4272L47.4722 17.1977C44.4746 16.3623 42.3708 13.6699 42.2841 10.5572L38.9822 6.33008C38.9822 6.33008 35.8538 10.8147 40.7635 17.0973C45.6731 23.3799 50.7741 21.4272 50.7741 21.4272Z" fill="#F08A61"/>
<path d="M41.5951 4.28643L39.8711 5.63477L43.1727 9.86191L44.8968 8.51358L41.5951 4.28643Z" fill="#F08A61"/>
</svg>
