<svg width="22" height="23" viewBox="0 0 22 23" fill="none" xmlns="http://www.w3.org/2000/svg">
<path d="M10 22.4501V20.4501C7.91672 20.2167 6.12938 19.3544 4.63805 17.8631C3.14605 16.3711 2.28338 14.5834 2.05005 12.5H0.0500488V10.5H2.05005C2.28338 8.41672 3.14605 6.62905 4.63805 5.13705C6.12938 3.64572 7.91672 2.78338 10 2.55005V0.550049H12V2.55005C14.0834 2.78338 15.8711 3.64572 17.3631 5.13705C18.8544 6.62905 19.7167 8.41672 19.9501 10.5H21.9501V12.5H19.9501C19.7167 14.5834 18.8544 16.3711 17.3631 17.8631C15.8711 19.3544 14.0834 20.2167 12 20.4501V22.4501H10ZM11 18.5C12.9334 18.5 14.5834 17.8167 15.95 16.45C17.3167 15.0834 18 13.4334 18 11.5C18 9.56672 17.3167 7.91672 15.95 6.55005C14.5834 5.18338 12.9334 4.50005 11 4.50005C9.06672 4.50005 7.41672 5.18338 6.05005 6.55005C4.68338 7.91672 4.00005 9.56672 4.00005 11.5C4.00005 13.4334 4.68338 15.0834 6.05005 16.45C7.41672 17.8167 9.06672 18.5 11 18.5ZM11 15.5C9.90005 15.5 8.95838 15.1084 8.17505 14.325C7.39172 13.5417 7.00005 12.6 7.00005 11.5C7.00005 10.4 7.39172 9.45838 8.17505 8.67505C8.95838 7.89172 9.90005 7.50005 11 7.50005C12.1 7.50005 13.0417 7.89172 13.825 8.67505C14.6084 9.45838 15 10.4 15 11.5C15 12.6 14.6084 13.5417 13.825 14.325C13.0417 15.1084 12.1 15.5 11 15.5ZM11 13.5C11.55 13.5 12.021 13.304 12.413 12.912C12.8044 12.5207 13 12.05 13 11.5C13 10.95 12.8044 10.479 12.413 10.087C12.021 9.69571 11.55 9.50005 11 9.50005C10.45 9.50005 9.97938 9.69571 9.58805 10.087C9.19605 10.479 9.00005 10.95 9.00005 11.5C9.00005 12.05 9.19605 12.5207 9.58805 12.912C9.97938 13.304 10.45 13.5 11 13.5Z" fill="#EF6262"/>
</svg>
