<svg width="198" height="197" viewBox="0 0 198 197" fill="none" xmlns="http://www.w3.org/2000/svg">
<path d="M26.2897 48.0971C15.0806 64.338 9.63726 83.8667 10.8292 103.564C12.0211 123.262 19.7795 141.992 32.8652 156.762C45.951 171.533 63.6091 181.493 83.0193 185.05C102.429 188.608 122.472 185.558 139.946 176.388C157.419 167.218 171.316 152.458 179.416 134.463C187.516 116.469 189.352 96.2789 184.632 77.1184C179.911 57.9579 168.906 40.932 153.373 28.7601C137.841 16.5882 118.677 9.97255 98.9439 9.96973C93.5327 9.97003 88.1327 10.4586 82.8093 11.4294" stroke="#505AC9" stroke-width="1.63427" stroke-linecap="round" stroke-linejoin="round"/>
<path d="M41.3299 31.418C38.3644 33.9845 35.5688 36.741 32.9609 39.6701" stroke="#505AC9" stroke-width="1.63427" stroke-linecap="round" stroke-linejoin="round"/>
<path d="M167.903 127.597C184.111 89.5431 166.401 45.555 128.347 29.3471C90.2929 13.1392 46.3049 30.8491 30.097 68.9032C13.8891 106.957 31.5989 150.945 69.653 167.153C107.707 183.361 151.695 165.651 167.903 127.597Z" fill="#D62E2E"/>
<path d="M72.0472 131.943L65.3086 125.204L92.2628 98.2499L65.3086 71.2957L72.0472 64.5571L99.0014 91.5114L125.956 64.5571L132.694 71.2957L105.74 98.2499L132.694 125.204L125.956 131.943L99.0014 104.988L72.0472 131.943Z" fill="#162368"/>
</svg>
