<svg width="24" height="24" viewBox="0 0 24 24" fill="none" xmlns="http://www.w3.org/2000/svg">
<g clip-path="url(#clip0_1610_71866)">
<path d="M24 12C24 15.3354 22.6394 18.3543 20.4425 20.5276C18.274 22.6724 15.2929 24 12 24C8.70709 24 5.72598 22.6772 3.55748 20.5276C1.36063 18.3543 0 15.3354 0 12C0 5.37165 5.37165 0 12 0C18.6283 0 24 5.37165 24 12Z" fill="#505AC9"/>
<path d="M7.09998 11.5105C7.25589 11.2884 7.3362 11.0758 7.3362 10.8727C7.3362 10.6648 7.27006 10.4947 7.13305 10.3577C6.99604 10.2207 6.82597 10.1499 6.61337 10.1499C6.22597 10.1499 5.85746 10.4286 5.50786 10.9813L4.40234 10.3294C4.69053 9.88056 5.00707 9.54513 5.35195 9.31363C5.69683 9.08214 6.1362 8.96875 6.66534 8.96875C7.19919 8.96875 7.66691 9.13883 8.06849 9.47426C8.47006 9.81442 8.67321 10.2727 8.67321 10.8538C8.67321 11.1703 8.5929 11.4774 8.43227 11.7656C8.27164 12.0585 7.974 12.427 7.53463 12.8806L6.42439 14.0428H8.86219V15.2806H4.51101V14.2554L6.32045 12.4034C6.68423 12.0302 6.94408 11.7325 7.09998 11.5105Z" fill="white"/>
<path d="M12.1366 12.611V11.5338H13.4594V12.611H14.1586V13.8015H13.4594V15.2755H12.1366V13.8015H9.65625V12.7527L11.8531 9.10547H13.3555L11.2625 12.611H12.1366Z" fill="white"/>
<path d="M16.4791 12.714V15.2746H15.1562V8.72656H16.4791V11.0557C16.8807 10.6494 17.3295 10.4462 17.8255 10.4462C18.3216 10.4462 18.7421 10.6211 19.0822 10.9754C19.4224 11.3297 19.5925 11.7974 19.5925 12.388V15.2746H18.2696V12.6809C18.2696 11.9533 18.0003 11.5848 17.4665 11.5848C17.2019 11.5848 16.9704 11.6793 16.772 11.873C16.5783 12.062 16.4791 12.3455 16.4791 12.714Z" fill="white"/>
<path d="M17.6047 6.42478L16.5795 3.10352L16.1165 3.97753C12.5969 2.99485 9.03466 3.71296 6.39844 5.598C9.39844 4.58226 12.4646 5.02635 14.8079 6.45312L14.2835 7.44997L17.6047 6.42478Z" fill="#F08A61"/>
<path d="M6.39844 17.574L7.42363 20.8953L7.88663 20.0213C11.4063 21.0039 14.9685 20.2858 17.6047 18.4008C14.6047 19.4165 11.5386 18.9725 9.19529 17.5457L9.7197 16.5488L6.39844 17.574Z" fill="#F08A61"/>
</g>
<defs>
<clipPath id="clip0_1610_71866">
<rect width="24" height="24" fill="white"/>
</clipPath>
</defs>
</svg>
