<?xml version="1.0" encoding="utf-8"?>
<!-- Generator: Adobe Illustrator 24.3.0, SVG Export Plug-In . SVG Version: 6.00 Build 0)  -->
<svg version="1.1" xmlns="http://www.w3.org/2000/svg" xmlns:xlink="http://www.w3.org/1999/xlink" x="0px" y="0px"
	 viewBox="0 0 800 600" style="enable-background:new 0 0 800 600;" xml:space="preserve">
<style type="text/css">
	.st0{fill:none;stroke:#000000;stroke-linecap:round;stroke-linejoin:round;}
</style>
<g id="Saudi_Arabia">
	<path class="st0" d="M549.748,300.588l1.732,2.874l1.127,1.282l1.191,0.507l1.421,0.205l1.34-0.008l1.231-0.419l1.606-1.291
		l0.056,0.213l1.212-0.178l0.222,0.146l0.195,0.273l0.208,0.151l0.266-0.214l0.025,0.201l-0.027,0.235l-0.093,0.194l-0.154,0.079
		l-0.133,0.131l0.046,0.279l0.11,0.253l0.064,0.049l-0.071,0.893l0.139,0.124l0.418-0.144l0.322-0.244l0.65-1.147l0.333-0.338
		l0.303-0.208l0.187-0.294l-0.013-0.599l0.349,0.182l0.436,0.038l0.366,0.083l0.156,0.32l0.116,0.344l0.289,0.048l0.368,0.004
		l0.36,0.225v0.194l-0.383,0.179l-0.49,0.15l-0.42,0.227l-0.177,0.415l-0.092,0.001l-0.54,0.596l-0.112,0.211l-0.119,0.343
		l-0.106,0.173l-1.399,1.041l-0.22,0.308l-0.064,0.125l-0.305,0.428l-0.118,0.231l-0.048,0.255l-0.05,0.577l-0.064,0.249
		l-0.011,0.149l0.021,0.175l-0.008,0.147l-0.089,0.062l-0.254-0.014l-0.112,0.023l-0.044,0.079l-0.017,0.559l0.023,0.292
		l0.081,0.125l1.486,0.134l0.542-0.134l0.291-0.182l0.199-0.171l0.22-0.129l0.357-0.051l1.567,0.328l0.424,0.327l0.692,0.78
		l1.023,0.314l0.147,0.999l-0.007,0.67l-0.049,1.664L568,317.36l0.355,0.61l1.349,1.756l1.234,1.607l1.236,1.607l1.234,1.607
		l1.236,1.604l1.236,1.604l1.236,1.602l1.234,1.604l1.236,1.602l1.234,1.6l1.236,1.601l1.234,1.601l1.236,1.599l1.232,1.597
		l1.236,1.598l1.235,1.597l1.236,1.597l1.27,1.636l0.474,0.416l0.583,0.192l3.806,0.508l3.292,0.44l3.292,0.44l3.295,0.439
		l3.292,0.439l3.292,0.44l3.295,0.439l3.292,0.439l3.292,0.439l3.297,0.44l3.292,0.44l3.292,0.438l3.295,0.439l3.29,0.44
		l3.292,0.438l3.295,0.438l3.295,0.44l3.238,0.431l0.357-0.064l1.574-2.057l1.505,2.517l1.912,3.203l1.917,3.2l1.912,3.197
		l1.914,3.193l1.258,2.1l0.245,0.558l0.012,0.586l-0.886,2.883l-0.118,0.384l-0.157,0.505l-0.438,1.424l-0.683,2.212l-0.886,2.866
		l-1.048,3.389l-1.17,3.778l-1.248,4.037l-0.304,0.981l-0.988,3.182l-1.292,4.159l-1.251,4.022l-1.168,3.758l-1.05,3.365
		l-0.886,2.843l-0.68,2.188l-0.441,1.408l-0.157,0.498l-0.761,2.435l-3.564,1.264l-4.053,1.438l-4.053,1.435l-4.048,1.435
		l-4.053,1.435l-4.056,1.434l-4.053,1.435l-4.051,1.435l-4.053,1.432l-4.051,1.433l-4.056,1.432l-4.051,1.432l-4.053,1.432
		l-4.056,1.43l-4.05,1.43l-4.051,1.43l-4.053,1.43l-2.636,0.927l-3.74,0.533l-3.794,0.54l-3.794,0.54l-3.794,0.539l-3.794,0.539
		l-3.792,0.54l-3.792,0.539l-3.798,0.538l-3.79,0.541l-3.794,0.539l-3.794,0.538l-3.794,0.54l-3.794,0.539l-3.792,0.539
		l-3.794,0.539l-3.794,0.539l-3.794,0.539l-3.056,0.435l-2.202,0.809l-1.055,0.545l-3.405,1.753l-4.063,2.089l-4.538,2.336
		l-4.068,2.09l-3.035,1.562l-0.532,0.374l-1.837,2.318l-2.15,2.697l-3.744,4.712l-3.535,4.438l-2.303,2.89l-0.4,0.768l-1.12,3.096
		l-1.584,4.381l-0.696,0.936l-0.024,0.032l-2.7,1.584l-2.905,1.708l-0.7,0.284l-0.771,0.109l-3.12-0.135l-0.332-0.014l-0.3-0.192
		l-2.002-2.791l-1.753-2.451l-1.53-2.14l-0.879-0.511l-5.263,0.729l-3.914,0.543l-5.747-0.593l-4.479-0.463l-5.885-0.606
		l-5.019-0.519l-1.082-0.359l-3.85-2.256l-1.344-0.273l-3.98-0.028l-0.589-0.004l-2.923-0.02l-4.797-0.032l-0.516,0.114
		l-1.484,0.564l-0.667,0.04l-1.625-0.337l-1.445-0.056l-2.292,0.242l-1.819,0.424l-0.45,0.031l-0.999-0.291l-0.482-0.062
		l-0.349,0.251l-0.346,0.614l-0.36,0.446l-0.453,0.212l-0.616-0.09l-0.909-0.471l-0.404-0.045l-0.512,0.273l-0.36,0.428
		l-0.304,0.485l-0.37,0.368l-0.558,0.083l-0.28-0.061l-0.141-0.076l-0.078-0.119l-0.094-0.199l0.061-0.494v-0.272l-0.141-0.065
		l-0.556,0.167l-0.414,0.019l-0.937-0.085l-0.886,0.101l-0.43-0.004l-0.474-0.168l-0.979-0.78l-1.652-1.861l-1.006-0.599
		l-1.745-0.757l-0.384-0.1l-0.805-0.032l-0.431-0.101l-0.523,0.072l-0.518,0.199l-2.083,1.314l-2.063,1.783l-1.138,1.407
		l-0.067,0.114l1.354,0.449l0.465,0.358l0.245,0.532l-0.084,0.497l-0.531,0.264l-0.541,0.123l-0.627,0.268l-0.491,0.392
		l-0.144,0.489l0.022,0.573l-0.135,0.503l-0.497,0.981l-0.14,0.513l0.095,0.399l0.186,0.412l0.135,0.547l-0.002,0.54l-0.103,0.475
		l-0.382,0.956l-0.159,0.615l0.093,0.42l0.499,0.966l0.286,0.904l0.273,0.225l0.879,0.245l0.244,0.192l0.16,0.268l0.032,0.321
		l-0.1,0.259l-0.179,0.13l-0.218,0.096l-0.213,0.155l-0.34,0.514l0.051,0.34l0.215,0.377l0.14,0.578l0.009,0.039l-0.144,0.461
		l-0.404,0.077l-0.951-0.291l-0.592-0.111l-0.303,0.129l-0.117,0.34l-0.032,0.522l-0.095,0.467l-0.612,1.614l-0.296,0.424
		l-0.512,0.386l-1.035,0.615l-0.348,0.125l-0.92,0.171l-0.252,0.11l-0.091,0.323l0.064,0.375l0.027,0.399l-0.203,0.396l-0.609,0.426
		l-0.832,0.356l-1.133,0.401l-0.033-0.067l0.004-0.893l-0.166-0.256l0.324-0.805l-0.158-0.47l-1.149-1.301l-0.262-0.559
		l-0.089-0.474l0.023-1.083l0.278-1.054l-0.008-0.453l-0.428-0.105l0.158-0.184l-0.285-0.269l-0.237-0.38l-0.056-0.353l0.258-0.18
		l-0.145-0.248l-0.665-0.596l-0.15-0.178l-0.301-0.447l-0.555-0.623l-0.162-0.117l-0.757-0.419l-0.237-0.028l-0.262,0.139
		l-0.808-1.13l0.33-1.091l-0.17-0.398l0.002-1.216l-0.104-0.423l-0.229-0.148l-0.227-0.115l-0.1-0.329l-0.189-0.218l-0.432-0.034
		l-0.486,0.028l-0.337-0.03l-0.289-0.261l-0.237-0.399l-0.295-0.693l-0.106-0.363l-0.119-0.85l-0.112-0.34l-0.216-0.193
		l-1.066-0.469l0.06,0.428l0.172,0.393l0.416,0.702l-0.48,0.305l0.239,1.621l-0.258,0.458l-0.135-0.515l-0.013-1.699l-0.098-0.508
		l-0.318-0.964l-0.414-3.365l-0.152-0.595l-0.106-0.44l0.141-1.237l-0.035-0.527l-0.173-0.552l-0.15-0.23l-0.233-0.095l-0.243-0.012
		l-0.185-0.051l-0.12-0.121l-0.042-0.217l-0.147-0.285l-2.552-2.204l-0.214-0.07l-0.069,0.134l-0.162-0.214l-0.254-0.521
		l-0.468-0.664l-0.139-0.419l-0.098-0.192l-0.173-0.083l-0.538,0.113l-0.243-0.059l-0.104-0.309l-0.12-0.214l-1.025-1.073
		l-0.042,0.05l-0.148,0.069l-0.179,0.052h-0.131l-0.227-0.228l-0.728-1.046l-0.243-0.132l-1.403-1.327l-0.513,0.213l-0.887-0.621
		l-0.54,0.083l-0.22-0.653l-0.416-0.416l-0.509-0.352l-0.474-0.462l-0.995-1.278l-0.15-0.421l0.035-0.314l0.069-0.278l-0.039-0.199
		l-0.303-0.077l-0.173-0.074l-0.035-0.182l0.012-0.219l-0.037-0.188l-0.998-0.901l-0.364-0.516l0.214-0.468l-0.412-0.516
		l-0.17-0.274l-0.066-0.325l-0.104-0.144l-0.208-0.074l-0.133-0.153l0.11-0.387l-0.482-0.051l-0.459-0.12l0.067-0.108l0.037-0.082
		l0.056-0.072l0.133-0.079l-0.146-0.298l-0.212-0.141l-0.27-0.007l-0.328,0.108l0.152-0.234l0.116-0.24l0.023-0.219l-0.129-0.173
		l0.146-0.336l-0.139-0.169l-0.305-0.046l-0.366,0.041l0.075-0.341l-0.079-0.476l-0.175-0.474l-0.218-0.327l-0.108-0.298
		l-0.146-0.947l-0.066-0.202l-0.052-0.212l-0.037-1.338l-0.056-0.144l-0.067-0.108l-0.108-0.065l-0.173-0.022l-0.125-0.093
		l-0.044-0.211l-0.013-0.234l-0.044-0.161l-0.858-0.592l-0.129-0.159l-0.039-0.261l-0.116-0.309l-0.179-0.259l-0.368-0.165
		l-0.139-0.123l-0.106-0.122l-0.037-0.055l-0.146,0.05l-0.247,0.257l-0.093,0.048l-0.258-0.098l-0.262-0.162l-0.247-0.205
		l-0.191-0.232l-0.634-1.416l-0.268-0.384l-0.301-0.326l-0.15-0.29l-0.023-0.342l0.069-0.485l0.565-1.641l0.083-0.511l0.071-0.196
		l0.125-0.089l0.029-0.144l-0.225-0.354l-0.098-0.019l-0.524-0.283l-0.025-0.04l-0.969-0.241l-0.245-0.784l-0.014-0.148
		l-0.459-0.611l-0.106-0.08l-0.017-0.261l0.035-0.27l0.145-0.495l0.116-0.275l0.116-0.19l0.087-0.196l0.05-0.459l0.116-0.521
		l0.303-0.612l-0.206-0.372l-0.436-0.289l-0.468-0.198l-1.023-0.3l-0.422-0.296l-0.243-0.692l-0.335-0.531l-0.094-0.236l0.012-0.279
		l0.177-0.579l-0.015-0.244l-0.139-0.459l-0.035-0.253l-0.096-0.218l-0.434-0.237l-0.102-0.223l-0.104-0.531l-0.256-0.274
		l-0.364-0.195l-0.64-0.518l0.042-0.078l0.031-0.305l-0.054-0.252l-0.231-0.39l-0.054-0.215l-0.037-0.266l-0.129-0.404l0.015-0.281
		l0.16-0.253l0.22-0.201l0.116-0.184l-0.168-0.202l0.058-0.27l-0.05-0.263l-0.131-0.213l-0.054-0.301l-2.026-0.724l-0.561-0.305
		l-1.203-1.25l-0.574-0.311v-0.157l0.256,0.036l0.549,0.308l0.146-1.03l-0.062-1.26l-0.17-0.547l-1.089-1.584l-0.461-0.308
		l-1.218-0.144l-0.472,0.016l-0.214,0.242l0.274,0.635l-0.355-0.295l-0.306-0.526l-0.197-0.502l-0.021-0.224l-0.339-0.215
		l-0.964-1.419l-0.732-0.456l-0.154-0.16l0.023-0.181l0.297-0.664l-0.143-0.451l-0.281-0.269l-0.721-0.312l-0.89-0.548l-0.214-0.079
		l-0.218-0.344l-0.208-0.078l-0.216-0.12l-0.59-0.834l-0.191-0.096l-0.584-0.147l-0.204-0.024l-0.438-0.118l-0.48-0.282
		l-1.081-0.872l-0.846-0.965l0.158-0.366l-0.401-0.277l-0.621-0.176l-0.73-0.111l-0.139-0.126l-0.222-0.323l-0.37-0.336
		l-0.212-0.242l0.023-0.112l-0.247-0.154l-0.752-0.696l-0.384-0.184l-0.532,0.01l-0.588,0.103l-0.474,0.175l-0.198,0.214
		l-0.567-0.213l-1.012-0.613l-0.526-0.224l0.029,0.321l0.139,0.179l0.193,0.125l0.197,0.168l0.114,0.053l0.229,0.156l0.143,0.161
		l-0.152,0.075l-0.414-0.111l-2.317-1.426l-0.333-0.289l-0.31-0.149l-0.47-0.135l-0.432-0.205l-0.366-0.767l-0.409-0.398
		l-1.274-0.993l-0.642-0.641l-1.407-2.29l-0.466-0.393v-0.188l0.237,0.015l0.187-0.034l0.137-0.111l0.087-0.215l-0.364-0.066
		l-0.301-0.175l-0.549-0.529l-0.154-0.28l-0.141-0.739l-0.11-0.284l-0.792-0.899l-0.071-0.421l0.382-0.596l-0.821-0.28l-0.328-0.051
		l0.058,0.198l0.11,0.142l0.145,0.102l0.17,0.077l-0.464-0.149l-0.52-0.299l-0.31-0.381l0.166-0.398l-0.22-0.108l-0.098-0.154
		l0.021-0.192l0.135-0.223l0.104,0.196l0.181,0.142l0.241,0.099l0.283,0.066l-0.116-0.301l-0.035-0.138l-0.012-0.158l-0.046-0.24
		l-0.112-0.008l-0.16,0.047l-0.168-0.066l-0.318-0.46l-0.129-0.009l-0.039,0.469l-0.505-0.324l-0.678-0.544l-0.488-0.629l0.04-0.58
		l0.098,0.13l0.179,0.159l0.168,0.056l0.052-0.172l-0.081-0.3l-0.133-0.114l-0.173-0.059l-0.191-0.132l-0.227-0.112l-0.247,0.043
		l-0.251,0.102l-0.229,0.054l-0.006-0.101l-0.667-1.03l-0.15-0.367l-0.068-0.425l-0.013-0.61l-0.077-0.23l-0.324-0.222l-0.071-0.234
		l-0.029-0.304l-0.089-0.109l-0.154-0.053l-0.998-0.71l-0.262-0.295l-0.15-0.696l-0.22-0.498l-0.052-0.295l0.052-0.128l0.225-0.322
		l0.046-0.157l-0.164-0.366l-0.888-1.385l-0.326-0.199l-0.74-1.189l1.875-1.648l0.264-0.618l0.031-0.812l-0.181-0.735l-0.357-0.387
		v-0.141l0.254-0.224l-0.035-0.34l-0.384-0.843l-0.301,0.543l-0.243,0.068l-0.224-0.286l-0.216-0.516l0.175-0.158l-0.387-0.56
		l-0.085-0.746l0.035-0.794l-0.048-0.699l-0.254-0.691l0.046-0.378l0.445-0.165l0.127-0.146l0.12-0.345l0.012-0.399l-0.185-0.311
		l-0.181,0.531l-0.123,0.222l-0.181,0.118l-0.331,0.014l-0.077-0.122l0.006-0.201l-0.081-0.216l-0.152-0.139l-0.104-0.076
		l-0.096-0.1l-0.119-0.206l-0.071-0.236l-0.035-0.422l-0.069-0.213l-0.046-0.012l-0.278-0.162l-0.048-0.086l-0.066-0.193
		l-0.048-0.085l-0.803-1.02l-0.686-1.527l-0.434-2.149l0.033-0.488l0.627-0.236l0.641,0.823l0.461,0.006l0.103-0.565v-0.498
		l0.058-0.272l0.098-0.098l0.318-0.23l0.069-0.131l0.048-0.484l0.224-1.014l0.052-0.518h-0.148l-0.337,0.874l-0.162-0.376
		l0.081-0.279l0.156-0.275l0.087-0.372v-1.049l0.175-0.69l0.779-0.905l0.243-1.085l0.168-0.252l0.214-0.214l0.214-0.269l0.324-0.716
		l0.407-0.415l0.077-0.108v-0.323l-0.127-0.294l-0.231-0.167l-0.301,0.067l-0.16,0.248l-0.164,0.73l-0.153,0.263l-0.581,0.112
		l-0.024-0.734l0.304-1.071l-0.186-1.401l0.173-1.431l-0.178-0.702l-0.183-0.343l-0.655-0.902l-0.619-1.436l-0.461-0.768
		l-0.173-0.403l0.062-0.311l0.624-0.58l-0.038-0.201l-1.137-1.272l-0.463-0.383l-0.206,0.124l0.087,0.143l0.416,0.441l0.158,0.23
		l0.077,0.274l0.025,0.261l0.058,0.256l0.162,0.26l-0.175,0.176l-0.312-0.721l-0.66-1.029l-0.645-0.723l-1.222-2.225l0.004-0.349
		l0.692,0.38l0.768,1.71l0.418,0.134l0.258,0.16l0.227-0.037l0.185-0.184l0.139-0.291l-0.247-0.295l-0.401-0.776l-0.247-0.157
		l-0.173-0.074l-0.193-0.189l-0.146-0.257l-0.064-0.278l-0.206-0.408l-0.474-0.197l-0.54-0.133l-0.397-0.22l-0.476,0.097
		l-0.347-0.41l-0.486-1.093l0.264-0.262l0.2-0.343l0.135-0.376l0.048-0.36l-0.059-0.737l-0.112-0.397l-0.02-0.318l-0.277-0.128
		l-0.214,0.393l-0.296-0.562l-0.413-0.563l-0.436-0.858l-0.422-0.502l-0.177-0.567l-0.29-0.392l-0.066-0.35l-0.205-0.445
		l0.004-0.373l-0.179-0.771l-0.321-0.61l-0.303-0.747l-0.134-1.016l-0.089-0.725l-0.139-0.565l-0.055-0.461l-0.397-0.425
		l-0.175-0.286l-0.075-0.428l-0.033-0.421l-0.528,0.3l-0.233-0.151h-0.193l0.023,0.433l0.224,0.227l0.596,0.221v0.179l-0.792-0.075
		l-0.52-0.488l-0.02-1.256l-1.051-1.364l-0.556-1.776l-0.166-0.588l-0.104-0.64l-0.173-0.6l-0.37-0.468l-0.235-0.12l-0.256-0.057
		l-0.395-0.134l-0.224-0.26l-0.11-0.372l-0.19-0.453l-0.287-0.374l-0.39-0.123l-0.383-0.11l-0.321-0.18l-0.232-0.181l-0.231-0.436
		l-0.384-0.455l-0.188-0.156l-0.391-0.285l-0.484-0.149l-0.388-0.052l-0.564-0.376l-0.306-0.229l-0.467-0.441l-0.45-0.57
		l-0.484-0.376l-0.404-0.375l-0.71-0.687l-0.191-0.096l-0.194-0.05l-0.211,0.096l-0.195,0.128l-0.533-0.369l-0.37-0.298
		l-0.975-0.623l-0.736-0.569l0.137-0.31l0.41-0.289l0.584-0.093l-0.232-0.235l-0.351,0.114l-0.448,0.23l-0.174-0.331l0.274-0.445
		l0.099-0.407l-0.252-0.099l-0.156,0.193l-0.292,0.056l-0.137,0.252l0.136,0.137l0.077,0.234l0.038,0.331l0.018,0.233l-0.137,0.155
		l-0.524-0.198l-0.719,0.19l-1.077-0.826l-0.326-0.3l-0.919-0.73l-0.211-0.525l-0.31-0.215l-0.407-0.196l-0.426-0.235l-0.348-0.331
		l-0.465-0.312l-0.563,0.017l-0.269-0.029l-0.355,0.266l-0.077,0.343l0.134,0.525l-1.009,0.036l-0.251-0.389l-0.698-0.332
		l-0.544,0.173l-0.523-0.545l-0.329-0.583l-0.523-0.739l-0.835-0.721l-0.271-0.875l0.234-0.524l0.175,0.059l0.467,0.312l0.195-0.408
		l-0.155-0.487l-3.255-4.764l-1.458-2.035l-0.69-0.922l-0.035-0.722l0.081-0.191l0.019-0.259l-0.023-0.259l-0.077-0.183
		l-0.174-0.085l-0.306,0.308l-0.249,0.036l-0.416-0.255l-0.306-0.42l-0.407-0.927l0.603,0.012l0.532,0.087l0.53,0.016l0.597-0.204
		l0.295-0.439l0.035-1.32l0.518-1.105l-0.069-0.589l-0.455-1.095l-0.15-0.628l0.15-1.541l-0.042-0.592l-0.125-0.559l-0.202-0.519
		l-0.278-0.481l-0.445-0.539l-0.272-0.26l-0.254-0.183l-0.224-0.207l-0.222-0.49l-0.199-0.207l-0.472-0.369l-0.468-0.518
		l-0.409-0.593l-0.285-0.584l-0.054-0.26l-0.05-0.587l-0.058-0.227l-0.156-0.24l-0.36-0.397l-0.114-0.259l0.416-0.3l-0.349-0.593
		l-1.052-1.076l-0.181-0.333l-0.382-1.117l-0.123-0.184l-0.324-0.215l-0.123-0.14l-0.033-0.15l0.023-0.326l-0.071-0.151
		l-0.206-0.316l-0.335-0.758l-0.185-0.288l-0.303-0.227l-0.692-0.284l-0.301-0.19l-0.931-1.497l-0.59-0.74l-0.515-0.04l-0.046,0.294
		l0.16,0.304l0.083,0.261l-0.278,0.163l-0.301-0.091l-0.727-0.521l-0.355-0.122l-0.212-0.141l-0.536-0.686l-0.148-0.251
		l-0.029-0.159l0.029-0.566l-0.052-0.152l-0.285-0.071l-0.146-0.13l-0.289-0.662l-0.031-0.617l0.225-0.588l0.497-0.575l0.312-0.539
		l0.087-0.721l-0.092-0.743l-0.226-0.605l-0.561-0.605l-0.752-0.395l-0.829-0.212l-0.784-0.064l-0.85-0.309l-0.567-0.753
		l-1.503-3.586l-0.543-0.922l-1.029-1.393l-1.75-4.329l-1.873-3.371l-1.129-1.449l-1.372-1.233l-0.628-0.722l-0.374-1.148
		l-0.713-1.258l-0.468-1.65l-0.428,0.119l-0.324-0.297l-0.557-0.909l-1.536-1.378l-1.898-2.477l-0.678-1.313l-0.077-0.213
		l-0.029-0.263l0.052-0.218l0.231-0.38l0.054-0.23l-0.116-0.32l-0.567-0.864l-1.991-2.379l-1.122-0.775l-0.289-0.257l-0.561-0.698
		l-0.636-1.048l-0.717-0.713l-0.902-1.677l-0.26-0.687l-0.087-0.541l-0.015-0.964l-0.141-0.502l-0.197-0.349l-0.781-0.829
		l-0.432-0.718l-0.609-1.635l-0.49-0.686l-0.224-0.15l-0.478-0.19l-0.185-0.125l-0.133-0.188l-0.106-0.364l-0.239-0.5l-0.104-0.764
		l-0.227-0.377l-1.226-1.38l-0.374-0.67l-0.227-0.256l-0.37-0.171l-1.149-0.917v0.184h-0.162l-0.262-0.357l0.306-0.272l0.534-0.235
		l0.409-0.253l0.251,0.121l-0.025-0.151l-0.225-0.419l-0.143-0.059l-0.655-0.143l-0.189-0.083h-0.162v0.183h-0.143l-0.096-0.166
		l-0.139-0.179l-0.168-0.144l-0.179-0.059l-0.422,0.018l-0.214-0.026l-0.278-0.291l-1.106-0.801l-0.235,0.176l-0.278-0.012h-0.251
		l0.066,0.151l0.089,0.131l0.108,0.104l-0.239-0.125l-0.264-0.182l-0.276-0.098l-0.281,0.131l-0.241,0.158l-0.719,0.216l-0.195,0.11
		l-0.141,0.141l-0.085,0.199H173.5v-0.183h-0.162l-0.312,0.085l-0.48-0.091l-0.484,0.007l-0.326,0.381l-0.064-0.138l-0.019-0.002
		l-0.096-0.059v-0.183h0.179v-0.201l-0.091-0.186l0.12-0.153l0.22-0.116l0.22-0.079l-0.225-0.098l-0.229-0.032l-0.243,0.036
		l-0.27,0.094v0.185h0.175v0.182l-0.264,0.09l-0.173,0.183l-0.224,0.476l-0.073-0.112l-0.073-0.038l-0.081-0.013l-0.083-0.035
		l0.094-0.162l0.139-0.155l0.185-0.134l0.229-0.099l-0.013-0.103l-0.004-0.112l0.017-0.152l-0.335-0.015l-0.266,0.061l-0.172,0.17
		l-0.048,0.317l-0.129-0.076l-0.039-0.011l-0.035,0.033l-0.121,0.055l-0.01-0.086l0.012-0.177l-0.002-0.085h-0.137v0.182h-0.189
		l-0.119-0.228l-0.11-0.118l-0.116,0.012l-0.139,0.152l-0.218-0.167l-0.054-0.079l-0.146-0.214l-0.085-0.124l-0.145-0.334
		l-0.069,0.067l-0.091,0.07l-0.094,0.093l-0.083,0.137l-0.308-0.234l-0.085,0.118l-0.015,0.268l-0.075,0.215l-0.179,0.109
		l-0.318,0.138l-0.152,0.12v0.166l0.501,0.384v0.199l-0.154,0.011l-0.068,0.044l-0.035,0.059l-0.052,0.052l-0.193-0.166
		l-0.114,0.446l-0.021,0.346l-0.152,0.226l-0.52,0.082l0.04-0.128l0.023-0.02l0.039,0.007l0.073-0.059l-0.175-0.183l-0.104-0.384
		l-0.046-0.349l-0.011-0.649l-0.174-0.195l-0.58,0.247l0.106-0.318l-0.145-0.185l0.347-0.511l0.225-0.19l0.206-0.098l0.014-0.133
		l0.148-0.075l0.2-0.189l0.137-0.085l-0.148-0.184l0.069-0.142l0.089-0.107l0.127-0.073l0.185-0.045v0.125l-0.054,0.026
		l-0.066-0.008l-0.042,0.023l0.235,0.125l0.197,0.066l0.143-0.074l0.075-0.282h-0.133v-0.184l-0.17-0.171l0.035-0.178l0.181-0.145
		l0.262-0.072v-0.183l-0.081-0.235l0.229-1.235l0.091,0.054l0.164,0.068l0.081,0.062l-0.012-0.085l0.012-0.282l-0.137,0.093
		l-0.06,0.058l-0.139-0.15l0.476-0.462l0.482-0.889l0.366-0.972l0.251-1.265l0.463-0.7l0.173-0.805l0.17-0.455l0.68-1.18
		l-0.18-1.215l-0.065-1.274l-0.354-1.216l0.436-1.655l0.306-0.868l0.368-0.713v-0.168h-0.148l0.403-0.699l0.058-0.327l-0.137-0.298
		v-0.169l0.268-0.826l-0.05-0.358l-0.393-0.124v-0.166l0.349-0.597l0.384-1.12l0.177-1.149l-0.266-0.681v-0.37l0.272-0.504
		l0.226-0.585l0.474-2.426l0.11-0.352l0.264-0.608l-0.035-0.169l0.035-0.388l0.227-0.229l0.547-0.309l-0.162-0.456l-0.062-0.597
		l0.089-0.397l0.278,0.151l0.027-0.087l0.004-0.075l0.031-0.04l0.116,0.017l-0.179-0.403l-0.064-0.46l0.096-0.402l2.627,0.462
		l2.812,0.49l3.684,0.639l3.292,0.572l3.515,0.607l2.799,0.487l1.349,0.235l2.729,0.472l2.462,0.427l0.649-0.025l0.607-0.248
		l2.57-2.126l2.504-2.077l2.754-2.285l1.826-1.515l1.52-2.581l1.476-2.508l1.089-1.852l1.31-2.231l0.565-0.611l0.651-0.327
		l2.054-0.429l2.108-0.438l3.407-0.712l3.38-0.706l3.17-0.661l2.79-0.581l0.509-0.455l1.053-2.575l0.783-1.908l0.852-2.076
		l0.695-1.702l0.308-0.496l0.548-0.459l2.572-1.45l2.861-1.611l1.733-0.974l0.159-0.098l0.022-0.009l0.01-0.011l-0.007-0.018
		l-1.172-1.38l-2.597-3.06l-2.602-3.062l-2.599-3.067l-2.597-3.072l-0.076-0.089l-0.073-0.089l-0.076-0.088l-0.073-0.087
		l-3.082-3.345l-3.036-3.296l-0.046-0.05l-3.082-3.353l-3.082-3.356l0.909-0.273l4.958-1.488l5.867-1.761l5.867-1.764l1.389-0.418
		l4.478-1.346l0.854-0.248l4.473-1.297l5.324-1.546l5.321-1.548l5.326-1.547l2.69-0.783l0.002,0.001v-0.004l0.82-0.348l2.812-2.681
		l0.46-0.348l0.24-0.078l0.068-0.022l0.069-0.023l0.066-0.023l0.066-0.022l4.685,0.805l4.682,0.806l4.682,0.806l4.68,0.804
		l1.899,0.325h0.005l0.002,0.001l0.005,0.001l8.075,1.561l1.275,0.5l1.319,0.773l2.435,1.461l2.076,1.247l2.081,1.242l2.078,1.246
		l2.076,1.244l2.078,1.243l2.078,1.241l2.076,1.242l2.081,1.243l2.076,1.241l2.076,1.24l2.078,1.24l2.081,1.239l2.076,1.237
		l2.076,1.238l2.081,1.238l2.076,1.237l2.112,1.256l1.569,1.367l2.005,1.739l2,1.738l2,1.737l2.002,1.736l2.245,1.957l2.242,1.954
		l2.244,1.955l0.461,0.401l1.783,1.55l0.002,0.001l0.002,0.001l0.002,0.001l2.504,2.047l2.088,1.708l2.085,1.704l2.087,1.705
		l2.088,1.704l2.712,2.212l2.714,2.21l2.714,2.208l2.712,2.208l1.149,0.934l1.564,1.272l2.713,2.203l2.712,2.202l2.712,2.201
		l2.257,1.829l2.258,1.829l2.26,1.826l2.253,1.826l1.822,1.472l0.152,0.058l0.152,0.06l0.148,0.06l0.155,0.059l2.166,0.196
		l1.89,0.173l1.885,0.17l1.883,0.172l1.886,0.17l2.428,0.221l2.426,0.219l2.428,0.221l2.427,0.219l2.427,0.219l2.428,0.221
		l2.428,0.22l2.426,0.22l1.806,0.164l1.802,0.163l1.805,0.165l1.805,0.163l2.494,0.225l1.035-0.221l0.619-0.132l0.416-0.089
		l1.035-0.221l1.038-0.221l2.646,0.328l2.644,0.328l2.642,0.328l2.65,0.33l2.357,0.311l2.36,0.312l2.36,0.312l2.357,0.311
		l1.322,0.176h0.002l0.012,0.003l0.002,0.001l0.29,0.497l1.141,1.954l1.313,3.607l0.11,0.681l0.091,1.456l0.228,0.823l0.323,0.796
		l0.359,0.611l0.505,0.468l0.543,0.384l0.443,0.464l0.197,0.715l1.272-0.012l4.21-0.045l4.211-0.045l4.211-0.043l4.205-0.043
		l0.559,0.594l0.293,0.211l0.613,0.283l0.092,0.195l0.216,1.178l0.004,0.901l-0.208,0.601l-0.543-0.199l-0.116,0.177l-0.029,0.078
		l-0.029,0.113l0.463,0.033l0.393-0.101l0.295-0.252l0.156-0.416l0.274,0.184l-0.013,0.241l-0.26,0.494l-0.145,0.703l-0.017,0.316
		l0.121,0.635l0.301,0.539l1.977,2.192l0.121,0.323l-0.341,0.515l-0.175,0.503l-0.021,0.527l0.133,0.573l0.237,0.427l0.75,1.036
		l0.158,0.278l-0.035,0.315l-0.029,0.102l0.372,0.226l0.809,0.367l0.258,0.029l0.809-0.029l0.208,0.061l0.474,0.262l0.285,0.06
		l0.096,0.072l-0.012,0.167l-0.077,0.186l-0.089,0.124l-0.152,0.07l-0.16-0.01l-0.173-0.06l-0.407,0.204l-0.106,0.171l0.031,0.373
		l0.227,0.358l0.474,0.489l0.543,0.432l0.438,0.186l0.012,0.119l0.532,0.802l0.954,0.95l0.112,0.27l-0.21,0.539l-0.029,0.34
		l0.019,0.315l0.079,0.137l-0.052,0.189l-0.214,0.425l-0.301,0.443l-0.322,0.238l0.166-0.314l0.035-0.225l-0.052-0.657l0.071-0.376
		l0.137-0.216l0.079-0.219l-0.112-0.386l-0.351,0.373l-0.385,0.996l-0.397,0.277l0.436-1.155l0.05-0.307l-0.118-0.507l-0.191,0.038
		l-0.2,0.364l-0.447,1.882l-0.015,0.431l-0.054,0.065l-0.081,0.176l0.029,0.146l0.268-0.022l0.131-0.128l0.168-0.449l0.174-0.17
		v1.194l0.094,0.284l0.22-0.037l0.224-0.227l0.123-0.284l0.166,0.294l0.027,0.355l-0.044,0.446l0.299,0.115l0.227-0.133l0.174-0.259
		l0.121-0.27l0.01,0.461l-0.05,0.163l-0.121,0.122l0.116,0.243l-0.025,0.163l-0.154,0.088l-0.26,0.02l0.241,0.585l0.083,0.162
		l-0.576-0.29l-0.239,0.004l-0.168,0.286l0.497,0.21l0.426-0.026l0.331-0.252l0.214-0.479h0.162l0.162,0.381l-0.289,0.294
		l-0.098,0.524l0.133,0.431l0.416,0.013l0.173-0.196l-0.104-0.187l-0.183-0.183l-0.048-0.18l0.185-0.246l0.254-0.139l0.545-0.131
		l0.461-0.043l0.312,0.154l0.844,0.785l0.873,0.452l0.231,0.319l-0.457,0.325l0.337,0.161l0.301-0.036l0.143-0.188l-0.133-0.302
		l0.399,0.18l0.412,0.113l0.9,0.072l0.198-0.058l0.42-0.251l0.191-0.057l0.249,0.03l0.468,0.137l0.256,0.03l0.478,0.142l0.364,0.34
		l0.543,0.778l0.172,0.15l0.17,0.093l0.156,0.113l0.148,0.208l0.06,0.203l0.046,0.476l0.069,0.215l-0.299,0.015l-0.177-0.13
		l-0.066-0.251l0.044-0.346h-0.162l-0.497,0.599l-1.305-0.139l-0.465,0.452h-0.173l-0.162-0.458l-0.41-0.004l-0.898,0.463
		l0.197,0.113l0.52,0.149l0.268,0.118l0.21,0.156l0.139,0.139l0.166,0.126l0.293,0.125l0.154,0.207l0.119,0.093l0.131-0.043
		l0.401-0.401l0.004-0.055l0.127-0.114l0.054-0.155l0.069-0.086l0.158,0.091l0.181,0.16l0.22,0.104l-0.166,0.369l-0.225,0.185
		l-0.233,0.133l-0.185,0.225l-0.069,0.293l-0.016,0.692l-0.064,0.306l0.252-0.069l0.278-0.148l0.274-0.2l0.239-0.221l0.27-0.095
		l0.316,0.089l0.488,0.28l-0.187,0.519l0.071,0.512l0.172,0.519l0.093,0.543l-0.046,1.138l0.131,0.479l0.401-0.056l-0.027,0.485
		l0.162,0.181l0.254-0.058l0.258-0.244l-0.119-0.399l0.214-0.256l0.368-0.024l0.343,0.314l0.146-0.198l0.125,0.3l-0.069,0.269
		l-0.129,0.283l-0.073,0.348l-0.081,0.204l-0.204,0.087l-0.264,0.004l-0.256-0.039l0.189,0.308l0.574,0.116l0.189,0.319l0.239-0.144
		l0.152-0.222l0.272-0.542l0.019,0.119l0.021,0.015l0.041-0.008l0.081,0.038l-0.237,0.475l0.197,0.079l0.603-0.191l0.37,0.067
		l0.64,0.278l0.382,0.034l-0.642-0.702l-0.195-0.417l0.355-0.351l0.293-0.012l0.229,0.148l0.208,0.177l0.237,0.067l0.185-0.082
		l0.459-0.464l-0.083,0.423l-0.218,0.647l-0.019,0.384l0.143,0.609l0.129,0.336l0.129,0.146l0.443,0.209l0.432,0.499l1.366,2.155
		l0.694,0.868l0.208,0.162l0.673,0.298l0.218,0.176l0.347,0.362l0.245,0.188l1.472,0.679l0.919,0.677l0.526,0.058l0.549-0.031
		l0.59,0.083l0.73,0.424l0.686,0.674l1.185,1.619l0.405,0.725l1.725,1.252l0.391,0.437l0.081,0.679l-1.07-0.958l-0.572-0.365
		l-1.295-0.162l-0.335-0.114l-0.229-0.298l-0.181-0.978l-0.208,0.166l-0.216,0.449l-0.112,0.43l-0.019,0.331l0.008,0.317
		l0.077,0.291l0.17,0.255l0.237,0.252l0.064,0.134l-0.098,1.621l0.035,0.442l0.638,2.014l0.266,0.427l0.389,0.384l0.432,0.269
		l2.031,0.706l0.694,0.622l0.418,0.899l0.174,1.205l-0.014,2.875l-0.089,0.627l-0.243,0.526l-0.464,0.297l-0.012-0.406l-0.185-0.138
		l-0.252,0.092l-0.21,0.29l0.152,0.663l-0.062,1.019l-0.189,1.035l-0.214,0.719l-0.368-0.277l-0.104-0.377l0.01-0.415l-0.037-0.388
		l-0.166-0.318l-0.212-0.21l-0.224-0.168l-0.193-0.203l-0.129-0.1h-0.11l-0.073-0.064l-0.046-0.731l-0.048-0.177l-0.093-0.205
		l-0.185-0.26l-0.289-0.289l-0.314-0.173l-0.27,0.09l-0.619,1.201l-0.191,0.167l-0.26,0.164l0.121,0.355l0.251,0.343l0.137,0.129
		l0.052,0.193l0.22,0.38l0.039,0.253l-0.079,0.065l-0.164,0.059l-0.166,0.108l-0.075,0.201l0.056,0.384l0.089,0.373l0.019,0.381
		l-0.164,0.408l0.399,0.138l0.335-0.209l0.17-0.396l-0.096-0.434l0.227,0.069l0.162,0.134l0.272,0.338l0.127,0.06l0.102-0.026
		l0.069,0.02l0.025,0.207l0.002,0.16l0.027,0.084l0.069,0.031l0.145,0.002l0.601,0.146l0.241,0.355l0.123,0.468l0.26,0.47v0.18
		l-0.472,0.495l0.251,1.234l0.559,1.362l0.472,0.879l1.424,1.718l0.598,0.997l0.243,1.249h-0.148l-0.414-1.251l-0.166-0.201
		l-0.287-0.065l-0.347-0.164l-0.295-0.202l-0.297-0.444l-0.374-0.297l-0.343-0.042l-0.079,0.513l0.173,0.367l0.607,0.443
		l0.191,0.267l0.125-0.265l0.037-0.111h0.162l0.9,1.891l2.698,3.493l0.622,0.55l-0.069-0.35l-0.156-0.408l-0.065-0.34l0.208-0.141
		l0.251-0.118l0.108,0.059l0.096,0.577l0.12,0.141l0.116,0.077l0.052,0.063l0.191,0.364l0.439,0.207l0.809,0.243l0.204,0.255
		l0.459,1.178l-0.177,0.179l0.289,0.403l0.32,0.694l0.266,0.755l0.112,0.579l-0.027,0.326l-0.123,0.582l-0.027,0.344l0.052,0.333
		l0.11,0.237l0.11,0.178l0.133,0.452l0.341,0.635l0.06,0.4l-0.146,1.07l0.191,1.063l0.206,0.604l0.251,0.313l0.181-0.504
		l0.613,0.508l0.644,0.818l0.268,0.427l0.399,0.394l0.468,1.726l0.596,0.392l0.47,0.449l0.204,0.998l0.054,1.598l0.098,0.302
		l0.202,0.455l0.25,0.436l0.254,0.246l0.351-0.007L549.748,300.588z M345.568,504.418l-0.003,0.349l-0.067,0.444l-0.164,0.539
		l0.06,0.414l0.216,0.733l-0.236,0.498l0.008,0.04l-0.538-0.037l-0.66-0.8l-0.538-0.195l-0.508-0.036l-0.252-0.225l0.669-0.28
		l0.384-0.314l-0.154-0.51l-0.601-0.323l-0.604,0.09l-0.699,0.058l-0.478,0.123l-0.447,0.251l-0.383,0.219l-0.475-0.162
		l-0.536-0.513l-0.378-0.352l-0.539-0.131l-0.632-0.449l-0.569-0.449l-0.283-0.51l-0.153-0.764l-0.412-0.289l-0.414-0.003
		l-0.282-0.066l0.062-0.164l-0.029-0.535l-0.347-0.448l-0.22-0.479l0.035-0.445l0.35,0.098l0.126,0.192l0.285,0.225l0.92,0.42
		l0.505,0.576l0.252,0.352l0.091,0.604l-0.015,0.286l0.423,0.48l0.41,0.353l0.158,0.096l0.858-0.089l0.283,0.447l0.476,0.036
		l0.478-0.155l0.413-0.028l0.284,0.288l-0.002,0.286l0.286,0.002l0.701-0.312l-0.666-0.133l-0.349-0.546l0.287-0.446l0.177-0.705
		l0.154-0.242l0.339-0.052l0.15,0.06l0.189,0.076l0.653,0.405l0.028,0.413l0.313,0.511l-0.046,0.266l0.583,0.088l0.155,0.478
		L345.568,504.418z M339.232,502.3l-0.347-0.289l-0.346-0.448l-0.599-0.767l-0.504-0.703l-0.191-0.28v-0.002l0.266-0.236
		l0.572-0.034l0.416-0.127l0.306-0.262l0.239-0.437l0.243,0.02l0.044,0.004l0.127-0.492l-0.179-0.595l-0.318-0.145l-0.318-0.145
		l-0.306-0.025l-0.534-0.117l-0.293-0.026l-0.058-0.109l0.181-0.2l0.224-0.092l0.058,0.215l0.767,0.076l0.603,0.245l0.403,0.474
		l0.021,0.101l0.144,0.657l0.007,0.471l-0.131,0.54l0.092,0.446l0.762,0.197l0.218,0.542l-0.973,0.014l-0.279,0.362l0.139,0.421
		l0.58,0.203l0.33,0.201l0.447,0.198l0.154,0.605l-0.003,0.286l-0.696-0.419l-0.856-0.261L339.232,502.3z M520.324,231.908
		l0.466,0.199l1.262,0.364l1.193,0.345l-0.436,0.167l-0.362-0.085l-0.349-0.17l-0.393-0.092l-0.391,0.053l-0.366,0.151l-0.335,0.227
		l-0.289,0.28l-0.189-0.205l-0.025,0.017L520,233.18l-0.193-0.14l-0.127-0.057l-0.004-0.001v-0.166l0.316-0.137l0.062-0.145
		l-0.1-0.165l-0.102-0.103l-0.094-0.094l-0.243-0.115l-0.26,0.041l-0.253,0.1l-0.222,0.056l-0.301,0.124l-0.299,0.315l-0.262,0.419
		l-0.181,0.434l-0.062-0.694l0.44-0.683l0.688-0.494l0.711-0.131l0.266,0.047l0.202,0.098L520.324,231.908z M223.375,282.991
		l0.249,0.205l0.118,0.116l-0.054,0.025l-0.104-0.046l-0.179-0.03l-0.021,0.109l0.096,0.169l-0.189-0.029l-0.466-0.306l-0.119-0.286
		l0.04-0.177l-0.229-0.025l-0.291,0.083l-0.162-0.219l-0.116-0.359h-0.214l-0.26,0.186l-0.052-0.181l0.177-0.491l0.227-0.269
		l0.289-0.002l0.328,0.048l0.279,0.173l0.229,0.513l0.152-0.019l0.052-0.187l0.098,0.129L223.375,282.991z M221.368,283.024
		l0.384-0.017l0.073,0.118l-0.434,0.236l-0.183,0.145l-0.251,0.285l-0.237,0.477l-0.357,0.259l-0.499-0.333l-0.449-0.502
		l-0.432-0.342l-0.952-1.021l-0.062-0.066l-0.085-0.154v-0.097l0.046,0.01l0.048-0.054l-0.044-0.153l-0.227-0.26l-0.272-0.386
		l0.01-0.19l0.251,0.061l0.231,0.197l0.434,0.542l0.202,0.158l0.434,0.239l0.831,0.362l0.397,0.106l0.297,0.034l0.22,0.129
		l0.108,0.187l-0.493,0.019l-0.073,0.338l0.189,0.31l0.283-0.073l0.289-0.321L221.368,283.024z M219.171,280.016l-0.225-0.074
		l-0.305-0.298l0.046-0.372l0.293-0.228l0.339,0.045l0.258,0.283l-0.012,0.306l-0.251,0.241L219.171,280.016z M217.77,280.938
		l-0.227-0.171l-0.112-0.03l-0.108-0.041l-0.127-0.188l-0.013-0.263l-0.21-0.073l-0.331-0.058l-0.062-0.092l0.096,0.033
		l-0.025-0.116l-0.202-0.282l-0.358-0.237l-0.424,0.026l-0.193,0.117l-0.104,0.1l-0.181,0.059l0.006-0.245l0.233-0.361l0.368-0.106
		l0.445,0.159l1.172,0.782l0.131,0.201l0.123,0.308l0.36,0.22l0.37,0.138l0.53,0.327l0.84,0.698l0.208,0.236l-0.035,0.094
		l-0.093,0.08l0.029,0.114l-0.127-0.068l-0.364-0.286l-0.316-0.199l-0.243-0.061l-0.096-0.167l-0.125-0.289l-0.22-0.109
		l-0.152,0.065l-0.216-0.07L217.77,280.938z M220.387,279.589l-0.031-0.748l-0.031-0.165l0.002-0.299l0.152-0.203l0.231-0.091
		l0.204,0.099l0.112,0.256l0.015,0.244l-0.062,0.19l-0.11,0.009l-0.145-0.113l-0.027,0.046l0.062,0.193l-0.015,0.09l-0.054-0.03
		l0.162,0.369l0.17,0.699l-0.104,0.238l-0.266-0.408l-0.154-0.109L220.387,279.589z M215.234,278.984l-0.027,0.157l-0.141,0.304
		l-0.199,0.131l-0.158-0.08l-0.312-0.228l-1.896-0.971l-0.513-0.125l-0.158,0.369l-0.235-0.122l-0.449-0.436l-0.303-0.356
		l-0.148-0.555l0.195-0.459l0.586-0.611l0.258-0.325l0.197-0.124l0.039,0.168l-0.139,0.303l-0.397,0.599l0.031,0.244l0.168,0.218
		l0.164,0.125l0.143,0.005l0.116,0.047l0.121,0.171l0.191,0.109l0.197,0.072l0.613,0.636l0.312,0.229l0.32,0.027l0.195-0.05
		l0.064,0.064l0.017,0.186l0.081,0.218l0.218,0.096l0.208-0.023l0.035-0.019l-0.077-0.03l0.015-0.114l0.11-0.106l0.197,0.029
		L215.234,278.984z M211.946,274.806l-0.037-0.21l-0.064-0.556l0.058-1.09l0.378-0.906l0.597-0.566l0.17-0.07l-0.316,0.315
		l-0.258,0.41l-0.195,0.452l-0.069,0.513l0.206,0.461l0.453,0.434l0.179,0.077l0.166,0.026l-0.012,0.175l-0.204,0.347l-0.077,0.342
		l0.029,0.15l0.04,0.145l0.181,0.141l0.274-0.062l0.083,0.047l-0.129,0.219l-0.239,0.119l-0.297-0.055l-0.474-0.384l-0.266-0.171
		L211.946,274.806z"/>
	<g>
		
			<image style="overflow:visible;opacity:0.46;" width="587" height="183" xlink:href="AD82158B.png"  transform="matrix(1 0 0 1 128 237)">
		</image>
		<g>
			<g>
				<g>
					<path d="M138.808,346.106l21.924-81.652h22.635l21.924,81.652h-11.496l-5.333-19.554h-32.945l-5.333,19.554H138.808z
						 M157.77,316.835h28.561l-11.377-42.9h-5.807L157.77,316.835z"/>
					<path d="M216.905,346.106v-81.652h30.575c5.372,0,9.896,0.711,13.569,2.133c3.673,1.422,6.477,3.655,8.414,6.696
						c1.935,3.042,2.903,7.012,2.903,11.91c0,3.478-0.396,6.399-1.185,8.77c-0.791,2.37-1.917,4.366-3.377,5.984
						c-1.463,1.621-3.3,2.983-5.511,4.089c2.37,0.87,4.503,2.035,6.399,3.496c1.896,1.463,3.377,3.457,4.444,5.984
						c1.067,2.529,1.6,5.729,1.6,9.6c0,4.346-0.613,7.999-1.837,10.962c-1.226,2.963-2.983,5.314-5.273,7.051
						c-2.292,1.739-5.037,3.004-8.236,3.792c-3.2,0.791-6.737,1.186-10.606,1.186H216.905z M228.282,300.007h19.317
						c4.818,0,8.275-1.126,10.369-3.377c2.093-2.252,3.141-5.668,3.141-10.251c0-4.344-1.167-7.525-3.496-9.54
						c-2.331-2.015-5.907-3.022-10.725-3.022h-18.605V300.007z M228.282,336.744h19.909c3.159,0,5.866-0.414,8.118-1.244
						c2.252-0.829,4.009-2.251,5.274-4.266c1.263-2.015,1.896-4.878,1.896-8.593c0-2.922-0.533-5.273-1.6-7.051
						c-1.067-1.777-2.411-3.12-4.029-4.029c-1.621-0.907-3.318-1.521-5.096-1.837c-1.777-0.314-3.457-0.474-5.037-0.474h-19.435
						V336.744z"/>
					<path d="M318.348,347.292c-6.163,0-11.436-0.871-15.821-2.607c-4.385-1.737-7.723-4.542-10.014-8.414
						c-2.292-3.87-3.437-9.046-3.437-15.524v-56.292h11.377v56.647c0,5.768,1.58,9.937,4.74,12.503
						c3.159,2.567,7.544,3.852,13.155,3.852c5.925,0,10.467-1.284,13.628-3.852c3.159-2.566,4.74-6.735,4.74-12.503v-56.647h11.377
						v56.292c0,6.321-1.146,11.456-3.437,15.406c-2.292,3.951-5.649,6.795-10.073,8.532
						C330.158,346.421,324.748,347.292,318.348,347.292z"/>
					<path d="M393.362,346.106v-82.6h30.337c5.529,0,10.133,1.066,13.807,3.2c3.674,2.133,6.596,5.057,8.77,8.77
						c2.172,3.714,3.732,7.999,4.682,12.858c0.947,4.859,1.422,10.014,1.422,15.465c0,5.374-0.475,10.588-1.422,15.644
						c-0.949,5.057-2.51,9.599-4.682,13.628c-2.174,4.029-5.096,7.211-8.77,9.54c-3.674,2.331-8.277,3.496-13.807,3.496H393.362z
						 M399.287,340.655h24.412c4.424,0,8.078-1.066,10.963-3.199c2.883-2.134,5.174-4.978,6.873-8.533
						c1.697-3.555,2.902-7.525,3.613-11.91c0.713-4.385,1.068-8.788,1.068-13.214c0-4.423-0.355-8.729-1.068-12.917
						c-0.711-4.187-1.916-7.94-3.613-11.258c-1.699-3.318-3.99-5.926-6.873-7.822c-2.885-1.896-6.539-2.844-10.963-2.844h-24.412
						V340.655z"/>
					<path d="M470.034,346.106v-82.6h5.926v82.6H470.034z"/>
					<path d="M515.066,346.106v-35.315l-26.665-47.285h6.755l22.872,41.123l22.872-41.123h6.756l-26.665,47.285v35.315H515.066z"/>
					<path d="M552.515,346.106l24.531-82.6h15.051l24.531,82.6h-5.926l-7.11-23.938h-38.041l-7.11,23.938H552.515z M567.092,316.717
						h34.959l-14.221-47.878h-6.518L567.092,316.717z"/>
					<path d="M630.254,346.106v-82.6h28.916c5.372,0,9.837,0.731,13.392,2.192c3.556,1.463,6.24,3.714,8.059,6.755
						c1.816,3.042,2.726,6.933,2.726,11.673c0,3.715-0.474,6.855-1.422,9.421c-0.948,2.568-2.252,4.643-3.911,6.222
						c-1.659,1.582-3.596,2.845-5.807,3.793c2.37,0.633,4.641,1.699,6.814,3.199c2.172,1.502,3.93,3.576,5.273,6.222
						c1.343,2.648,2.015,6.064,2.015,10.251c0,4.426-0.593,8.118-1.777,11.081c-1.186,2.962-2.903,5.294-5.155,6.991
						c-2.252,1.7-4.899,2.924-7.94,3.674c-3.042,0.752-6.458,1.126-10.251,1.126H630.254z M636.18,301.311h24.058
						c6.003,0,10.349-1.422,13.035-4.267c2.686-2.844,4.029-7.07,4.029-12.68c0-5.452-1.501-9.401-4.503-11.851
						c-3.004-2.448-7.585-3.674-13.747-3.674H636.18V301.311z M636.18,340.773h24.887c3.792,0,7.129-0.533,10.014-1.6
						c2.884-1.066,5.135-2.862,6.755-5.392c1.619-2.528,2.43-6.083,2.43-10.666c0-3.87-0.752-6.912-2.252-9.125
						c-1.501-2.211-3.338-3.852-5.51-4.918c-2.175-1.067-4.367-1.737-6.578-2.015c-2.212-0.276-4.108-0.415-5.688-0.415H636.18
						V340.773z"/>
				</g>
			</g>
		</g>
	</g>
</g>
<g id="Copyright">
</g>
</svg>
