<svg width="26" height="26" viewBox="0 0 26 26" fill="none" xmlns="http://www.w3.org/2000/svg">
<rect width="26" height="26" rx="13" fill="#006699"/>
<path d="M10.0089 18.2684V11.245H7.67654V18.2684H10.0092H10.0089ZM8.84322 10.2863C9.6564 10.2863 10.1627 9.74696 10.1627 9.07298C10.1474 8.38363 9.6564 7.85938 8.85868 7.85938C8.06042 7.85938 7.53906 8.38363 7.53906 9.07292C7.53906 9.7469 8.04514 10.2862 8.82794 10.2862H8.84304L8.84322 10.2863ZM11.2999 18.2684H13.6321V14.3466C13.6321 14.137 13.6473 13.9268 13.709 13.7771C13.8775 13.3575 14.2612 12.9232 14.9057 12.9232C15.7495 12.9232 16.0872 13.5672 16.0872 14.5115V18.2684H18.4193V14.2414C18.4193 12.0842 17.2688 11.0804 15.7344 11.0804C14.4763 11.0804 13.9238 11.7842 13.6168 12.2635H13.6323V11.2453H11.3C11.3305 11.9041 11.2999 18.2686 11.2999 18.2686L11.2999 18.2684Z" fill="white"/>
</svg>
