<svg width="20" height="20" viewBox="0 0 20 20" fill="none" xmlns="http://www.w3.org/2000/svg">
<g clip-path="url(#clip0_2578_89565)">
<path d="M10.001 0.5C6.73078 0.5 4.05078 3.0384 4.05078 6.13654C4.05078 7.33696 4.45438 8.45264 5.13738 9.36958L9.27478 16.1645C9.85418 16.8837 10.2394 16.7471 10.7212 16.1266L15.2848 8.74885C15.3768 8.59039 15.4492 8.42167 15.5122 8.24934C15.8018 7.57892 15.9507 6.86121 15.9506 6.13654C15.9508 3.0384 13.2716 0.5 10.001 0.5ZM10.001 3.141C11.7622 3.141 13.1626 4.46834 13.1626 6.13654C13.1626 7.80474 11.7622 9.13151 10.001 9.13151C8.23998 9.13151 6.83898 7.80493 6.83898 6.13654C6.83898 4.46834 8.23998 3.14119 10.001 3.14119" fill="#505AC9"/>
<path d="M13.7826 9.79297L13.773 9.81691C13.776 9.80969 13.7784 9.80228 13.7814 9.79506L13.7826 9.79297ZM6.8012 13.6213C3.976 14.0005 2 14.9078 2 16.2433C2 18.0422 5.3016 19.5004 10 19.5004C14.6984 19.5004 18 18.0422 18 16.2433C18 14.9078 16.0242 14.0005 13.1992 13.6213L12.8078 14.2544C14.937 14.535 16.4 15.1247 16.4 15.8091C16.4 16.7686 13.5346 17.5463 10 17.5463C6.4654 17.5463 3.6 16.7686 3.6 15.8091C3.5998 15.127 5.0532 14.5378 7.189 14.2561C7.06 14.0444 6.9304 13.8331 6.8012 13.6213Z" fill="#505AC9"/>
</g>
<defs>
<clipPath id="clip0_2578_89565">
<rect width="20" height="19" fill="white" transform="translate(0 0.5)"/>
</clipPath>
</defs>
</svg>
