<svg width="20" height="24" viewBox="0 0 20 24" fill="none" xmlns="http://www.w3.org/2000/svg">
<path d="M14.9637 16.1533H5.47555V22.491L7.94684 21.3733H12.5075L14.9788 22.491V17.7181C14.9738 17.7203 14.9687 16.1512 14.9637 16.1533Z" fill="#3F43B6"/>
<path d="M10.2272 16.1534L5.47555 16.1533V22.491L7.94684 21.3733L10.2272 21.3733V16.1534Z" fill="#3F43B6"/>
<path d="M7.94689 16.1523V23.9997L10.2272 22.9683L12.5075 23.9997V16.1543L7.94689 16.1523Z" fill="#A6B6EA"/>
<path d="M10.2272 16.1534L7.94689 16.1523V23.9997L10.2272 22.9683V16.1534Z" fill="#CAD3F3"/>
<path d="M0.453125 9.29808L1.87541 6.5843L2.31941 3.55247L5.06698 2.19473L7.20617 0L10.2272 0.518953L13.2482 0L15.3874 2.19473L18.1349 3.55247L18.579 6.5843L20.0012 9.29808L18.579 12.0119L18.1349 15.0436L15.3874 16.4014L13.2482 18.5961L10.2272 18.0772L7.20617 18.5962L5.06698 16.4014L2.31941 15.0436L1.87541 12.0119L0.453125 9.29808Z" fill="#3F43B6"/>
<path d="M10.2272 0.518953L7.20617 0L5.06698 2.19473L2.31941 3.55247L1.87541 6.5843L0.453125 9.29808L1.87541 12.0119L2.31941 15.0436L5.06698 16.4014L7.20617 18.5962L10.2272 18.0772V0.518953Z" fill="#A6B6EA"/>
<path d="M10.2273 16.6839C14.3064 16.6839 17.6132 13.3772 17.6132 9.29808C17.6132 5.21898 14.3064 1.91222 10.2273 1.91222C6.14821 1.91222 2.84145 5.21898 2.84145 9.29808C2.84145 13.3772 6.14821 16.6839 10.2273 16.6839Z" fill="#A6B6EA"/>
<path d="M10.2273 1.91222C6.14821 1.91222 2.84145 5.21898 2.84145 9.29808C2.84145 13.3772 6.14821 16.6839 10.2273 16.6839V1.91222Z" fill="#CAD3F3"/>
<path d="M10.2272 3.78906C7.18944 3.78906 4.718 6.2605 4.718 9.29833C4.718 12.3362 7.18939 14.8076 10.2272 14.8076C13.265 14.8076 15.7364 12.3362 15.7364 9.29833C15.7364 6.2605 13.265 3.78906 10.2272 3.78906Z" fill="#3F43B6"/>
<path d="M10.2272 3.78906C7.18944 3.78906 4.718 6.2605 4.718 9.29833C4.718 12.3362 7.18939 14.8076 10.2272 14.8076L10.2272 3.78906Z" fill="#A6B6EA"/>
</svg>
