<svg width="20" height="21" viewBox="0 0 20 21" fill="none" xmlns="http://www.w3.org/2000/svg">
<g clip-path="url(#clip0_2515_74886)">
<path fill-rule="evenodd" clip-rule="evenodd" d="M9.96717 0C13.5099 2.25842 16.7103 3.32688 19.4571 3.07429C19.9368 12.8323 16.3536 18.5949 10.0039 21C3.87197 18.7489 0.244989 13.2342 0.513988 2.92629C3.7384 3.096 6.90181 2.39497 9.96717 0ZM10.0436 3.33987C12.4595 4.87983 14.6421 5.60837 16.5151 5.43645C16.8422 12.0906 14.3988 16.0202 10.0688 17.6601C10.0414 17.65 10.0146 17.6396 9.98739 17.6294V3.38311L10.0436 3.33987ZM9.97091 1.20569C13.1068 3.20469 15.9399 4.15061 18.3712 3.9269C18.7957 12.5643 15.6241 17.6654 10.0037 19.7941C4.57582 17.8016 1.365 12.9204 1.60324 3.79583C4.45754 3.94622 7.25764 3.32568 9.97091 1.20569Z" fill="#505AC9"/>
<path fill-rule="evenodd" clip-rule="evenodd" d="M10.0328 0C6.49014 2.25842 3.28968 3.32688 0.54294 3.07429C0.0632286 12.8323 3.64636 18.5949 9.99612 21C16.128 18.7489 19.755 13.2342 19.486 2.92629C16.2616 3.096 13.0982 2.39497 10.0328 0ZM9.95636 3.33987C7.54047 4.87983 5.35789 5.60837 3.48493 5.43645C3.15782 12.0906 5.60123 16.0202 9.93121 17.6601C9.95857 17.65 9.98542 17.6396 10.0126 17.6294V3.38311L9.95636 3.33987ZM10.0291 1.20569C6.89321 3.20469 4.06014 4.15061 1.62879 3.9269C1.20431 12.5643 4.37587 17.6654 9.99629 19.7941C15.4242 17.8016 18.635 12.9204 18.3968 3.79583C15.5425 3.94622 12.7424 3.32568 10.0291 1.20569Z" fill="#505AC9"/>
</g>
<defs>
<clipPath id="clip0_2515_74886">
<rect width="19" height="21" fill="white" transform="translate(0.5)"/>
</clipPath>
</defs>
</svg>
