<svg width="20" height="20" viewBox="0 0 20 20" fill="none" xmlns="http://www.w3.org/2000/svg">
<g clip-path="url(#clip0_1610_71892)">
<path d="M13.5436 0.527344L3.99609 19.4405H6.53924L16.0136 0.527344H13.5436Z" fill="#505AC9"/>
<path d="M16.0386 10.002C14.8154 10.002 13.8523 10.3901 13.1467 11.1638C12.4423 11.9376 12.0898 13.1282 12.0898 14.7326C12.0898 16.3469 12.443 17.5413 13.1467 18.3151C13.8523 19.0888 14.828 19.4757 16.0755 19.4757C17.2811 19.4757 18.2374 19.0888 18.9417 18.3151C19.6467 17.542 19.9998 16.3469 19.9998 14.7326C19.9998 13.1282 19.6467 11.9376 18.9417 11.1638C18.2374 10.3901 17.2686 10.002 16.0386 10.002ZM16.8574 17.0688C16.6624 17.362 16.3805 17.5088 16.0143 17.5088C15.6561 17.5088 15.3743 17.3575 15.1711 17.0563C14.9011 16.6638 14.768 15.8863 14.768 14.7213C14.768 13.5551 14.9018 12.7732 15.1711 12.3726C15.3661 12.0794 15.648 11.9326 16.0143 11.9326C16.3805 11.9326 16.6655 12.0794 16.8699 12.3726C17.1318 12.7732 17.2612 13.5551 17.2612 14.7213C17.2605 15.8869 17.1267 16.6688 16.8574 17.0688Z" fill="#505AC9"/>
<path d="M7.90874 5.25796C7.90874 3.64485 7.55559 2.45298 6.85188 1.68359C6.14625 0.912323 5.17061 0.527344 3.92314 0.527344C2.71751 0.527344 1.76127 0.915466 1.0569 1.68922C0.351224 2.46232 0 3.65298 0 5.25796C0 6.87232 0.351224 8.0642 1.05686 8.83359C1.76122 9.60485 2.73812 9.98861 3.98437 9.98861C5.19122 9.98861 6.14625 9.60171 6.85188 8.828C7.55625 8.0542 7.90874 6.8642 7.90874 5.25796ZM4.78 7.58171C4.57563 7.87485 4.29127 8.02171 3.92314 8.02171C3.56502 8.02171 3.28441 7.87485 3.08004 7.58171C2.81192 7.18232 2.6769 6.39922 2.6769 5.23485C2.6769 4.06861 2.81192 3.28673 3.08004 2.88612C3.28441 2.59298 3.56502 2.44612 3.92314 2.44612C4.29065 2.44612 4.57563 2.59738 4.78 2.89861C5.04 3.2911 5.17127 4.06861 5.17127 5.23485C5.17122 6.39922 5.04 7.18298 4.78 7.58171Z" fill="#505AC9"/>
</g>
<defs>
<clipPath id="clip0_1610_71892">
<rect width="20" height="20" fill="white"/>
</clipPath>
</defs>
</svg>
