<svg width="18" height="22" viewBox="0 0 18 22" fill="none" xmlns="http://www.w3.org/2000/svg">
<path d="M9 0.75C4.44375 0.75 0.75 4.44375 0.75 9C0.75 13.8705 5.04525 18.741 7.437 21.0758C8.30625 21.924 9.69375 21.924 10.5623 21.0758C12.9548 18.741 17.25 13.8705 17.25 9C17.25 4.44375 13.5562 0.75 9 0.75ZM9 13.5C6.5145 13.5 4.5 11.4855 4.5 9C4.5 6.5145 6.5145 4.5 9 4.5C11.4855 4.5 13.5 6.5145 13.5 9C13.5 11.4855 11.4855 13.5 9 13.5ZM12.75 9C12.75 11.0677 11.0677 12.75 9 12.75C6.93225 12.75 5.25 11.0677 5.25 9C5.25 6.93225 6.93225 5.25 9 5.25C11.0677 5.25 12.75 6.93225 12.75 9Z" fill="#505AC9"/>
</svg>
