<svg width="250" height="250" viewBox="0 0 250 250" fill="none" xmlns="http://www.w3.org/2000/svg">
<path fill-rule="evenodd" clip-rule="evenodd" d="M98.1255 192.146C65.0494 194.398 29.6934 167.663 29.6934 135.125C29.6934 102.586 82.12 116.453 99.1266 90.6281C139.874 28.7939 222.137 128.296 193.218 139.401C135.271 161.638 177.468 186.74 98.1255 192.146Z" fill="#F0EFF4"/>
<path d="M188.503 133.817C188.521 133.903 188.565 133.985 188.584 134.071C188.73 134.884 188.823 135.437 188.726 136.148C188.495 137.667 187.434 139.138 188.047 141.062C188.708 143.788 192.047 145.445 192.946 142.743C193.461 140.958 192.584 138.786 191.603 136.814C191.057 135.757 190.428 134.745 189.723 133.787C190.495 133.736 191.255 133.566 191.975 133.283C192.127 133.223 192.251 133.169 192.403 133.108C192.446 133.13 192.517 133.146 192.56 133.168C193.884 132.606 194.97 132.062 196.317 131.706C198.633 131.04 201.567 130.372 201.786 127.894C201.809 127.108 201.089 126.317 200.335 125.744C199.316 125.061 198.073 124.799 196.866 125.014C194.785 125.273 193.349 126.518 192.571 128.054C192.092 129.02 191.871 130.116 191.721 131.228C191.688 131.776 191.559 132.372 191.695 132.947C190.811 133.301 189.834 133.434 188.797 133.457C188.746 133.444 188.693 133.444 188.642 133.457C188.271 133.467 187.9 133.449 187.532 133.406C187.447 131.709 188.139 130.129 188.745 128.507C188.943 127.866 189.211 127.242 189.28 126.537C189.813 126.699 190.364 126.793 190.92 126.816C191.947 126.884 192.821 126.291 192.429 125.316C191.729 124.01 189.303 123.376 187.987 123.124C186.866 122.953 185.729 122.924 184.601 123.039C184.446 123.044 184.291 123.064 184.14 123.099C184.801 122.458 185.434 121.822 186.053 121.159C186.605 120.6 187.126 119.986 187.663 119.399C189.419 119.775 191.018 120.753 192.645 121.726C194.62 122.99 196.684 124.358 198.707 123.719C200.408 123.113 200.319 120.966 198.384 119.664C196.421 118.367 194.068 117.808 191.985 117.676C191.139 117.622 190.29 117.638 189.447 117.725C189.363 117.741 189.264 117.731 189.153 117.753L190.604 116.204C191.425 115.351 192.261 114.525 193.081 113.672C193.18 113.683 193.306 113.688 193.433 113.693C193.969 113.768 194.195 113.784 194.746 113.886C196.12 114.186 197.514 114.633 198.886 114.874C200.2 115.093 201.537 115.143 202.864 115.023C203.828 114.923 204.848 114.813 205.646 114.415C207.089 113.68 207.229 111.999 205.173 110.811C203.375 109.882 201.34 109.518 199.332 109.766C198.803 109.87 198.173 109.903 197.705 110.116L197.31 109.742L197.366 109.731C198.505 109.116 199.763 108.658 201.049 108.194C202.738 107.621 204.54 107.086 206.368 106.485C207.129 106.907 207.789 107.258 208.573 107.885C210.678 109.546 212.179 112.227 214.225 114.169C215.629 115.516 219.307 117.889 221.076 117.57C224.726 116.912 217.785 111.694 216.133 110.456C214.236 109.056 212.195 107.894 210.131 106.857C209.447 106.507 208.74 106.205 208.015 105.951C210.438 105.143 212.83 104.281 215.048 103.274C215.448 103.105 215.832 102.909 216.189 102.718L216.232 102.74C216.503 102.837 216.817 102.955 217.103 103.079C217.558 103.23 218.492 103.738 218.679 103.851C222.319 105.991 224.594 109.722 228.551 111.709C230.215 112.584 232.315 113.133 233.645 112.36C235.84 110.485 230.978 106.992 228.742 105.538C226.625 104.241 224.33 103.401 222.046 102.798C220.901 102.479 219.732 102.257 218.551 102.133C218.183 102.086 217.811 102.068 217.44 102.081C220.184 100.643 222.749 98.8866 225.082 96.8483C225.195 96.8858 225.322 96.8912 225.436 96.9289C226.09 97.1135 226.732 97.3385 227.359 97.6027C228.973 98.2769 230.197 99.0277 231.659 100.093C233.467 101.391 235.286 102.927 237.441 103.464C238.19 103.588 239.051 103.689 239.555 103.319C239.988 102.933 240.084 102.222 239.637 101.589C239.02 100.598 237.922 99.8515 236.883 99.1548C235.935 98.5202 234.946 97.9516 233.92 97.453C232.677 96.8255 231.372 96.3268 230.027 95.9648C228.952 95.661 227.859 95.4242 226.755 95.256C227.158 94.8159 227.56 94.3759 227.948 93.9088L227.976 93.9033C229.649 92.9724 231.613 92.285 232.731 90.8024C233.181 90.1724 233.574 89.4938 233.524 88.6318C233.543 87.3954 231.757 86.3039 230.474 86.1657C229.133 85.9782 228.224 86.7289 227.899 87.6948C227.557 88.9048 227.867 90.2868 227.78 91.5667C227.761 92.1695 227.682 92.769 227.546 93.3565C227.533 93.3849 227.527 93.4158 227.529 93.4468C227.53 93.4779 227.538 93.5082 227.553 93.5354C227.085 94.0787 226.616 94.6219 226.092 95.176C225.708 95.5782 225.302 95.9592 224.877 96.3174C225.11 95.5198 225.03 94.6035 224.557 93.7049C224.264 93.071 223.543 92.6117 222.832 92.3909C221.228 91.9552 220.784 93.0948 221.439 94.3188C221.929 95.3047 223.004 96.5063 222.963 97.2063C222.97 97.3982 222.964 97.5903 222.945 97.7813C222.926 97.8133 222.916 97.8494 222.915 97.8863C222.914 97.9232 222.922 97.9598 222.939 97.9927C221.802 98.8854 220.608 99.703 219.364 100.44C219.815 99.4797 220.15 98.4215 219.847 97.2185C219.577 96.1292 218.462 94.9658 217.146 95.0444C215.914 95.1069 215.086 95.7809 214.415 96.5143C213.055 97.8945 212.827 100.194 212.308 101.86C212.074 102.657 211.684 103.396 211.279 104.107C211.241 104.205 211.091 104.324 211.111 104.471C207.932 105.638 204.674 106.61 201.35 107.685C199.925 108.176 198.515 108.694 197.224 109.369C197.787 108.718 198.321 108.071 198.84 107.398C199.503 107.478 200.103 107.39 200.483 107.074C200.903 106.721 200.719 106.006 200.18 105.54C200.456 105.095 200.76 104.644 201.021 104.172C202.474 104.999 203.873 105.565 204.976 105.107C205.911 104.623 205.195 103.29 204.214 102.642C203.8 102.359 203.362 102.113 202.906 101.907C203.388 101.543 203.901 101.221 204.438 100.944C206.828 99.6922 209.675 98.9819 211.726 97.3444C212.759 96.5397 213.917 95.6804 214.198 94.3622C214.29 93.8632 214.321 93.2558 213.878 92.7417C212.196 91.1185 209.91 92.1699 208.617 92.7854C207.504 93.3373 206.553 94.1666 205.854 95.1934C205.165 96.1708 204.722 97.3105 204.192 98.4069C203.967 98.8594 203.718 99.2998 203.447 99.7262C203.513 99.623 203.563 99.4928 203.629 99.3895C204.118 98.3312 204.522 97.2295 204.925 96.128C204.981 96.117 204.993 96.0844 205.049 96.0735C205.071 96.0583 205.09 96.0382 205.104 96.0147C205.117 95.9912 205.125 95.9649 205.127 95.9378C205.12 95.8777 205.098 95.8201 205.064 95.7698C205.077 95.7373 205.089 95.7047 205.117 95.6992C205.156 95.7073 205.196 95.7021 205.231 95.6842C205.266 95.6664 205.294 95.6371 205.31 95.6012C206.035 93.8048 208.302 90.6225 206.535 88.2947C206.296 88.0784 205.987 87.9575 205.665 87.9549C204.822 87.9404 204.384 88.5378 204.112 89.1023C203.499 90.546 203.457 92.2379 203.881 93.9884C203.991 94.4798 204.128 94.9647 204.293 95.4407C204.353 95.549 204.358 95.6683 204.447 95.7712C204.171 95.8855 203.91 96.0272 203.634 96.1415C203.366 95.286 203.174 94.4081 203.062 93.5184C202.901 92.3475 202.725 90.488 201.339 89.5583C201.126 89.438 200.875 89.4033 200.637 89.4614C200.4 89.5194 200.194 89.6658 200.06 89.8708C199.478 90.707 199.753 91.9157 200.177 93.0045C200.552 93.9512 201.052 94.8437 201.663 95.6584C201.917 96.0088 202.203 96.3349 202.518 96.6325L202.533 96.6597C202.108 96.8938 201.683 97.1278 201.3 97.3834C199.852 98.33 198.624 99.5039 197.408 100.645C197.286 100.759 197.177 100.841 197.056 100.955C196.892 100.717 196.755 100.473 196.618 100.229C196.176 99.4323 195.794 98.6029 195.476 97.7483C194.926 96.3233 194.153 93.95 192.306 92.7503C191.715 92.3557 191.062 92.5143 190.811 92.8944C190.403 93.5459 190.822 94.5157 191.151 95.3229C191.742 96.7098 192.682 98.0579 193.732 99.3245C194.351 100.044 194.955 100.737 195.643 101.413C195.803 101.532 195.937 101.717 196.109 101.803C195.298 102.564 194.46 103.33 193.622 104.096C192.872 102.591 192.394 101.241 191.795 99.6757C191.217 98.2563 190.62 96.7507 189.349 95.5274C188.314 94.6187 187.158 94.8163 186.858 95.717C186.303 97.2094 187.002 99.1762 187.943 100.855C188.558 101.878 189.295 102.823 190.137 103.669C190.641 104.185 191.172 104.672 191.728 105.13C191.872 105.222 192.004 105.346 192.148 105.438C191.756 105.786 191.35 106.167 190.958 106.514L189.78 107.558C189.753 107.564 189.725 107.569 189.74 107.596C189.712 107.601 189.727 107.628 189.727 107.628C189.428 107.867 189.117 108.139 188.818 108.378L188.79 108.384C187.787 106.206 186.587 104.007 184.764 102.021C183.924 101.074 182.986 100.116 181.835 99.4408C180.555 98.7007 178.591 98.065 178.413 99.5132C178.346 100.939 179.426 102.26 180.736 103.385C179.861 102.926 178.922 102.63 178.036 102.594C177.51 102.567 176.994 102.742 176.593 103.084C176.192 103.426 175.938 103.908 175.881 104.431C175.799 106.492 177.905 108.543 179.4 110.383C180.211 111.336 180.957 112.392 180.952 113.265C180.939 113.538 180.893 113.81 180.817 114.073C180.779 114.17 180.698 114.247 180.758 114.355C180.775 114.39 180.8 114.422 180.83 114.447C180.86 114.472 180.895 114.491 180.933 114.501C180.864 114.567 180.802 114.64 180.746 114.718C180.194 114.947 179.731 115.279 179.657 115.865C179.664 115.927 179.657 115.99 179.637 116.049C179.605 116.112 179.565 116.171 179.517 116.223C179.26 116.577 179.023 116.945 178.805 117.325C178.913 115.861 179.076 114.386 178.462 112.793C177.495 110.127 174.758 107.449 173.953 104.962C173.546 103.629 173.671 102.582 173.563 101.34C173.705 101.372 173.829 101.318 173.852 101.193C173.923 100.879 173.981 100.597 174.068 100.309C174.331 99.2347 174.55 98.41 174.885 97.352C175.07 96.7443 175.283 96.1312 175.496 95.5179L175.524 95.5124C175.915 95.4351 176.312 95.3871 176.711 95.3689C177.465 95.2805 179.277 95.3147 180.14 95.4755C181.932 95.694 184.176 96.6653 185.47 95.719C186.435 94.9578 185.623 93.344 184.353 92.5114C182.864 91.4518 181.003 90.946 179.452 91.1012C178.306 91.2067 177.445 91.7669 176.64 92.3163C176.497 92.4094 176.351 92.4983 176.202 92.5829C176.367 91.8289 176.505 91.0803 176.69 90.4727C177.19 88.6602 177.991 86.9995 178.706 85.2954C178.847 85.3277 178.971 85.2732 179.098 85.2783C179.435 85.2722 179.771 85.2658 180.095 85.2924C181.073 85.369 182.042 85.5302 182.992 85.7743C184.141 86.0592 185.31 86.4905 186.466 86.6243C188.104 86.843 189.721 86.5848 190.65 85.6502C191.509 84.6994 190.396 83.2648 189.033 82.5412C187.639 81.7633 186.095 81.4358 184.676 81.3847C182.596 81.3132 181.38 82.1237 180.612 83.5677C180.402 83.9097 179.888 84.3717 179.471 84.4539C179.322 84.5085 179.169 84.5487 179.012 84.5742C179.142 84.3083 179.228 84.0207 179.342 83.7277C179.984 81.9477 180.119 80.1472 181.219 78.5777C181.804 77.801 183.052 76.7735 183.67 75.7799C183.974 75.3293 184.278 74.8785 184.539 74.4063C186.463 74.0877 188.894 74.5108 191.031 74.2405C191.825 74.1142 192.615 73.8685 193.041 73.303C193.905 72.1405 193.093 70.8574 191.284 70.2214C189.359 69.4882 187.776 70.2507 186.531 71.0069C186.131 71.2758 185.771 71.5998 185.462 71.9694C185.564 71.5967 185.69 71.2306 185.837 70.8733C186.144 70.1514 186.519 69.7168 187.157 69.2004C187.868 68.7175 188.535 68.1738 189.152 67.5754C189.624 67.3117 190.081 67.021 190.519 66.7049C191.092 66.2917 191.664 65.8783 191.976 65.2758C192.419 64.4669 192.633 63.1922 191.472 62.2783C190.832 61.7429 189.87 61.5714 189.263 61.8113C187.807 62.5789 187.636 64.8675 188.042 66.5313C188.14 66.873 188.239 67.2144 188.337 67.5555L188.353 67.5825C188.082 67.8163 187.811 68.05 187.525 68.2567C187.017 68.5854 186.548 68.9702 186.127 69.4038C186.102 68.4767 186.455 67.5053 186.384 66.4969C186.332 64.9137 185.149 63.1323 183.434 62.0568C181.292 60.8252 179.59 61.7614 180.05 63.6853C180.241 64.5797 180.797 65.4623 181.338 66.3179C181.98 67.2437 182.666 68.1912 183.515 69.046C183.94 69.4735 184.406 69.8629 184.886 70.2794C185.03 70.4029 185.185 70.5133 185.349 70.6093C185.052 71.2389 184.9 71.9603 184.689 72.6332C184.353 73.6348 183.857 74.5753 183.219 75.4179C182.654 76.3409 181.419 77.3359 180.674 78.3243C180.531 78.516 180.408 78.7216 180.306 78.9379C180.277 78.8783 180.237 78.825 180.188 78.7809C179.867 77.491 179.871 76.2277 179.72 74.9645C179.484 72.6659 178.541 70.2659 175.731 68.8349C174.468 68.1815 172.826 67.8434 171.988 68.6099C171.043 69.5174 171.196 71.1709 172.053 72.5349C173.259 74.5224 175.376 76.1499 177.481 77.4793C178.331 78.0035 179.1 78.273 179.656 78.8249L179.686 78.879C179.727 79.0528 179.781 79.2231 179.848 79.3884C179.868 79.4206 179.896 79.4476 179.928 79.4673C179.961 79.487 179.997 79.4989 180.035 79.5019C179.485 80.7827 179.251 82.2418 178.798 83.4737C178.116 85.2917 177.261 87.0237 176.579 88.841C176.501 88.646 176.403 88.3047 176.324 88.1097C176.009 87.134 175.752 86.1406 175.555 85.1347C174.997 82.5385 174.217 79.3247 170.99 77.6453C166.767 75.6805 163.372 78.0628 166.115 81.9122C167.619 83.9912 169.997 85.4773 172.365 86.7247C173.559 87.4215 174.859 87.9773 175.678 88.778C175.815 88.9523 175.931 89.1412 176.025 89.3413C176.085 89.4495 176.075 89.5413 176.176 89.612L176.305 89.6768C176.257 89.8668 176.181 90.062 176.133 90.2518C175.737 91.5323 175.529 92.9268 175.219 94.2499C175.144 94.577 175.045 94.898 174.922 95.2103C174.894 95.2158 174.91 95.2429 174.897 95.2754C174.821 95.4708 174.773 95.6607 174.697 95.856C173.342 94.3186 172.602 92.3903 171.282 90.6959C169.985 89.2074 167.969 87.6502 166.003 87.6164C163.112 87.6442 165.079 91.376 166.672 92.8963C167.974 94.1732 169.641 95.1077 171.352 95.733C171.549 96.4159 171.802 97.0877 172.069 97.7867C171.877 97.5539 171.657 97.3265 171.465 97.0938C170.921 96.5094 169.619 94.9017 168.819 95.2397C168.067 95.7184 169.293 97.1907 170.045 97.7042C170.757 98.2368 171.557 98.6388 172.41 98.8917L172.438 98.8862C172.64 99.4944 172.783 100.121 172.866 100.756C172.93 101.258 172.965 101.763 172.972 102.269C172.914 102.22 172.84 102.144 172.782 102.096C172.504 101.82 172.253 101.538 172.003 101.257C171.429 100.618 170.911 99.9692 170.187 99.4495C168.839 98.4222 167.657 99.0157 168.57 100.369C169.272 101.403 170.598 101.894 171.734 102.212C171.962 102.287 172.531 102.476 172.794 102.724L172.809 102.751C172.868 102.8 172.898 102.854 172.956 102.903C173.019 104.063 173.195 105.261 173.933 106.469C175.328 108.96 177.591 111.4 178.086 113.829C178.398 115.601 177.967 117.37 178.059 119.246C178.093 121.404 178.595 123.68 178.7 125.854C178.742 126.206 178.785 126.559 178.84 126.879C178.089 126.035 177.298 125.228 176.465 124.46C174.746 122.935 172.998 121.415 171.374 119.84C171.383 119.69 171.415 119.542 171.469 119.401C171.619 118.855 171.848 118.335 172.148 117.854C172.898 116.654 174.642 115.409 174.965 113.722C175.477 111.547 172.731 109.953 170.7 110.743C168.925 111.604 168.937 113.886 169.113 115.746C169.205 116.509 169.359 117.263 169.572 118.001L169.352 117.773C168.206 116.556 167.114 115.268 165.981 114.017C165.976 113.898 165.857 113.741 165.809 113.6C165.649 113.319 165.515 113.023 165.407 112.717C165.016 111.742 164.682 110.154 164.699 109.189C164.665 107.031 165.987 105.418 165.44 103.06C165.17 101.64 163.501 99.6535 161.936 100.503C161.443 100.78 161.211 101.307 161.007 101.768C160.675 102.556 160.558 103.45 160.582 104.377C160.633 105.724 160.916 107.051 161.419 108.301C161.727 109.095 162.088 109.867 162.498 110.614C160.462 108.91 158.239 107.424 156.22 105.807C156.234 105.773 156.239 105.737 156.235 105.701C156.231 105.665 156.218 105.631 156.198 105.601C156.158 105.428 156.132 105.252 156.12 105.075C156.085 104.571 156.156 103.594 156.402 103.095C157.309 101.293 158.343 99.4959 158.236 97.2622C158.17 94.6595 157.426 90.2962 153.796 88.7259C151.311 87.7119 150.183 89.6175 150.172 91.3634C149.99 94.4057 151.671 97.6827 153.051 100.808C153.609 102.082 154.031 103.111 154.473 104.287C153.951 103.8 153.456 103.285 152.991 102.744C151.706 101.223 150.801 99.7179 149.719 98.0068C148.784 96.4472 147.738 94.9094 146.802 93.3498C146.621 93.0248 146.451 92.6673 146.269 92.3423C146.287 92.3243 146.301 92.3026 146.31 92.2786C146.319 92.2546 146.322 92.229 146.319 92.2036C146.317 92.1782 146.309 92.1536 146.296 92.1317C146.283 92.1097 146.265 92.0909 146.244 92.0767C144.922 90.6534 144.108 89.3104 142.922 87.8C141.114 85.5103 139.01 83.1885 136.347 81.5784C135.165 80.8489 133.883 80.7107 133.447 81.6984C133.186 82.5015 133.648 83.4928 134.093 84.3974C134.563 85.2369 135.076 86.0974 135.754 86.8664C136.859 88.122 138.209 89.2092 139.613 90.2255C141.234 91.3699 142.952 92.3696 144.748 93.213L146.509 94.0389C146.553 94.0608 146.602 94.0718 146.651 94.0712C147.255 95.0947 147.958 96.1288 148.59 97.1469C148.408 97.1131 148.228 97.0682 148.051 97.0124C147.181 96.7953 146.335 96.4882 145.528 96.096C142.622 94.7142 139.91 92.6323 136.727 91.696C136.117 91.546 135.482 91.4602 135.014 91.6727C134.75 91.8075 134.545 92.0345 134.437 92.3106C134.33 92.5867 134.328 92.8927 134.431 93.1704C134.847 94.4113 136.168 95.4442 137.407 96.2223C140.288 98.0002 143.623 99.2077 146.637 99.1253C147.647 99.1068 148.639 99.0017 149.482 98.6854L149.51 98.6799C150.427 100.153 151.372 101.62 152.538 102.984C153.542 104.17 154.751 105.224 155.998 106.182C156.19 106.341 156.388 106.493 156.593 106.636C155.148 106.319 153.805 105.742 152.289 105.078C150.731 104.393 149.175 103.767 147.566 103.212C145.645 102.598 143.535 101.811 141.751 102.102C140.665 102.316 140.442 103.352 141.213 104.342C141.913 105.317 143.079 106.019 144.131 106.684C145.91 107.732 147.841 108.498 149.854 108.955C151.881 109.427 153.898 109.662 155.816 109.555C157.132 109.476 158.489 109.359 159.651 108.95C159.679 108.944 159.663 108.917 159.663 108.917C161.229 110.112 162.766 111.313 164.084 112.617C164.891 113.451 165.67 114.29 166.421 115.134C164.434 115.018 162.465 114.701 160.543 114.187C157.822 113.58 154.447 112.41 152.616 113.943C151.487 114.797 151.936 116.482 153.429 117.602C154.863 118.672 156.607 119.08 158.198 119.218C160.666 119.484 162.711 118.72 164.496 117.768C165.265 117.376 166.24 116.853 166.906 116.662C167.094 116.595 167.291 116.556 167.49 116.547L167.657 116.514C168.158 117.077 168.702 117.662 169.23 118.219C169.435 118.419 169.612 118.625 169.802 118.798L169.832 118.852C169.863 118.906 169.905 118.928 169.991 118.971L170.826 119.799C170.823 119.83 170.827 119.861 170.838 119.89C170.849 119.919 170.866 119.945 170.889 119.967C170.952 120.018 171.025 120.055 171.104 120.075C172.449 121.373 173.863 122.628 175.305 123.878C176.538 124.943 177.697 126.091 178.774 127.314C178.832 127.362 178.878 127.443 178.951 127.519C178.963 127.589 178.961 127.661 178.946 127.731C178.77 129.569 179.075 131.493 179.395 133.445C178.223 134.277 176.163 134.021 174.568 134.485C173.459 134.824 172.568 135.66 172.631 136.821C172.67 138.106 173.684 139.53 175.121 140.33C177.091 141.475 178.988 140.5 179.333 139.019C179.653 137.934 179.732 136.806 179.824 135.645C180.117 136.941 180.397 138.269 180.52 139.537C180.716 140.882 180.52 142.243 180.552 143.68C180.59 143.913 180.529 144.135 180.623 144.357C180.772 144.569 181.149 144.524 181.111 144.291C181.021 143.467 181.128 142.334 181.144 141.369C181.125 140.417 181.057 139.467 180.941 138.522C180.752 137.026 180.323 135.487 180.02 133.953L180.051 133.677C180.055 133.662 180.055 133.646 180.052 133.631C180.049 133.616 180.043 133.602 180.033 133.59C180.283 133.541 180.281 133.481 180.448 133.448C181.377 133.175 182.344 133.136 183.371 133.203C183.334 133.301 183.366 133.415 183.313 133.485C183.28 133.702 183.229 133.833 183.206 133.957C182.973 134.755 182.595 135.461 182.233 136.193C181.559 137.529 180.798 139.152 181.926 140.943C183.809 144.03 187.423 143.529 186.651 140.494C186.285 138.792 184.862 136.968 184.321 135.451C184.139 134.795 184.094 134.383 184.252 133.781C184.278 133.624 184.328 133.472 184.402 133.331C185.305 133.454 186.196 133.609 187.127 133.726C187.583 133.786 188.043 133.816 188.503 133.817ZM172.191 96.7408C172.08 96.432 171.997 96.1177 171.901 95.8359C172.129 95.9109 172.384 95.9813 172.597 96.0297C173.123 96.1967 173.477 96.2772 173.897 96.5854L173.912 96.6124L173.955 96.634C174.071 96.7314 174.147 96.8668 174.276 96.9315C174.263 96.9642 174.279 96.9913 174.251 96.9967C173.89 98.0727 173.584 99.1665 173.335 100.274C173.323 100.306 173.338 100.333 173.31 100.339C173.149 99.168 172.648 97.9437 172.191 96.7408ZM182.481 125.051C182.787 124.99 183.954 125.031 184.237 125.096C184.51 125.136 184.779 125.193 185.045 125.268C184.636 125.947 184.398 126.716 184.352 127.508C184.057 127.215 183.72 126.968 183.353 126.773C182.677 126.366 181.933 126.084 181.157 125.943L181.142 125.916C181.37 125.66 181.597 125.405 181.841 125.177L181.868 125.171C182.066 125.102 182.272 125.062 182.481 125.051ZM190.781 115.088C190.581 113.886 190.235 112.712 189.751 111.593C189.435 110.853 189.082 110.13 188.692 109.426C188.623 109.295 188.542 109.17 188.452 109.053L188.9 108.694C189.96 109.206 190.899 109.834 191.956 110.618C192.535 111.045 193.16 111.553 193.825 112.023C192.83 113.062 191.792 114.078 190.781 115.088L190.781 115.088ZM201.068 97.9099C201.857 97.3554 202.691 96.8692 203.562 96.4568C203.742 96.3914 203.879 96.3043 204.058 96.2389C203.742 97.0529 203.44 97.8941 203.08 98.6864C202.72 99.4788 202.317 100.25 201.914 101.021C201.892 101.036 201.873 101.056 201.859 101.079C201.846 101.103 201.837 101.129 201.836 101.156C201.811 101.221 201.77 101.259 201.744 101.325C200.843 101.056 199.913 100.896 198.973 100.848C198.523 100.816 198.1 100.779 197.665 100.775C198.802 99.7694 199.911 98.7694 201.068 97.9102V97.9099ZM196.774 101.613C197.801 102.012 199.088 102.931 200.426 103.72C200.15 104.165 199.901 104.604 199.611 105.023C199.117 104.752 198.583 104.563 198.029 104.462C196.687 104.201 195.312 104.147 193.952 104.303C194.884 103.427 195.857 102.514 196.774 101.613ZM192.18 105.884C192.28 105.801 192.374 105.712 192.463 105.618C192.648 105.672 192.858 105.661 193.043 105.714C193.751 105.876 194.49 106.091 195.201 106.312C195.983 106.549 197.066 106.937 198.071 107.13C197.551 107.803 196.989 108.455 196.427 109.107C195.718 108.615 194.919 108.291 194.122 108.027C193.396 107.776 192.645 107.601 191.883 107.506C191.389 107.453 190.911 107.427 190.433 107.401C191.043 106.889 191.625 106.384 192.18 105.884V105.884ZM182.442 112.341C182.916 111.587 183.387 110.772 183.646 109.91C183.904 110.37 184.162 110.83 184.463 111.312C183.569 111.943 182.712 112.624 181.895 113.351C182.077 113.014 182.26 112.677 182.442 112.341L182.442 112.341ZM181.625 114.305C182.608 113.375 183.656 112.515 184.76 111.734C185.668 113.08 186.703 114.336 187.851 115.485C188.245 115.858 188.682 116.253 189.09 116.594C189.139 116.639 189.192 116.679 189.249 116.713C188.591 117.414 187.947 118.142 187.304 118.87C187.276 118.86 187.245 118.859 187.216 118.864C187.187 118.87 187.16 118.883 187.137 118.903C187.117 118.912 187.099 118.925 187.085 118.942C187.07 118.959 187.06 118.978 187.054 119C187.048 119.021 187.047 119.043 187.051 119.065C187.055 119.087 187.063 119.107 187.076 119.125C186.714 119.527 186.379 119.924 186.002 120.299C185.73 119.15 185.513 117.99 184.959 116.836C184.267 115.379 183.121 114.161 181.625 114.305ZM179.241 125.779C179.096 123.312 178.533 120.927 178.591 118.601C178.599 118.449 178.591 118.27 178.599 118.118C178.895 118.15 178.933 117.722 179.08 117.543C179.25 117.239 179.435 116.962 179.62 116.685C179.875 117.416 180.398 118.185 180.972 118.824C181.766 119.69 182.892 120.099 183.896 120.623C184.089 120.733 184.272 120.858 184.445 120.996C184.46 121.023 184.519 121.072 184.534 121.099C184.577 121.12 184.653 121.256 184.696 121.277C184.753 121.352 184.799 121.434 184.832 121.521C183.809 122.564 182.7 123.565 181.649 124.613C181.742 123.844 181.742 123.067 181.65 122.298C181.572 121.772 181.449 121.165 181.006 120.651C180.683 120.294 180.075 120.203 179.819 120.463C179.549 120.697 179.551 121.088 179.538 121.451C179.58 122.134 179.792 122.844 180.045 123.516C180.258 124.08 180.428 124.66 180.553 125.25C180.587 125.394 180.607 125.541 180.613 125.689C180.198 126.162 179.798 126.661 179.413 127.188C179.364 126.717 179.289 126.25 179.241 125.779H179.241ZM180.397 132.977C180.208 133.019 180.023 133.076 179.843 133.146L179.815 133.152C179.608 131.9 179.438 130.49 179.367 129.482C179.347 129.282 179.348 129.08 179.37 128.88C179.385 128.906 179.406 128.927 179.431 128.943C179.457 128.959 179.485 128.969 179.515 128.972C179.742 129.047 179.904 128.895 179.783 128.679C179.735 128.538 179.715 128.391 179.667 128.25C179.778 128.229 179.859 128.152 179.826 128.039C179.854 128.033 179.854 128.033 179.897 128.055C180.175 128.07 180.45 128.117 180.717 128.194C181.243 128.361 182.189 128.836 182.928 129.051C183.427 129.224 183.991 129.293 184.394 129.184C184.431 129.527 184.497 129.866 184.59 130.197C184.869 131.216 185.332 132.174 185.957 133.025C185.988 133.079 186.046 133.128 186.076 133.182C184.267 132.877 182.035 132.534 180.398 132.977H180.397Z" fill="#DAD8E4"/>
<path fill-rule="evenodd" clip-rule="evenodd" d="M69.9986 100.158C58.5952 102.851 41.4667 112.639 37.5206 94.5125C34.8172 82.0924 66.9206 83.1529 73.5881 76.2713C88.2553 61.133 110.831 74.8285 101.177 79.695C81.8342 89.4415 97.3536 93.6959 69.9986 100.158Z" fill="#F0EFF4"/>
<path fill-rule="evenodd" clip-rule="evenodd" d="M157.089 120.4C152.789 126.843 109.484 130.376 103.855 122.459C95.1548 110.234 120.21 75.2964 120.21 75.2964C119.887 73.6265 119.827 69.5898 121.142 68.0145C123.135 65.6201 120.171 63.3461 122.015 62.8296C124.385 62.1683 126.284 64.4071 130.413 65.5268C132.859 66.1833 132.517 72.6041 130.205 76.198C129.382 77.473 127.809 77.5895 127.809 77.5895C127.809 77.5895 118.144 101.372 120.197 105.927C122.743 111.561 134.864 105.074 153.489 102.445C162.396 101.186 159.459 116.849 157.089 120.4Z" fill="#FFC197"/>
<path fill-rule="evenodd" clip-rule="evenodd" d="M133.131 102.994C134.761 104.244 135.146 107.204 135.423 109.056C135.716 111.014 135.627 113.023 134.973 114.91C133.99 117.75 131.949 120.072 131.111 122.964C130.489 125.115 130.637 127.54 131.367 129.651C131.707 130.639 132.221 131.557 132.886 132.362C136.826 137.111 144.938 135.338 149.913 133.669C155.512 131.789 161.042 128.209 163.931 122.9C168.413 114.668 164.347 104.514 156.626 99.9492C153.563 98.1598 150.114 97.1356 146.572 96.9634C142.364 96.7426 138.044 97.5408 134.408 99.7177L133.131 102.994Z" fill="url(#paint0_linear_783_27693)"/>
<path fill-rule="evenodd" clip-rule="evenodd" d="M116.753 76.8327C113.955 82.1114 110.347 93.6536 108.464 99.2869C106.062 106.52 105.105 112.002 108.797 118.479C113.165 126.163 127.745 123.159 134.879 121.186C136.453 120.749 138.007 120.244 139.537 119.671C141.696 118.882 143.792 117.932 145.808 116.828C149.968 114.503 153.441 111.308 156.551 107.726C157.445 106.698 158.246 105.576 159.192 104.599C159.473 104.307 159.899 103.876 160.357 103.929C161.126 104.017 161.303 105.437 161.407 105.989C161.802 108.277 161.771 110.667 161.615 112.974C161.001 122.095 158.038 131.205 149.884 136.187C144.851 139.264 138.58 140.221 132.84 141.063C127.11 141.903 121.078 142.663 115.276 142.134C104.918 141.19 93.9881 136.689 88.3208 127.503C81.7694 116.863 84.7851 102.642 90.1616 92.1751C91.5031 89.5659 93.0526 87.0565 94.8934 84.7697C98.4809 80.3136 103.286 76.2572 108.953 74.8966L116.753 76.8327Z" fill="black" fill-opacity="0.1"/>
<path fill-rule="evenodd" clip-rule="evenodd" d="M64.2185 64.1174C63.7081 63.3141 62.7383 62.7375 61.6258 62.575C60.5298 62.3989 59.4081 62.6514 58.4934 63.2801L11.2818 97.2639C10.0579 98.1449 9.72088 99.5756 10.4639 100.745L69.8789 194.27C70.3966 195.085 71.3585 195.65 72.4789 195.825C73.5748 196.001 74.6965 195.748 75.6113 195.12L122.823 161.136C124.047 160.255 124.384 158.824 123.64 157.654L64.2185 64.1174ZM63.509 64.4049L122.931 157.942C123.509 158.852 123.249 159.97 122.286 160.663L75.0745 194.646C74.3577 195.137 73.4816 195.336 72.6231 195.206C71.744 195.081 70.9936 194.622 70.5884 193.985L11.1735 100.458C10.588 99.5368 10.8485 98.4193 11.811 97.7261L59.0221 63.7424C59.739 63.2523 60.6151 63.0525 61.4735 63.1833C62.3609 63.3196 63.1038 63.7664 63.509 64.4043V64.4049Z" fill="#77536F"/>
<path fill-rule="evenodd" clip-rule="evenodd" d="M73.3551 63.264C73.2688 63.1259 73.1546 63.0075 73.0198 62.9162C72.8851 62.8249 72.7327 62.7629 72.5725 62.734C72.4152 62.7041 72.2535 62.7058 72.0968 62.739C71.9402 62.7722 71.7917 62.8362 71.66 62.9274L21.3432 99.1462C21.0969 99.3251 20.9283 99.5915 20.8721 99.8907C20.8158 100.19 20.8762 100.499 21.0409 100.755L79.8745 193.366C79.9598 193.502 80.0729 193.619 80.2065 193.708C80.34 193.798 80.491 193.858 80.6495 193.885C80.8068 193.918 80.9692 193.918 81.1265 193.884C81.2837 193.851 81.4323 193.785 81.5626 193.691L131.879 157.472C132.126 157.297 132.295 157.033 132.353 156.736C132.411 156.438 132.352 156.13 132.188 155.875L73.3551 63.264Z" fill="url(#paint1_linear_783_27693)"/>
<path fill-rule="evenodd" clip-rule="evenodd" d="M111.513 136.09C110.676 134.772 109.119 133.837 107.293 133.568C105.467 133.3 103.594 133.721 102.214 134.714L75.9249 153.637C72.5749 156.049 71.672 159.94 73.7085 163.146C74.546 164.464 76.1023 165.398 77.9278 165.666C79.7533 165.934 81.6272 165.513 83.0004 164.525L109.296 145.597C112.639 143.191 113.549 139.295 111.513 136.09ZM110.946 136.316L110.947 136.317C112.854 139.318 112.001 142.966 108.87 145.22L82.574 164.148C81.349 165.031 79.6718 165.409 78.0418 165.169C76.4184 164.924 75.0222 164.095 74.2747 162.919C72.368 159.918 73.2207 156.27 76.352 154.016L102.648 135.087C103.873 134.205 105.55 133.827 107.173 134.07C108.802 134.311 110.199 135.139 110.946 136.316H110.946Z" fill="white"/>
<path fill-rule="evenodd" clip-rule="evenodd" d="M132.66 127.69C132.132 126.858 131.439 126.143 130.624 125.589C129.809 125.035 128.89 124.653 127.922 124.466C126.954 124.28 125.959 124.293 124.996 124.506C124.034 124.718 123.125 125.124 122.325 125.7L88.6836 149.916C86.9845 151.138 85.8174 152.964 85.4215 155.019C85.0255 157.075 85.4308 159.203 86.5541 160.969C87.0824 161.802 87.7752 162.517 88.59 163.071C89.4048 163.626 90.3243 164.008 91.2922 164.195C92.26 164.381 93.2558 164.368 94.2182 164.155C95.1807 163.943 96.0896 163.536 96.8892 162.96L130.531 138.744C132.228 137.521 133.395 135.695 133.791 133.641C134.187 131.586 133.783 129.458 132.661 127.691L132.66 127.69Z" fill="#D62E2E"/>
<path fill-rule="evenodd" clip-rule="evenodd" d="M93.7784 109.076C93.5649 108.74 93.285 108.451 92.9557 108.227C92.6265 108.003 92.255 107.849 91.864 107.774C91.473 107.699 91.0708 107.704 90.682 107.79C90.2933 107.876 89.9263 108.041 89.6034 108.274L56.7137 131.949C56.0315 132.439 55.5627 133.172 55.4034 133.997C55.2442 134.822 55.4065 135.677 55.8571 136.386C56.0703 136.721 56.3497 137.009 56.6782 137.233C57.0067 137.457 57.3774 137.611 57.7676 137.686C58.1578 137.762 58.5593 137.757 58.9475 137.672C59.3357 137.587 59.7024 137.423 60.0253 137.192L92.9218 113.512C93.604 113.022 94.0729 112.29 94.2322 111.465C94.3916 110.64 94.2294 109.785 93.7788 109.076L93.7784 109.076ZM100.777 120.089C100.563 119.753 100.283 119.464 99.954 119.24C99.6248 119.016 99.2533 118.862 98.8623 118.787C98.4713 118.712 98.0691 118.717 97.6803 118.803C97.2916 118.889 96.9245 119.054 96.6017 119.287L63.7118 142.962C63.0296 143.453 62.5608 144.186 62.4016 145.011C62.2423 145.835 62.4046 146.69 62.8552 147.399C63.0684 147.735 63.3478 148.023 63.6763 148.247C64.0048 148.47 64.3755 148.625 64.7657 148.7C65.1559 148.775 65.5574 148.77 65.9456 148.685C66.3338 148.6 66.7006 148.437 67.0234 148.205L99.9197 124.526C100.602 124.035 101.071 123.303 101.23 122.478C101.389 121.653 101.227 120.799 100.777 120.09V120.089Z" fill="white"/>
<path d="M97.4694 154.059L98.388 153.301C98.4743 153.388 98.5786 153.454 98.6937 153.496C98.8087 153.539 98.9315 153.555 99.0535 153.544C99.3523 153.497 99.6336 153.373 99.8688 153.183C100.127 153.018 100.343 152.794 100.498 152.53C100.597 152.323 100.608 152.154 100.529 152.03C100.504 151.99 100.47 151.957 100.429 151.933C100.388 151.91 100.342 151.897 100.296 151.895C100.14 151.899 99.9868 151.936 99.8469 152.005C99.7181 152.059 99.4229 152.201 98.9634 152.422C98.3784 152.714 97.937 152.87 97.6364 152.887C97.2184 152.917 96.9276 152.797 96.7561 152.527C96.6436 152.335 96.6076 152.108 96.6554 151.89C96.7199 151.601 96.854 151.331 97.0461 151.106C97.3044 150.798 97.6029 150.527 97.9336 150.299C98.5488 149.856 99.0705 149.616 99.4986 149.579C99.9268 149.541 100.245 149.68 100.457 149.979L99.4951 150.716C99.429 150.649 99.3483 150.598 99.2593 150.567C99.1702 150.536 99.0752 150.526 98.9816 150.538C98.7257 150.593 98.4864 150.708 98.2834 150.873C98.0438 151.029 97.8415 151.237 97.691 151.48C97.6556 151.525 97.6343 151.58 97.6299 151.637C97.6254 151.694 97.638 151.751 97.666 151.801C97.6981 151.843 97.7415 151.875 97.791 151.893C97.8405 151.911 97.8942 151.915 97.9456 151.903C98.1176 151.882 98.4681 151.746 98.9939 151.478C99.3869 151.27 99.7966 151.096 100.219 150.957C100.464 150.879 100.725 150.864 100.977 150.915C101.202 150.972 101.395 151.116 101.513 151.315C101.641 151.531 101.682 151.788 101.628 152.032C101.564 152.348 101.419 152.642 101.206 152.884C100.921 153.222 100.592 153.52 100.227 153.769C99.6071 154.216 99.0725 154.459 98.6156 154.497C98.4034 154.522 98.1884 154.495 97.9888 154.418C97.7893 154.342 97.6111 154.219 97.4694 154.059ZM101.189 148.918L100.807 148.316L101.742 147.643L102.125 148.244L101.189 148.918ZM102.966 151.714L101.4 149.25L102.335 148.577L103.901 151.041L102.966 151.714ZM104.877 150.571L106.003 149.896C106.031 149.931 106.067 149.957 106.108 149.973C106.15 149.989 106.194 149.993 106.238 149.985C106.409 149.944 106.569 149.864 106.705 149.752C106.897 149.625 107.067 149.466 107.206 149.282C107.264 149.194 107.291 149.091 107.285 148.986C107.262 148.865 107.213 148.751 107.14 148.652L106.912 148.294C106.797 148.767 106.51 149.18 106.108 149.453C105.63 149.797 105.164 149.926 104.712 149.845C104.535 149.815 104.367 149.746 104.219 149.645C104.071 149.543 103.947 149.41 103.856 149.256C103.729 149.075 103.648 148.867 103.619 148.649C103.59 148.431 103.614 148.209 103.689 148.002C103.85 147.556 104.149 147.173 104.544 146.91C104.921 146.612 105.401 146.475 105.879 146.529L105.66 146.184L106.535 145.554L107.941 147.767C108.093 147.984 108.199 148.23 108.252 148.49C108.274 148.677 108.249 148.866 108.179 149.04C108.084 149.243 107.957 149.428 107.802 149.589C107.577 149.827 107.328 150.041 107.059 150.227C106.459 150.659 105.987 150.895 105.645 150.928C105.306 150.966 105.064 150.876 104.923 150.655C104.905 150.628 104.89 150.6 104.877 150.571ZM104.794 148.528C104.96 148.789 105.152 148.928 105.378 148.946C105.614 148.957 105.846 148.884 106.032 148.74C106.247 148.593 106.409 148.382 106.494 148.137C106.531 148.015 106.54 147.887 106.52 147.762C106.5 147.637 106.45 147.518 106.376 147.415C106.214 147.158 106.016 147.023 105.79 147.005C105.54 146.998 105.294 147.078 105.097 147.233C104.891 147.373 104.737 147.577 104.659 147.813C104.626 147.935 104.622 148.062 104.645 148.186C104.669 148.31 104.72 148.427 104.794 148.528ZM112.243 145.036L111.308 145.709L110.51 144.453C110.341 144.187 110.211 144.029 110.12 143.979C110.024 143.932 109.916 143.917 109.811 143.937C109.678 143.964 109.552 144.021 109.444 144.104C109.29 144.212 109.161 144.351 109.066 144.512C108.983 144.642 108.945 144.796 108.959 144.95C109.015 145.172 109.113 145.382 109.247 145.568L109.956 146.683L109.02 147.356L107.455 144.891L108.324 144.266L108.555 144.628C108.695 144.116 109.014 143.671 109.455 143.374C109.644 143.235 109.852 143.123 110.072 143.04C110.235 142.978 110.41 142.951 110.584 142.961C110.714 142.976 110.837 143.025 110.942 143.103C111.073 143.218 111.184 143.353 111.271 143.505L112.243 145.036ZM112.926 139.592L113.912 138.882L115.082 140.723C115.195 140.916 115.328 141.097 115.477 141.264C115.551 141.318 115.635 141.356 115.724 141.376C115.814 141.397 115.906 141.398 115.996 141.381C116.521 141.241 116.978 140.915 117.28 140.463C117.366 140.319 117.393 140.147 117.354 139.984C117.268 139.771 117.159 139.568 117.029 139.38L115.834 137.499L116.82 136.789L117.953 138.572C118.212 138.979 118.372 139.29 118.423 139.498C118.478 139.707 118.472 139.927 118.403 140.132C118.311 140.386 118.175 140.621 118 140.828C117.743 141.121 117.451 141.382 117.129 141.603C116.662 141.939 116.289 142.156 115.994 142.253C115.755 142.347 115.498 142.389 115.242 142.375C115.055 142.366 114.874 142.303 114.721 142.196C114.467 141.965 114.249 141.698 114.076 141.402L112.926 139.592ZM118.42 136.998L119.295 136.369L119.525 136.731C119.567 136.504 119.658 136.289 119.792 136.101C119.943 135.876 120.136 135.68 120.359 135.525C120.719 135.244 121.164 135.097 121.62 135.108C122.05 135.12 122.392 135.333 122.645 135.73C122.771 135.914 122.852 136.124 122.883 136.345C122.914 136.566 122.893 136.79 122.823 137.001C122.671 137.449 122.377 137.834 121.987 138.1C121.811 138.23 121.616 138.331 121.408 138.4C121.187 138.465 120.957 138.493 120.727 138.484L121.517 139.727L120.582 140.401L118.42 136.998ZM120.101 137.523C120.278 137.801 120.489 137.946 120.731 137.966C120.983 137.982 121.232 137.906 121.432 137.751C121.636 137.613 121.786 137.409 121.858 137.174C121.924 136.952 121.869 136.702 121.695 136.427C121.529 136.166 121.337 136.027 121.108 136.005C120.865 135.994 120.627 136.069 120.436 136.217C120.223 136.36 120.064 136.57 119.984 136.813C119.948 136.933 119.94 137.059 119.96 137.182C119.981 137.305 120.029 137.421 120.101 137.523Z" fill="white"/>
<path d="M70.4947 112.44C76.7802 106.538 77.9081 97.528 73.014 92.3163C68.1199 87.1046 59.0571 87.6646 52.7716 93.5671C46.486 99.4696 45.3581 108.479 50.2522 113.691C55.1463 118.903 64.2091 118.343 70.4947 112.44Z" fill="white"/>
<path fill-rule="evenodd" clip-rule="evenodd" d="M60.3277 109.49C58.5039 109.463 56.8597 108.662 55.8932 107.141C54.1411 104.383 55.285 100.292 58.4535 98.0114C61.622 95.7305 65.6285 96.1159 67.3802 98.8739C68.5135 100.658 68.4209 103.003 67.3747 105.049C71.6701 103.604 75.5137 104.32 76.4829 106.988C77.617 110.122 74.3514 114.77 69.2004 117.36C64.0494 119.949 58.9307 119.513 57.7967 116.379C57.0892 114.388 58.1379 111.788 60.3277 109.49Z" fill="url(#paint2_linear_783_27693)"/>
<path fill-rule="evenodd" clip-rule="evenodd" d="M153.195 172.892C154.297 152.093 146.986 133.992 147.652 122.102C148.078 114.559 144.813 103.364 157.209 101.551C167.837 99.9961 180.971 102.805 183.561 105.665C188.802 111.434 186.899 142.717 181.917 146.984C171.934 153.358 160.994 166.524 153.195 172.892Z" fill="url(#paint3_linear_783_27693)"/>
<path fill-rule="evenodd" clip-rule="evenodd" d="M174.69 117.094C173.827 118.246 173.338 119.672 172.932 121.036C171.861 124.554 171.82 128.065 172.308 131.685C172.787 135.26 173.733 138.963 173.088 142.579C172.6 145.254 171.164 147.466 169.761 149.737C166.236 155.45 164.155 157.325 159.382 161.561C156.668 163.961 151.375 173.827 152.175 177.666C152.727 180.344 156.959 177.744 158.55 176.926C162.866 174.701 166.724 171.574 170.936 169.132C176.947 165.636 183.706 162.618 188.209 157.116C194.189 149.804 194.906 138.747 192.608 129.882C191.516 125.662 189.592 121.245 185.796 118.824L174.69 117.094Z" fill="black" fill-opacity="0.1"/>
<path fill-rule="evenodd" clip-rule="evenodd" d="M182.333 106.042C189.478 109.058 204.028 150.11 195.664 157.757C187.301 165.405 132.162 151.932 132.162 151.932C130.582 152.563 126.639 153.38 124.834 152.383C122.119 150.876 123.79 147.512 122.936 145.798C121.842 143.594 114.026 148.553 114.341 144.285C114.538 141.76 127.209 140.348 131.173 141.947C132.59 142.517 132.999 144.041 132.999 144.041C132.999 144.041 172.272 147.678 176.36 144.806C181.417 141.248 168.743 128.422 170.715 113.922C171.929 105.01 178.41 104.382 182.333 106.042Z" fill="#FFC197"/>
<path fill-rule="evenodd" clip-rule="evenodd" d="M171.052 132.653C171.974 130.817 174.809 129.884 176.577 129.265C178.444 128.609 180.434 128.32 182.41 128.608C185.384 129.041 188.048 130.609 191.046 130.89C193.276 131.098 195.629 130.497 197.567 129.385C198.473 128.866 199.278 128.188 199.944 127.384C203.869 122.624 200.607 114.988 198.034 110.414C195.138 105.267 190.584 100.507 184.826 98.6651C175.9 95.807 166.689 101.705 163.654 110.146C162.47 113.49 162.111 117.069 162.607 120.582C163.179 124.756 164.774 128.85 167.594 132.012L171.052 132.653Z" fill="url(#paint4_linear_783_27693)"/>
<path fill-rule="evenodd" clip-rule="evenodd" d="M158.897 101.27C158.897 101.27 163.088 98.1698 162.11 94.9064C161.86 94.0496 159.968 96.4642 158.263 95.4189C155.933 93.9814 155.372 85.6967 158.003 81.3862C159.635 78.7146 165.376 77.1121 167.248 78.9319C169.12 80.7518 169.858 88.5087 169.213 92.3069C168.194 98.3657 173.716 102.011 173.716 102.011C173.716 102.011 164.544 109.351 162.235 115.444C161.559 117.234 158.897 101.27 158.897 101.27Z" fill="#FFC197"/>
<path fill-rule="evenodd" clip-rule="evenodd" d="M161.017 95.3525C161.35 95.1726 161.621 94.8055 161.87 94.531C162.444 93.9164 162.972 93.2613 163.451 92.5707C163.628 92.2957 163.804 92.0153 164.002 91.7438C164.044 91.6752 164.158 91.4756 164.262 91.4756C164.366 91.4756 164.304 91.8188 164.293 91.8631C164.224 92.3433 164.112 92.8165 163.96 93.2773C163.389 95.1637 162.213 96.576 160.955 98.0433L161.017 95.3525Z" fill="black" fill-opacity="0.1"/>
<path fill-rule="evenodd" clip-rule="evenodd" d="M159.281 84.8868C158.501 84.84 157.773 84.3845 157.169 83.9186C154.85 82.132 155.007 79.0236 157.024 77.0644C158.241 75.8883 160.736 75.1031 161.901 76.7588C162.276 76.2284 163.055 76.0036 163.648 75.8654C164.129 75.7377 164.629 75.694 165.125 75.7364C168.515 76.193 167.725 80.4535 170.304 81.8159C171.146 81.274 172.072 83.045 172.238 83.5848C172.81 85.4619 172.56 88.67 170.397 89.4188C170.21 89.9231 169.732 90.2778 169.305 90.5688C168.13 91.3769 166.238 91.955 164.927 91.12C164.77 91.0181 164.626 90.8957 164.501 90.756C163.565 89.715 164.553 88.5285 164.865 87.447C165.031 86.877 165.167 86.1636 164.667 85.7155C164.262 85.364 163.856 85.5636 163.534 85.903C163.045 86.4199 162.775 87.2341 161.995 87.3798C160.872 87.5878 159.78 86.5083 159.426 85.7511C159.353 85.5908 159.281 84.8868 159.281 84.8868Z" fill="black"/>
<path fill-rule="evenodd" clip-rule="evenodd" d="M152.11 76.6228C152.111 76.2572 152.009 75.8989 151.816 75.5884C151.623 75.278 151.346 75.028 151.018 74.8668L109.249 54.3249C108.951 54.1792 108.62 54.1116 108.288 54.1287C107.957 54.1457 107.635 54.2468 107.352 54.4224C107.07 54.5979 106.838 54.8423 106.676 55.1325C106.514 55.4226 106.429 55.7492 106.428 56.0814V62.9939C106.429 63.3592 106.531 63.717 106.724 64.0272C106.917 64.3374 107.193 64.5877 107.52 64.7499L149.297 85.2957C149.595 85.442 149.926 85.5099 150.258 85.4927C150.59 85.4756 150.912 85.374 151.194 85.1977C151.475 85.0214 151.707 84.7761 151.868 84.485C152.028 84.194 152.112 83.8668 152.11 83.5345L152.11 76.6228Z" fill="#D62E2E"/>
<path fill-rule="evenodd" clip-rule="evenodd" d="M112.32 64.5607L111.431 63.5551L112.587 62.3801L110.543 60.8332L110.816 59.9622L112.861 61.5088L112.752 59.3765L113.81 59.8432L113.918 61.9756L115.896 62.2045L116.272 63.3622L114.294 63.1332L115.626 65.4068L114.801 65.656L113.476 63.3845L112.32 64.5607ZM119.677 68.1747L118.788 67.169L119.945 65.994L117.9 64.4475L118.173 63.5765L120.218 65.123L120.11 62.9907L121.167 63.4575L121.275 65.5897L123.253 65.8187L123.629 66.9763L121.651 66.7475L122.983 69.0211L122.158 69.2701L120.833 66.9987L119.677 68.1747ZM127.56 71.6907L126.671 70.6851L127.828 69.5101L125.783 67.9636L126.057 67.0926L128.101 68.6392L127.993 66.5068L129.05 66.9736L129.158 69.106L131.136 69.3348L131.512 70.4926L129.535 70.2636L130.866 72.5372L130.041 72.7863L128.716 70.5148L127.56 71.6907ZM135.258 75.8378L134.369 74.8321L135.526 73.6571L133.481 72.1105L133.755 71.2396L135.799 72.7861L135.691 70.6538L136.748 71.1206L136.856 73.2528L138.834 73.4818L139.21 74.6395L137.232 74.4106L138.564 76.6841L137.739 76.9332L136.414 74.6618L135.258 75.8378ZM143.381 79.8327L142.492 78.8271L143.649 77.6521L141.604 76.1056L141.878 75.2346L143.922 76.7812L143.814 74.6488L144.871 75.1156L144.979 77.248L146.957 77.4768L147.333 78.6346L145.356 78.4056L146.687 80.6792L145.862 80.9283L144.537 78.6568L143.381 79.8327Z" fill="white"/>
<path fill-rule="evenodd" clip-rule="evenodd" d="M125.851 76.517C126.501 75.7795 130.404 74.0028 131.429 73.8602C133.062 73.6202 134.6 74.6904 134.034 76.244C133.809 76.8418 128.865 78.2152 127.505 78.2639C126.949 78.2815 125.591 76.8093 125.851 76.517Z" fill="#FFC197"/>
<defs>
<linearGradient id="paint0_linear_783_27693" x1="148.257" y1="96.928" x2="148.257" y2="135.425" gradientUnits="userSpaceOnUse">
<stop stop-color="#2B5097"/>
<stop offset="0.963542" stop-color="#1F215F"/>
<stop offset="1" stop-color="#1F205C"/>
</linearGradient>
<linearGradient id="paint1_linear_783_27693" x1="76.6131" y1="62.7128" x2="76.6131" y2="193.909" gradientUnits="userSpaceOnUse">
<stop stop-color="#2B5097"/>
<stop offset="0.963542" stop-color="#1F215F"/>
<stop offset="1" stop-color="#1F205C"/>
</linearGradient>
<linearGradient id="paint2_linear_783_27693" x1="65.89" y1="96.5242" x2="65.89" y2="119.049" gradientUnits="userSpaceOnUse">
<stop stop-color="#2B5097"/>
<stop offset="0.963542" stop-color="#1F215F"/>
<stop offset="1" stop-color="#1F205C"/>
</linearGradient>
<linearGradient id="paint3_linear_783_27693" x1="167.123" y1="101.107" x2="167.123" y2="172.892" gradientUnits="userSpaceOnUse">
<stop stop-color="#2B5097"/>
<stop offset="0.963542" stop-color="#1F215F"/>
<stop offset="1" stop-color="#1F205C"/>
</linearGradient>
<linearGradient id="paint4_linear_783_27693" x1="182.078" y1="97.9358" x2="182.078" y2="132.653" gradientUnits="userSpaceOnUse">
<stop stop-color="#2B5097"/>
<stop offset="0.963542" stop-color="#1F215F"/>
<stop offset="1" stop-color="#1F205C"/>
</linearGradient>
</defs>
</svg>
