<svg width="26" height="26" viewBox="0 0 26 26" fill="none" xmlns="http://www.w3.org/2000/svg">
<rect width="26" height="26" rx="13" fill="#33CCFF"/>
<path d="M19.4526 8.88373C19.0233 9.06864 18.572 9.19741 18.1098 9.26684C18.3259 9.22977 18.6439 8.84047 18.7704 8.6829C18.9627 8.44521 19.1092 8.17388 19.2026 7.88267C19.2026 7.86104 19.2242 7.83015 19.2026 7.8147C19.1917 7.80875 19.1795 7.80563 19.1671 7.80563C19.1547 7.80563 19.1425 7.80875 19.1316 7.8147C18.6297 8.08672 18.0956 8.29434 17.5418 8.43263C17.5225 8.43853 17.502 8.43906 17.4824 8.43417C17.4628 8.42927 17.445 8.41912 17.4307 8.40483C17.3876 8.35345 17.3412 8.30495 17.2918 8.25961C17.0659 8.05707 16.8097 7.89129 16.5324 7.76835C16.1581 7.61467 15.7539 7.54811 15.3501 7.57371C14.9584 7.59847 14.5759 7.70364 14.2265 7.88267C13.8824 8.07143 13.58 8.32786 13.3374 8.63655C13.0823 8.95428 12.8981 9.32301 12.7972 9.71794C12.7141 10.0936 12.7046 10.4819 12.7694 10.8611C12.7694 10.926 12.7694 10.9353 12.7139 10.926C10.5129 10.6016 8.70705 9.8199 7.2315 8.1422C7.16667 8.06805 7.13272 8.06805 7.08024 8.1422C6.43816 9.11854 6.74994 10.6634 7.55254 11.4265C7.66058 11.5285 7.77171 11.6274 7.88902 11.72C7.52103 11.6939 7.16203 11.5941 6.83329 11.4265C6.77155 11.3864 6.73759 11.408 6.73451 11.4821C6.72575 11.5849 6.72575 11.6883 6.73451 11.7911C6.79892 12.2838 6.9929 12.7505 7.29663 13.1435C7.60036 13.5366 8.00294 13.8418 8.46318 14.028C8.57538 14.0761 8.69229 14.1124 8.81201 14.1362C8.47134 14.2033 8.12195 14.2137 7.77789 14.1671C7.7038 14.1516 7.67602 14.1918 7.7038 14.2628C8.15758 15.4987 9.14231 15.8757 9.86465 16.0857C9.96343 16.1012 10.0622 16.1012 10.1733 16.1259C10.1733 16.1259 10.1733 16.1259 10.1548 16.1445C9.94182 16.5338 9.08057 16.7964 8.68544 16.9323C7.96424 17.1916 7.19529 17.2907 6.43199 17.2227C6.3116 17.2042 6.28381 17.2073 6.25294 17.2227C6.22208 17.2382 6.25294 17.2722 6.2869 17.3031C6.44125 17.405 6.59559 17.4946 6.75611 17.5812C7.23398 17.842 7.73919 18.0493 8.26253 18.1991C10.9729 18.9468 14.0227 18.3968 16.057 16.3731C17.6561 14.785 18.2179 12.5944 18.2179 10.4008C18.2179 10.3173 18.3197 10.2679 18.3784 10.2246C18.7829 9.90915 19.1396 9.53657 19.4372 9.11854C19.4888 9.05623 19.5152 8.97689 19.5113 8.89608V8.89608C19.5113 8.84974 19.5113 8.85901 19.4526 8.88373Z" fill="white"/>
</svg>
