<svg width="26" height="26" viewBox="0 0 26 26" fill="none" xmlns="http://www.w3.org/2000/svg">
<rect width="26" height="26" rx="13" fill="#00D95F"/>
<path d="M6.5 19.0194L7.43272 15.5513C6.6805 14.2003 6.44152 12.6238 6.75962 11.1111C7.07771 9.59839 7.93156 8.25094 9.16446 7.31601C10.3974 6.38107 11.9266 5.92136 13.4717 6.02124C15.0167 6.12112 16.4738 6.77389 17.5756 7.85976C18.6775 8.94562 19.3501 10.3918 19.4701 11.9328C19.5902 13.4738 19.1495 15.0064 18.2291 16.2492C17.3086 17.4921 15.9701 18.3619 14.4591 18.699C12.9481 19.0361 11.3661 18.818 10.0032 18.0845L6.5 19.0194ZM10.1721 16.7867L10.3888 16.9151C11.3759 17.4992 12.5289 17.7409 13.668 17.6026C14.8071 17.4642 15.8684 16.9536 16.6865 16.1502C17.5045 15.3468 18.0334 14.2958 18.1907 13.161C18.348 12.0262 18.1249 10.8713 17.5561 9.87633C16.9873 8.88135 16.1048 8.10216 15.0461 7.66019C13.9874 7.21822 12.812 7.1383 11.7031 7.43287C10.5941 7.72744 9.61393 8.37996 8.91525 9.28875C8.21656 10.1975 7.83862 11.3115 7.84033 12.4572C7.8394 13.4071 8.10254 14.3386 8.60046 15.148L8.73633 15.3717L8.21488 17.3073L10.1721 16.7867Z" fill="white"/>
<path fill-rule="evenodd" clip-rule="evenodd" d="M15.4303 13.3478C15.3033 13.2456 15.1545 13.1736 14.9955 13.1374C14.8364 13.1012 14.6711 13.1017 14.5122 13.1389C14.2735 13.2379 14.1193 13.6118 13.9651 13.7988C13.9326 13.8436 13.8848 13.875 13.8307 13.8872C13.7766 13.8993 13.7199 13.8913 13.6713 13.8648C12.7975 13.5231 12.065 12.8965 11.5929 12.0867C11.5526 12.0362 11.5336 11.972 11.5397 11.9078C11.5459 11.8435 11.5768 11.7841 11.6259 11.7421C11.798 11.5721 11.9243 11.3615 11.9932 11.1299C12.0084 10.8744 11.9498 10.6198 11.8242 10.3967C11.7271 10.0838 11.5424 9.80521 11.2918 9.59382C11.1625 9.53578 11.0192 9.51632 10.8791 9.53778C10.739 9.55925 10.6081 9.62073 10.5023 9.7148C10.3185 9.87311 10.1726 10.0706 10.0753 10.2926C9.97811 10.5147 9.93201 10.7557 9.94043 10.9979C9.941 11.1339 9.95826 11.2694 9.99184 11.4012C10.0771 11.7179 10.2082 12.0205 10.3811 12.2994C10.5058 12.513 10.6419 12.7198 10.7887 12.9189C11.2659 13.5729 11.8658 14.1282 12.555 14.554C12.9008 14.7703 13.2705 14.9462 13.6566 15.0782C14.0577 15.2597 14.5006 15.3294 14.9382 15.2798C15.1875 15.2422 15.4237 15.1439 15.6261 14.9937C15.8284 14.8434 15.9907 14.6459 16.0986 14.4183C16.162 14.2809 16.1812 14.1272 16.1537 13.9784C16.0876 13.6741 15.68 13.4945 15.4303 13.3478Z" fill="white"/>
</svg>
