<svg width="20" height="23" viewBox="0 0 20 23" fill="none" xmlns="http://www.w3.org/2000/svg">
<path d="M14.5388 15.4803H5.446V21.5538L7.81433 20.4827H12.185L14.5533 21.5538V16.9799C14.5485 16.982 14.5436 15.4782 14.5388 15.4803Z" fill="#505AC9"/>
<path d="M9.99969 15.4803L5.446 15.4803V21.5538L7.81433 20.4827L9.99969 20.4827V15.4803Z" fill="#505AC9"/>
<path d="M7.81435 15.4793V22.9997L9.99966 22.0113L12.185 22.9997V15.4812L7.81435 15.4793Z" fill="#7C91DE"/>
<path d="M9.99969 15.4803L7.81435 15.4793V22.9997L9.99966 22.0113L9.99969 15.4803Z" fill="#7C91DE"/>
<path d="M0.632812 8.91066L1.99583 6.30995L2.42133 3.40445L5.05443 2.10329L7.10448 0L9.99965 0.49733L12.8948 0L14.9448 2.10329L17.5779 3.40445L18.0034 6.30995L19.3664 8.91066L18.0034 11.5114L17.5779 14.4168L14.9448 15.718L12.8948 17.8213L9.99965 17.324L7.10448 17.8213L5.05443 15.718L2.42133 14.4168L1.99583 11.5114L0.632812 8.91066Z" fill="#505AC9"/>
<path d="M9.99965 0.49733L7.10448 0L5.05443 2.10329L2.42133 3.40445L1.99583 6.30995L0.632812 8.91066L1.99583 11.5114L2.42133 14.4168L5.05443 15.718L7.10448 17.8213L9.99965 17.324V0.49733Z" fill="#505AC9"/>
<path d="M9.99975 15.9887C13.9089 15.9887 17.0779 12.8197 17.0779 8.91055C17.0779 5.00142 13.9089 1.83244 9.99975 1.83244C6.09061 1.83244 2.92163 5.00142 2.92163 8.91055C2.92163 12.8197 6.09061 15.9887 9.99975 15.9887Z" fill="white"/>
<path d="M9.99975 1.83244C6.09061 1.83244 2.92163 5.00142 2.92163 8.91055C2.92163 12.8197 6.09061 15.9887 9.99975 15.9887V1.83244Z" fill="white"/>
<path d="M9.99967 3.63118C7.08846 3.63118 4.72 5.99965 4.72 8.9109C4.72 11.8221 7.08842 14.1906 9.99962 14.1906C12.9108 14.1906 15.2793 11.8221 15.2793 8.9109C15.2793 5.99965 12.9108 3.63118 9.99967 3.63118Z" fill="#505AC9"/>
<path d="M9.99967 3.63118C7.08846 3.63118 4.72 5.99965 4.72 8.9109C4.72 11.8221 7.08842 14.1906 9.99962 14.1906L9.99967 3.63118Z" fill="#505AC9"/>
</svg>
